<svg version="1.1" id="Capa_1" xmlns="http://www.w3.org/2000/svg" xmlns:xlink="http://www.w3.org/1999/xlink" x="0px" y="0px"
	 viewBox="0 0 141.7 141.7" enable-background="new 0 0 141.7 141.7" xml:space="preserve">
<g id="Mail">
	<linearGradient id="SVGID_1_" gradientUnits="userSpaceOnUse" x1="70.915" y1="141.4299" x2="70.915" y2="0.1">
		<stop  offset="0" style="stop-color:#043040"/>
		<stop  offset="1" style="stop-color:#043040"/>
	</linearGradient>
	<path fill="url(#SVGID_1_)" d="M140.7,66.6l-15.7-13V26c0-0.6-0.2-1.2-0.7-1.7L100.8,0.8c-0.4-0.4-1-0.7-1.7-0.7h-80
		c-1.3,0-2.4,1.1-2.4,2.4v51.2L1.1,66.6c-0.5,0.4-0.9,1.1-0.9,1.8V139c0,1.3,1.1,2.4,2.4,2.4l0,0h136.6c1.3,0,2.4-1.1,2.4-2.4V68.4
		C141.5,67.7,141.2,67,140.7,66.6z M41.6,103.7L4.9,134V73.4L41.6,103.7z M69.4,86.8c0.9-0.7,2.1-0.7,3,0l60.3,49.9H9.1L69.4,86.8z
		 M100.2,103.7l36.6-30.3V134L100.2,103.7z M101.5,8.1L117,23.6h-13.2c-1.3,0-2.4-1.1-2.4-2.4V8.1H101.5z M135.5,68.4L125,77V59.7
		L135.5,68.4z M96.8,4.8v16.5c0,3.9,3.2,7.1,7.1,7.1h16.5V81l-23.8,19.7L75.4,83.2c-2.6-2.2-6.4-2.2-9,0l-21.1,17.5L21.4,80.9V4.8
		H96.8z M16.7,77L6.3,68.4l10.4-8.6V77z"/>
	<linearGradient id="SVGID_2_" gradientUnits="userSpaceOnUse" x1="70.865" y1="56.612" x2="70.865" y2="51.811">
		<stop  offset="0" style="stop-color:#043040"/>
		<stop  offset="1" style="stop-color:#043040"/>
	</linearGradient>
	<path fill="url(#SVGID_2_)" d="M37.9,56.6h65.9c1.3,0,2.4-1.1,2.4-2.4c0-1.3-1.1-2.4-2.4-2.4H37.9c-1.3,0-2.4,1.1-2.4,2.4
		C35.6,55.5,36.6,56.6,37.9,56.6z"/>
	<linearGradient id="SVGID_3_" gradientUnits="userSpaceOnUse" x1="70.865" y1="66.014" x2="70.865" y2="61.213">
		<stop  offset="0" style="stop-color:#043040"/>
		<stop  offset="1" style="stop-color:#043040"/>
	</linearGradient>
	<path fill="url(#SVGID_3_)" d="M37.9,66h65.9c1.3,0,2.4-1.1,2.4-2.4s-1.1-2.4-2.4-2.4H37.9c-1.3,0-2.4,1.1-2.4,2.4S36.6,66,37.9,66
		z"/>
	<linearGradient id="SVGID_4_" gradientUnits="userSpaceOnUse" x1="70.865" y1="75.416" x2="70.865" y2="70.6149">
		<stop  offset="0" style="stop-color:#043040"/>
		<stop  offset="1" style="stop-color:#043040"/>
	</linearGradient>
	<path fill="url(#SVGID_4_)" d="M37.9,75.4h65.9c1.3,0,2.4-1.1,2.4-2.4s-1.1-2.4-2.4-2.4H37.9c-1.3,0-2.4,1.1-2.4,2.4
		C35.6,74.4,36.6,75.4,37.9,75.4z"/>
	<g>
		<linearGradient id="SVGID_5_" gradientUnits="userSpaceOnUse" x1="70.6196" y1="41.3087" x2="70.6196" y2="14.9031">
			<stop  offset="0" style="stop-color:#043040"/>
			<stop  offset="1" style="stop-color:#043040"/>
		</linearGradient>
		<path fill="url(#SVGID_5_)" d="M73.3,28.3V29h5c0.2,0,0.3,0.1,0.5,0.4c0.1,0.3,0.2,0.7,0.2,1.3c0,0.7-0.1,1.1-0.2,1.4
			c-0.1,0.3-0.3,0.4-0.5,0.4h-5V35h5c0.2,0,0.3,0.1,0.5,0.4c0.2,0.3,0.2,0.7,0.2,1.3s-0.1,1.1-0.2,1.4c-0.1,0.3-0.3,0.4-0.5,0.4h-5
			v2.1c0,0.1,0,0.3-0.1,0.4c-0.1,0.1-0.2,0.2-0.4,0.2c-0.2,0.1-0.5,0.1-0.8,0.1s-0.8,0-1.3,0s-0.9,0-1.3,0c-0.3,0-0.6-0.1-0.8-0.1
			c-0.2-0.1-0.3-0.1-0.4-0.2C68,40.9,68,40.7,68,40.6v-2.1h-5c-0.2,0-0.3-0.1-0.5-0.4c-0.1-0.3-0.2-0.7-0.2-1.4
			c0-0.6,0.1-1.1,0.2-1.3c0.1-0.3,0.3-0.4,0.5-0.4h5v-2.5h-5c-0.2,0-0.3-0.1-0.5-0.4c-0.1-0.3-0.2-0.7-0.2-1.4
			c0-0.6,0.1-1.1,0.2-1.3c0.1-0.3,0.3-0.4,0.5-0.4h5v-0.7l-6.5-11.1c-0.3-0.5-0.5-0.8-0.6-1.1c-0.1-0.3-0.1-0.5,0.1-0.6
			c0.1-0.1,0.4-0.2,0.8-0.3c0.4,0,1-0.1,1.7-0.1c0.6,0,1,0,1.4,0s0.7,0.1,0.9,0.1c0.2,0.1,0.4,0.1,0.5,0.2c0.1,0.1,0.2,0.3,0.3,0.4
			l2.2,4.2c0.4,0.8,0.8,1.5,1.1,2.2s0.7,1.5,1,2.2c0.3-0.7,0.7-1.5,1-2.2c0.3-0.7,0.7-1.5,1.1-2.3l2.2-4.2c0.1-0.2,0.2-0.3,0.3-0.5
			c0.1-0.1,0.2-0.2,0.4-0.2s0.5-0.1,0.8-0.1c0.3,0,0.8,0,1.4,0c0.6,0,1.2,0,1.5,0.1c0.4,0,0.6,0.1,0.7,0.3c0.1,0.1,0.1,0.3,0,0.6
			c-0.1,0.3-0.3,0.7-0.6,1.2L73.3,28.3z"/>
	</g>
</g>
</svg>
