<svg version="1.1" id="Capa_1" xmlns="http://www.w3.org/2000/svg" xmlns:xlink="http://www.w3.org/1999/xlink" x="0px" y="0px"
	 viewBox="0 0 850.4 850.4" enable-background="new 0 0 850.4 850.4" xml:space="preserve">
<g>
	<linearGradient id="SVGID_1_" gradientUnits="userSpaceOnUse" x1="426.1264" y1="847.4593" x2="426.1264" y2="14.4444">
		<stop  offset="0" style="stop-color:#043040"/>
		<stop  offset="1" style="stop-color:#043040"/>
	</linearGradient>
	<path fill="url(#SVGID_1_)" d="M592.2,4.3c5.2,4.3,10.8,8.2,15.5,13.1c20.6,21.2,41,42.6,61.1,64.3c3,3.3,5.4,8.5,5.5,12.9
		c0.5,30.7,0.3,61.4,0.3,92c0,8.7-4.5,13.7-11.7,13.9c-7.5,0.3-12.8-5.1-12.8-13.8c-0.2-24.1-0.1-48.2-0.1-72.3c0-2.9,0-5.9,0-9.8
		c-17.4,0-34,0-50.6,0c-17.4,0-25-7.6-25.1-24.9c0-16.6,0-33.3,0-50.3c-173.7,0-346.7,0-520.2,0c0,249.4,0,498.5,0,748.2
		c139.3,0,278.2,0,418.2,0c0-12.4,0-24.6,0-36.9c0-3-0.1-6,0-9c0.2-9.1,4.6-14.3,12.2-14.4c7.6-0.1,12.4,5.2,12.4,14.1
		c0.1,16.7,0,33.4,0,50.1c0,26.6,13.2,39.6,40,39.6c74.2,0,148.5,0,222.7,0c26,0,39.3-13.5,39.4-39.6c0-116.4,0-232.8,0-349.2
		c0-26.1-13.4-39.7-39.3-39.7c-74.5-0.1-149-0.1-223.5,0c-25.9,0-39.2,13.5-39.2,39.7c0,65.2,0,130.4,0,195.6c0,2.2,0,4.4,0,6.6
		c0,11.7-4.3,17.6-12.5,17.4c-8-0.1-12.1-5.8-12.1-17c0-15.1,0-30.1,0-45.2c0-2.7,0-5.4,0-9.2c-3.8,0-7,0-10.2,0
		c-39.2,0-78.3,0-117.5,0c-2.7,0-5.5,0.1-8.2-0.3c-7.1-0.9-12-6.3-11.4-12.7c0.7-6.8,4.6-11,11.7-11.5c2.5-0.2,4.9-0.1,7.4-0.1
		c39.2,0,78.3,0,117.5,0c3.2,0,6.5,0,10.2,0c0-12.7,0-24.7,0-38c-3.1,0-6.2,0-9.3,0c-39.4,0-78.9,0-118.3,0c-3,0-6.1,0.1-9-0.4
		c-6.7-1.1-10.1-5.6-10-12.1c0-6.1,3.4-10.4,9.6-11.6c2.9-0.6,6-0.5,9-0.5c39.2,0,78.3,0,117.5,0c3.3,0,6.5,0,10.4,0
		c0-12.6,0-24.8,0-38c-3.3,0-6.5,0-9.7,0c-39.4,0-78.9,0-118.3,0c-3,0-6.8,0.9-8.8-0.6c-3.8-2.8-8.9-6.9-9.2-10.7
		c-0.3-3.9,3.9-8.9,7.4-12c2.2-1.9,6.8-1.3,10.3-1.3c39.4-0.1,78.9,0,118.3,0c3.2,0,6.4,0,8.3,0c3.6-13,7-25,10.6-37.9
		c-1.8,0-4.6,0-7.4,0c-43.3,0-86.6,0-129.8,0c-2.7,0-5.5,0.1-8.2-0.3c-6.3-0.9-10.6-5.4-9.8-11.1c0.6-4.3,4.3-9,7.9-11.9
		c2.5-2,7.3-1.3,11.1-1.3c98.1-0.1,196.1,0,294.2,0c3.5,0,7,0,11.4,0c0-5.7,0-10.5,0-15.4c0-24.1,0-48.2,0-72.3
		c0-6.9,2-12.6,9.2-14.6c8.7-2.4,15.4,3.5,15.4,13.9c0.1,26,0,52,0,78.1c0,3,0,6,0,9.9c3.3,0.2,6.2,0.5,9,0.5c25.5,0,50.9,0,76.4,0
		c38.9,0.1,63.5,24.8,63.5,63.8c0,116.1,0,232.3,0,348.4c0,34.9-14.4,54.3-47.8,64.6c-0.5,0.1-0.8,0.7-1.2,1
		c-84.4,0-168.7,0-253.1,0c-1.8-0.6-3.5-1.3-5.3-1.8c-17.9-5.2-31.4-15.8-38.6-33c-2.9-7-6.5-8.3-13.3-8.3
		c-135.9,0.2-271.7,0.1-407.6,0.1c-21.1,0-28-6.9-28-28.1c0-247.3,0.1-494.7-0.2-742c0-12.6,3.1-22.4,14.6-28.5
		C226.2,4.3,409.2,4.3,592.2,4.3z M599.2,79.3c11.1,0,21.3,0,28.1,0c-8.9-8.9-19.1-19.1-28.1-28.2C599.2,59,599.2,69,599.2,79.3z"/>
	<linearGradient id="SVGID_2_" gradientUnits="userSpaceOnUse" x1="647.7469" y1="847.4593" x2="647.7469" y2="14.4444">
		<stop  offset="0" style="stop-color:#043040"/>
		<stop  offset="1" style="stop-color:#043040"/>
	</linearGradient>
	<path fill="url(#SVGID_2_)" d="M647.6,536.8c-36.2,0-72.3,0-108.5,0c-17.4,0-25-7.5-25.1-25.1c-0.1-23-0.1-46,0-69
		c0.1-17.1,7.6-24.4,24.7-24.4c72.9,0,145.7,0,218.6,0c16.6,0,24.1,7.4,24.1,24c0.1,23.6,0.1,47.1,0,70.7
		c-0.1,15.8-7.9,23.7-23.7,23.8C721,536.8,684.3,536.8,647.6,536.8z M539.3,511.5c72.6,0,144.8,0,216.9,0c0-23.1,0-45.6,0-68.2
		c-72.6,0-144.5,0-216.9,0C539.3,466.2,539.3,488.8,539.3,511.5z"/>
	<linearGradient id="SVGID_3_" gradientUnits="userSpaceOnUse" x1="588.3489" y1="847.4593" x2="588.3489" y2="14.4444">
		<stop  offset="0" style="stop-color:#043040"/>
		<stop  offset="1" style="stop-color:#043040"/>
	</linearGradient>
	<path fill="url(#SVGID_3_)" d="M536,617.1c0-10.4-0.2-20.8,0.1-31.2c0.3-12.4,8.3-20.6,20.7-20.8c20.8-0.3,41.6-0.3,62.4,0
		c12.5,0.2,20.9,7.9,21.2,20.3c0.5,21.3,0.5,42.7,0,64.1c-0.3,12.5-8.7,20.3-21.1,20.4c-20.8,0.2-41.6,0.3-62.4,0
		c-12.4-0.2-20.5-8.4-20.8-20.7C535.8,638.4,536,627.7,536,617.1z M615.4,590.1c-18.4,0-36.3,0-54.3,0c0,18.5,0,36.4,0,54.6
		c18.4,0,36.3,0,54.3,0C615.4,626.3,615.4,608.4,615.4,590.1z"/>
	<linearGradient id="SVGID_4_" gradientUnits="userSpaceOnUse" x1="588.3202" y1="847.4593" x2="588.3202" y2="14.4444">
		<stop  offset="0" style="stop-color:#043040"/>
		<stop  offset="1" style="stop-color:#043040"/>
	</linearGradient>
	<path fill="url(#SVGID_4_)" d="M536,743.6c0-10.4-0.2-20.8,0.1-31.2c0.3-12.4,8.3-20.6,20.7-20.8c21.1-0.3,42.2-0.3,63.3,0
		c11.7,0.2,20,7.9,20.3,19.5c0.6,21.9,0.6,43.8,0,65.7c-0.3,11.9-8.9,19.5-21,19.6c-20.8,0.2-41.6,0.3-62.4,0
		c-12.4-0.2-20.5-8.4-20.8-20.7C535.8,764.9,536,754.2,536,743.6z M561.1,771.3c18.5,0,36.2,0,54.1,0c0-18.5,0-36.6,0-54.7
		c-18.4,0-36,0-54.1,0C561.1,734.9,561.1,752.8,561.1,771.3z"/>
	<linearGradient id="SVGID_5_" gradientUnits="userSpaceOnUse" x1="707.3266" y1="847.4593" x2="707.3266" y2="14.4444">
		<stop  offset="0" style="stop-color:#043040"/>
		<stop  offset="1" style="stop-color:#043040"/>
	</linearGradient>
	<path fill="url(#SVGID_5_)" d="M759.9,617.2c0,10.1,0.1,20.2,0,30.3c-0.2,13.7-8.3,22.2-21.8,22.3c-20.5,0.2-41,0.2-61.5,0
		c-12.7-0.1-21.3-8.3-21.5-21c-0.4-21-0.4-42.1,0-63.1c0.2-12.3,8.7-20.5,21-20.7c21-0.3,42.1-0.3,63.1,0c12.3,0.2,20.3,8.7,20.6,21
		C760,596.4,759.8,606.8,759.9,617.2z M679.9,644.8c18.7,0,36.6,0,54.7,0c0-18.6,0-36.7,0-54.7c-18.5,0-36.5,0-54.7,0
		C679.9,608.5,679.9,626.2,679.9,644.8z"/>
	<linearGradient id="SVGID_6_" gradientUnits="userSpaceOnUse" x1="707.3366" y1="847.4593" x2="707.3366" y2="14.4444">
		<stop  offset="0" style="stop-color:#043040"/>
		<stop  offset="1" style="stop-color:#043040"/>
	</linearGradient>
	<path fill="url(#SVGID_6_)" d="M759.9,743.9c0,10.1,0.1,20.2,0,30.3c-0.2,13.6-8.4,22-22.1,22.1c-20.2,0.2-40.5,0.2-60.7,0
		c-13.6-0.1-22-8.4-22.1-22.1c-0.3-20.2-0.3-40.5,0-60.7c0.2-13.7,8.5-22,22.2-22.1c20.2-0.2,40.5-0.2,60.7,0
		c13.7,0.1,21.8,8.5,22,22.1C760,723.7,759.9,733.8,759.9,743.9z M680.3,716.6c0,18.6,0,36.7,0,54.5c18.6,0,36.6,0,54.4,0
		c0-18.5,0-36.4,0-54.5C716.3,716.6,698.3,716.6,680.3,716.6z"/>
	<linearGradient id="SVGID_7_" gradientUnits="userSpaceOnUse" x1="373.0496" y1="847.4593" x2="373.0496" y2="14.4444">
		<stop  offset="0" style="stop-color:#043040"/>
		<stop  offset="1" style="stop-color:#043040"/>
	</linearGradient>
	<path fill="url(#SVGID_7_)" d="M371.9,180.4c-37.8,0-75.5,0-113.3,0c-2.7,0-6.3,0.9-8-0.5c-3.8-2.9-8.9-6.7-9.3-10.6
		c-0.4-3.8,3.6-9.1,7.1-12.1c2.4-2,7.3-1.5,11-1.5c75.5-0.1,151-0.1,226.6-0.1c12.9,0,19.2,4.3,18.9,12.9
		c-0.3,8.2-6.2,11.9-18.9,11.9C447.9,180.4,409.9,180.4,371.9,180.4z"/>
	<linearGradient id="SVGID_8_" gradientUnits="userSpaceOnUse" x1="457.1586" y1="847.4593" x2="457.1586" y2="14.4444">
		<stop  offset="0" style="stop-color:#043040"/>
		<stop  offset="1" style="stop-color:#043040"/>
	</linearGradient>
	<path fill="url(#SVGID_8_)" d="M457.5,330.2c-37.8,0-75.5,0-113.3,0c-3,0-6.1,0.1-9-0.3c-6.3-0.9-10.6-5.3-9.9-11.1
		c0.5-4.3,4.2-8.9,7.8-11.9c2.2-1.9,6.8-1.4,10.3-1.4c75.8-0.1,151.6-0.1,227.3,0c3,0,6.1-0.1,9,0.7c6.4,1.6,9.8,6,9.3,12.6
		c-0.5,6.6-4.3,10.4-10.9,11.2c-2.7,0.3-5.5,0.2-8.2,0.2C532.4,330.2,494.9,330.2,457.5,330.2z"/>
	<linearGradient id="SVGID_9_" gradientUnits="userSpaceOnUse" x1="327.4966" y1="847.4593" x2="327.4966" y2="14.4444">
		<stop  offset="0" style="stop-color:#043040"/>
		<stop  offset="1" style="stop-color:#043040"/>
	</linearGradient>
	<path fill="url(#SVGID_9_)" d="M327.6,112.3c22.7,0,45.4,0,68.1,0c2.7,0,5.5-0.1,8.2,0.3c6.6,0.9,10.3,5.2,10.6,11.6
		c0.3,6.1-3,10.5-9.1,12c-3.1,0.8-6.5,0.9-9.7,0.9c-45.4,0.1-90.8,0-136.2,0c-2.2,0-4.4,0.1-6.6-0.2c-7.7-0.9-12.5-6-12.3-12.8
		c0.2-6.8,5.3-11.6,13.2-11.7c13.1-0.2,26.3-0.1,39.4-0.1C304.6,112.2,316.1,112.3,327.6,112.3z"/>
	<linearGradient id="SVGID_10_" gradientUnits="userSpaceOnUse" x1="149.588" y1="847.4593" x2="149.588" y2="14.4444">
		<stop  offset="0" style="stop-color:#043040"/>
		<stop  offset="1" style="stop-color:#043040"/>
	</linearGradient>
	<path fill="url(#SVGID_10_)" d="M149.6,330.1c-7.1,0-14.2,0.2-21.3,0c-8.4-0.2-13.7-4.9-14-11.9c-0.2-6.9,5.2-12.5,13.3-12.7
		c14.8-0.3,29.6-0.3,44.3,0c8.3,0.2,13.2,5.4,12.9,12.8c-0.2,7.1-4.9,11.5-13,11.7C164.4,330.3,157,330.1,149.6,330.1z"/>
	<linearGradient id="SVGID_11_" gradientUnits="userSpaceOnUse" x1="250.6178" y1="847.4593" x2="250.6178" y2="14.4444">
		<stop  offset="0" style="stop-color:#043040"/>
		<stop  offset="1" style="stop-color:#043040"/>
	</linearGradient>
	<path fill="url(#SVGID_11_)" d="M250,330.1c-7.4,0-14.8,0.2-22.1-0.1c-7.7-0.3-12.1-4.6-12.5-11.4c-0.4-7.1,4.2-12.7,11.8-13
		c15.6-0.4,31.2-0.4,46.8,0c7.1,0.2,11.9,5.9,11.8,12.3c-0.1,6.9-5,11.8-12.9,12C265.3,330.3,257.7,330.1,250,330.1z"/>
	<linearGradient id="SVGID_12_" gradientUnits="userSpaceOnUse" x1="149.5904" y1="847.4593" x2="149.5904" y2="14.4444">
		<stop  offset="0" style="stop-color:#043040"/>
		<stop  offset="1" style="stop-color:#043040"/>
	</linearGradient>
	<path fill="url(#SVGID_12_)" d="M149.3,392.6c-7.4,0-14.8,0.2-22.2,0c-7.7-0.2-12.8-5.3-12.8-12.1c0-6.3,4.8-12,12-12.2
		c15.6-0.4,31.2-0.5,46.8,0c7.7,0.2,12.2,5.9,11.8,13c-0.4,6.8-4.9,11.1-12.5,11.3C164.6,392.8,157,392.6,149.3,392.6z"/>
	<linearGradient id="SVGID_13_" gradientUnits="userSpaceOnUse" x1="250.6177" y1="847.4593" x2="250.6177" y2="14.4444">
		<stop  offset="0" style="stop-color:#043040"/>
		<stop  offset="1" style="stop-color:#043040"/>
	</linearGradient>
	<path fill="url(#SVGID_13_)" d="M249.5,517.8c-7.1,0-14.2,0.3-21.3-0.1c-8.2-0.3-12.7-4.8-12.8-12c-0.1-7.1,4.5-12.2,12.4-12.4
		c15.3-0.3,30.6-0.3,45.9,0c7.2,0.2,12,5.5,12.2,11.9c0.1,6.8-4.9,12-12.5,12.4C265.4,518,257.4,517.7,249.5,517.8z"/>
	<linearGradient id="SVGID_14_" gradientUnits="userSpaceOnUse" x1="250.6166" y1="847.4593" x2="250.6166" y2="14.4444">
		<stop  offset="0" style="stop-color:#043040"/>
		<stop  offset="1" style="stop-color:#043040"/>
	</linearGradient>
	<path fill="url(#SVGID_14_)" d="M250.7,392.6c-7.7,0-15.3,0.2-23-0.1c-7.6-0.3-12.1-4.7-12.3-11.5c-0.3-6.8,3.9-12.5,11.2-12.7
		c15.8-0.5,31.7-0.5,47.6-0.1c7.1,0.2,11.8,6,11.7,12.4c-0.1,6.9-5.1,11.6-13,11.9C265.5,392.8,258.1,392.6,250.7,392.6z"/>
	<linearGradient id="SVGID_15_" gradientUnits="userSpaceOnUse" x1="149.5887" y1="847.4593" x2="149.5887" y2="14.4444">
		<stop  offset="0" style="stop-color:#043040"/>
		<stop  offset="1" style="stop-color:#043040"/>
	</linearGradient>
	<path fill="url(#SVGID_15_)" d="M149.3,455.2c-7.1,0-14.2,0.2-21.3,0c-8.3-0.2-13.6-5.2-13.7-12.1c0-6.6,5.2-12.1,12.8-12.3
		c15-0.3,30.1-0.3,45.1,0c8,0.2,12.6,5.2,12.6,12.2c0,7.5-4.7,11.9-13.4,12.2C164.1,455.4,156.7,455.2,149.3,455.2z"/>
	<linearGradient id="SVGID_16_" gradientUnits="userSpaceOnUse" x1="250.615" y1="847.4593" x2="250.615" y2="14.4444">
		<stop  offset="0" style="stop-color:#043040"/>
		<stop  offset="1" style="stop-color:#043040"/>
	</linearGradient>
	<path fill="url(#SVGID_16_)" d="M250.5,455.2c-7.4,0-14.8,0.2-22.1-0.1c-8.2-0.3-12.8-4.6-13-11.8c-0.2-7.4,4.6-12.5,13-12.7
		c14.8-0.3,29.5-0.3,44.3,0c8.1,0.2,13.4,5.7,13.1,12.7c-0.3,6.8-5.3,11.5-13.2,11.7C265.3,455.4,257.9,455.2,250.5,455.2z"/>
	<linearGradient id="SVGID_17_" gradientUnits="userSpaceOnUse" x1="149.5865" y1="847.4593" x2="149.5865" y2="14.4444">
		<stop  offset="0" style="stop-color:#043040"/>
		<stop  offset="1" style="stop-color:#043040"/>
	</linearGradient>
	<path fill="url(#SVGID_17_)" d="M149.4,517.8c-7.4,0-14.8,0.2-22.1-0.1c-7.7-0.3-12.8-5.4-12.9-12.1c0-6.7,5.1-12.1,12.7-12.3
		c15-0.3,30.1-0.3,45.1,0c8.1,0.2,12.6,5,12.7,12.1c0,7.2-4.4,11.9-12.5,12.2C164.7,518,157,517.8,149.4,517.8z"/>
	<linearGradient id="SVGID_18_" gradientUnits="userSpaceOnUse" x1="149.5857" y1="847.4593" x2="149.5857" y2="14.4444">
		<stop  offset="0" style="stop-color:#043040"/>
		<stop  offset="1" style="stop-color:#043040"/>
	</linearGradient>
	<path fill="url(#SVGID_18_)" d="M149.8,580.5c-7.1,0-14.2,0.2-21.3-0.1c-8.9-0.3-14.3-5.4-14.1-12.7c0.2-6.9,5.6-11.7,14-11.8
		c14.2-0.2,28.4-0.2,42.7,0c8.9,0.1,13.6,4.3,13.9,11.7c0.2,7.7-4.7,12.4-13.8,12.8C164,580.7,156.9,580.5,149.8,580.5z"/>
	<linearGradient id="SVGID_19_" gradientUnits="userSpaceOnUse" x1="250.6074" y1="847.4593" x2="250.6074" y2="14.4444">
		<stop  offset="0" style="stop-color:#043040"/>
		<stop  offset="1" style="stop-color:#043040"/>
	</linearGradient>
	<path fill="url(#SVGID_19_)" d="M250.8,555.9c7.4,0,14.8-0.2,22.1,0c7.8,0.3,12.8,5.2,12.9,12c0.1,6.7-4.9,12.2-12.6,12.4
		c-15.3,0.4-30.6,0.4-45.9-0.1c-7.9-0.2-12.3-5.6-12-12.8c0.3-6.8,4.8-11.2,12.4-11.5C235.4,555.7,243.1,555.9,250.8,555.9z"/>
	<linearGradient id="SVGID_20_" gradientUnits="userSpaceOnUse" x1="470.4265" y1="847.4593" x2="470.4265" y2="14.4444">
		<stop  offset="0" style="stop-color:#043040"/>
		<stop  offset="1" style="stop-color:#043040"/>
	</linearGradient>
	<path fill="url(#SVGID_20_)" d="M470.2,225.2c-7.4,0-14.8,0.2-22.2-0.1c-7.3-0.3-11.8-4.1-12.2-11.7c-0.4-7.1,4.2-12.5,12.1-12.7
		c15-0.4,30.1-0.4,45.1,0c7.2,0.2,11.6,4.6,11.9,12.1c0.3,6.9-4.8,11.9-12.6,12.2C485,225.5,477.6,225.2,470.2,225.2z"/>
	<linearGradient id="SVGID_21_" gradientUnits="userSpaceOnUse" x1="275.1812" y1="847.4593" x2="275.1812" y2="14.4444">
		<stop  offset="0" style="stop-color:#043040"/>
		<stop  offset="1" style="stop-color:#043040"/>
	</linearGradient>
	<path fill="url(#SVGID_21_)" d="M275.4,225.2c-7.4,0-14.8,0.3-22.2-0.1c-7.8-0.4-12.9-5.4-12.6-12.3c0.3-7.5,4.8-11.9,12-12.1
		c15-0.5,30.1-0.5,45.1,0c7.9,0.2,12.5,5.6,12.1,12.7c-0.4,7.6-5,11.1-12.2,11.7c-0.5,0-1.1,0.1-1.6,0.1
		C289,225.3,282.2,225.3,275.4,225.2C275.4,225.2,275.4,225.2,275.4,225.2z"/>
	<linearGradient id="SVGID_22_" gradientUnits="userSpaceOnUse" x1="372.8181" y1="847.4593" x2="372.8181" y2="14.4444">
		<stop  offset="0" style="stop-color:#043040"/>
		<stop  offset="1" style="stop-color:#043040"/>
	</linearGradient>
	<path fill="url(#SVGID_22_)" d="M372.5,225.1c-7.4,0-14.8,0.3-22.2-0.1c-7.3-0.4-12.1-5.4-12.2-11.8c-0.2-6.4,4.5-12.2,11.7-12.4
		c15.3-0.5,30.6-0.5,45.9,0c7.2,0.2,11.9,5.9,11.9,12.3c-0.1,6.5-4.9,11.6-12.1,12C387.8,225.4,380.1,225.1,372.5,225.1z"/>
</g>
</svg>
