<svg version="1.1" id="Capa_1" xmlns="http://www.w3.org/2000/svg" xmlns:xlink="http://www.w3.org/1999/xlink" x="0px" y="0px"
	 viewBox="0 0 141.7 141.7" enable-background="new 0 0 141.7 141.7" xml:space="preserve">
<g>
	<linearGradient id="SVGID_1_" gradientUnits="userSpaceOnUse" x1="70.915" y1="123.026" x2="70.915" y2="73.5156">
		<stop  offset="0" style="stop-color:#043040"/>
		<stop  offset="1" style="stop-color:#043040"/>
	</linearGradient>
	<path fill="url(#SVGID_1_)" d="M72.7,75.4c0-1-0.8-1.9-1.9-1.9c-1.1,0-1.8,0.9-1.8,1.9v45.7c0,1,0.8,1.9,1.9,1.9
		c1.1,0,1.9-0.8,1.9-1.9V75.4H72.7z"/>
	<linearGradient id="SVGID_2_" gradientUnits="userSpaceOnUse" x1="59.4126" y1="123.026" x2="59.4126" y2="73.5156">
		<stop  offset="0" style="stop-color:#043040"/>
		<stop  offset="1" style="stop-color:#043040"/>
	</linearGradient>
	<path fill="url(#SVGID_2_)" d="M61.3,75.4c0-1-0.8-1.9-1.9-1.9c-1,0-1.9,0.8-1.9,1.9v45.7c0,1,0.8,1.9,1.9,1.9c1,0,1.9-0.8,1.9-1.9
		V75.4z"/>
	<linearGradient id="SVGID_3_" gradientUnits="userSpaceOnUse" x1="48.0102" y1="123.026" x2="48.0102" y2="73.5156">
		<stop  offset="0" style="stop-color:#043040"/>
		<stop  offset="1" style="stop-color:#043040"/>
	</linearGradient>
	<path fill="url(#SVGID_3_)" d="M49.9,75.4c0-1-0.8-1.9-1.9-1.9s-1.9,0.8-1.9,1.9v45.7c0,1,0.8,1.9,1.9,1.9s1.9-0.8,1.9-1.9V75.4z"
		/>
	<linearGradient id="SVGID_4_" gradientUnits="userSpaceOnUse" x1="36.5077" y1="123.026" x2="36.5077" y2="73.5156">
		<stop  offset="0" style="stop-color:#043040"/>
		<stop  offset="1" style="stop-color:#043040"/>
	</linearGradient>
	<path fill="url(#SVGID_4_)" d="M38.4,75.4c0-1-0.8-1.9-1.9-1.9s-1.9,0.8-1.9,1.9v45.7c0,1,0.8,1.9,1.9,1.9s1.9-0.8,1.9-1.9V75.4z"
		/>
	<linearGradient id="SVGID_5_" gradientUnits="userSpaceOnUse" x1="25.1053" y1="123.026" x2="25.1053" y2="73.5156">
		<stop  offset="0" style="stop-color:#043040"/>
		<stop  offset="1" style="stop-color:#043040"/>
	</linearGradient>
	<path fill="url(#SVGID_5_)" d="M27,75.4c0-1-0.8-1.9-1.9-1.9c-1,0-1.9,0.8-1.9,1.9v45.7c0,1,0.8,1.9,1.9,1.9c1,0,1.9-0.8,1.9-1.9
		V75.4z"/>
	<linearGradient id="SVGID_6_" gradientUnits="userSpaceOnUse" x1="13.7029" y1="123.026" x2="13.7029" y2="73.5156">
		<stop  offset="0" style="stop-color:#043040"/>
		<stop  offset="1" style="stop-color:#043040"/>
	</linearGradient>
	<path fill="url(#SVGID_6_)" d="M15.6,75.4c0-1-0.8-1.9-1.9-1.9s-1.9,0.8-1.9,1.9v45.7c0,1,0.8,1.9,1.9,1.9s1.9-0.8,1.9-1.9V75.4z"
		/>
	<linearGradient id="SVGID_7_" gradientUnits="userSpaceOnUse" x1="128.0271" y1="113.9241" x2="128.0271" y2="73.5156">
		<stop  offset="0" style="stop-color:#043040"/>
		<stop  offset="1" style="stop-color:#043040"/>
	</linearGradient>
	<path fill="url(#SVGID_7_)" d="M129.9,75.4c0-1-0.8-1.9-1.9-1.9c-1,0-1.9,0.8-1.9,1.9V112c0,1,0.8,1.9,1.9,1.9c1,0,1.9-0.8,1.9-1.9
		V75.4z"/>
	<linearGradient id="SVGID_8_" gradientUnits="userSpaceOnUse" x1="116.5247" y1="123.026" x2="116.5247" y2="73.5156">
		<stop  offset="0" style="stop-color:#043040"/>
		<stop  offset="1" style="stop-color:#043040"/>
	</linearGradient>
	<path fill="url(#SVGID_8_)" d="M118.4,75.4c0-1-0.8-1.9-1.9-1.9c-1,0-1.9,0.8-1.9,1.9v45.7c0,1,0.8,1.9,1.9,1.9
		c1,0,1.9-0.8,1.9-1.9V75.4z"/>
	<linearGradient id="SVGID_9_" gradientUnits="userSpaceOnUse" x1="105.1223" y1="123.026" x2="105.1223" y2="73.5156">
		<stop  offset="0" style="stop-color:#043040"/>
		<stop  offset="1" style="stop-color:#043040"/>
	</linearGradient>
	<path fill="url(#SVGID_9_)" d="M107,75.4c0-1-0.8-1.9-1.9-1.9c-1,0-1.9,0.8-1.9,1.9v45.7c0,1,0.8,1.9,1.9,1.9c1,0,1.9-0.8,1.9-1.9
		V75.4z"/>
	<linearGradient id="SVGID_10_" gradientUnits="userSpaceOnUse" x1="93.7198" y1="123.026" x2="93.7198" y2="73.5156">
		<stop  offset="0" style="stop-color:#043040"/>
		<stop  offset="1" style="stop-color:#043040"/>
	</linearGradient>
	<path fill="url(#SVGID_10_)" d="M95.6,75.4c0-1-0.8-1.9-1.9-1.9c-1,0-1.9,0.8-1.9,1.9v45.7c0,1,0.8,1.9,1.9,1.9
		c1,0,1.9-0.8,1.9-1.9V75.4z"/>
	<linearGradient id="SVGID_11_" gradientUnits="userSpaceOnUse" x1="82.3174" y1="123.026" x2="82.3174" y2="73.5156">
		<stop  offset="0" style="stop-color:#043040"/>
		<stop  offset="1" style="stop-color:#043040"/>
	</linearGradient>
	<path fill="url(#SVGID_11_)" d="M84.2,75.4c0-1-0.8-1.9-1.9-1.9c-1,0-1.9,0.8-1.9,1.9v45.7c0,1,0.8,1.9,1.9,1.9
		c1,0,1.9-0.8,1.9-1.9V75.4z"/>
	<linearGradient id="SVGID_12_" gradientUnits="userSpaceOnUse" x1="128.0271" y1="123.1261" x2="128.0271" y2="117.0248">
		<stop  offset="0" style="stop-color:#043040"/>
		<stop  offset="1" style="stop-color:#043040"/>
	</linearGradient>
	<path fill="url(#SVGID_12_)" d="M129.9,118.9c0-1-0.8-1.9-1.9-1.9c-1,0-1.9,0.8-1.9,1.9v2.3c0,1,0.8,1.9,1.9,1.9
		c1,0,1.9-0.8,1.9-1.9V118.9z"/>
	<linearGradient id="SVGID_13_" gradientUnits="userSpaceOnUse" x1="70.915" y1="141.4299" x2="70.915" y2="0.4001">
		<stop  offset="0" style="stop-color:#043040"/>
		<stop  offset="1" style="stop-color:#043040"/>
	</linearGradient>
	<path fill="url(#SVGID_13_)" d="M141.3,59.4c0-1-0.8-1.9-1.9-1.9h-11.1L79,37.4l0.1-0.4c1.5-4.6-1-9.5-5.6-11
		c-0.2-0.1-0.4-0.1-0.5-0.2l-0.3-0.1v-5.6h2.7c1,0,1.9-0.8,1.9-1.9v-5h21c1,0,1.9-0.8,1.9-1.9v-9c0-1-0.8-1.9-1.9-1.9H43.4
		c-1,0-1.9,0.8-1.9,1.9v9.1c0,1,0.8,1.9,1.9,1.9h21v5c0,1,0.8,1.9,1.9,1.9H69v7.3c0,1,0.8,1.9,1.9,1.9c2.8,0,5,2.2,5,5
		c0,2.8-2.2,5-5,5c-2.8,0-5-2.2-5-5c0-1-0.8-1.9-1.9-1.9c-1,0-1.9,0.8-1.9,1.9c0,0.9,0.1,1.8,0.4,2.7l0.1,0.4L13.4,57.6H2.3
		c-1,0-1.9,0.8-1.9,1.9v80c0,1,0.8,1.9,1.9,1.9h137.2c1,0,1.9-0.8,1.9-1.9V59.4H141.3z M45.3,9.6V4.1h51.1v5.4H45.3V9.6z M68.2,16.4
		v-3.1h5.4v3.1H68.2z M15.6,60.7l0.3-0.1l49-20l0.2,0.2c1.6,1.5,3.7,2.3,5.9,2.3c2.2,0,4.3-0.8,5.9-2.3l0.2-0.2l0.3,0.1l49,20v3.8
		H15.6V60.7z M4.1,61.3h7.7v3.1H4.1V61.3z M137.6,137.6H4.1v-5.4h133.4v5.4H137.6z M137.6,128.4H4.1V68.2h133.4v60.2H137.6z
		 M137.6,64.4h-7.7v-3.1h7.7V64.4z"/>
</g>
</svg>
