<svg version="1.1" id="Capa_1" xmlns="http://www.w3.org/2000/svg" xmlns:xlink="http://www.w3.org/1999/xlink" x="0px" y="0px"
	 viewBox="0 0 141.7 141.7" enable-background="new 0 0 141.7 141.7" xml:space="preserve">
<g>
	<linearGradient id="SVGID_1_" gradientUnits="userSpaceOnUse" x1="70.865" y1="140.6298" x2="70.865" y2="1.0002">
		<stop  offset="0" style="stop-color:#043040"/>
		<stop  offset="1" style="stop-color:#043040"/>
	</linearGradient>
	<path fill="url(#SVGID_1_)" d="M140.2,78.2l-3.8-7.3l3.8-7.3c0.4-0.7,0.3-1.5-0.3-2.1l-5.4-6.2l1.9-8c0.2-0.8-0.1-1.5-0.8-2
		l-6.7-4.8l-0.1-8.2c0-0.8-0.5-1.5-1.2-1.8l-7.7-3l-2.1-8c-0.2-0.8-0.8-1.3-1.6-1.4L108,17l-3.9-7.3c-0.4-0.7-1.1-1.1-1.9-1L94,9.6
		l-5.5-6.1C88,2.9,87.1,2.7,86.4,3l-7.7,2.9l-6.8-4.6c-0.6-0.4-1.5-0.4-2.1,0L63,5.8L55.2,3c-0.7-0.3-1.6-0.1-2.1,0.5l-5.5,6.1
		l-8.2-0.9c-0.8-0.1-1.5,0.3-1.9,1L33.6,17l-8.1,1c-0.8,0.1-1.4,0.7-1.6,1.4l-2.1,8l-7.7,3c-0.7,0.3-1.2,1-1.2,1.8l-0.1,8.2
		l-6.7,4.8c-0.6,0.5-0.9,1.2-0.8,2l1.9,8l-5.4,6.2c-0.5,0.6-0.6,1.4-0.3,2.1l3.8,7.3l-3.8,7.3c-0.4,0.7-0.3,1.5,0.3,2.1l5.4,6.2
		l-1.9,8c-0.2,0.8,0.1,1.5,0.8,2l6.7,4.7l0.1,8.2c0,0.8,0.5,1.5,1.2,1.8l7.7,3l2.1,8c0.2,0.8,0.8,1.3,1.6,1.4l8.2,1.1l3.9,7.3
		c0.4,0.7,1.1,1.1,1.9,1l8.2-0.9l5.5,6.1c0.5,0.6,1.4,0.8,2.1,0.5l7.7-2.9l6.8,4.6c0.6,0.4,1.5,0.4,2.1,0l6.8-4.6l7.7,2.9
		c0.7,0.3,1.6,0.1,2.1-0.5L94,132l8.2,0.9c0.8,0.1,1.5-0.3,1.9-1l3.9-7.3l8.2-1.1c0.8-0.1,1.4-0.7,1.6-1.4l2.1-8l7.7-3
		c0.7-0.3,1.2-1,1.2-1.8l0.1-8.2l6.7-4.8c0.6-0.5,0.9-1.2,0.8-2l-1.9-8l5.4-6.2C140.4,79.7,140.5,78.9,140.2,78.2z M132.6,71.7
		l3.6,7.1l-5.2,6c-0.4,0.5-0.6,1.1-0.4,1.7l1.8,7.7l-6.5,4.6c-0.5,0.4-0.8,0.9-0.8,1.5l-0.1,7.9l-7.4,2.9c-0.6,0.2-1,0.7-1.2,1.3
		l-2,7.7l-7.9,1c-0.6,0.1-1.1,0.4-1.4,1l-3.8,7l-7.9-0.9c-0.6-0.1-1.2,0.2-1.6,0.6l-5.3,5.9l-7.4-2.7c-0.6-0.2-1.2-0.1-1.7,0.2
		l-6.6,4.4l-6.6-4.4c-0.5-0.3-1.2-0.4-1.7-0.2l-7.4,2.7l-5.3-5.9c-0.4-0.4-1-0.7-1.6-0.6l-7.9,0.9l-3.8-7c-0.3-0.5-0.8-0.9-1.4-1
		l-7.9-1l-2-7.7c-0.2-0.6-0.6-1.1-1.2-1.3l-7.4-2.9l-0.1-7.9c0-0.6-0.3-1.2-0.8-1.5l-6.5-4.6l1.8-7.7c0.1-0.6,0-1.2-0.4-1.7l-5.2-6
		L9,71.7c0.3-0.5,0.3-1.2,0-1.7l-3.6-7.1l5.2-6c0.4-0.5,0.6-1.1,0.4-1.7l-1.8-7.7l6.5-4.6c0.5-0.4,0.8-0.9,0.8-1.5l0.1-7.9l7.4-2.9
		c0.6-0.2,1-0.7,1.2-1.3l2-7.7l7.9-1c0.6-0.1,1.1-0.4,1.4-1l3.7-7l7.9,0.9c0.6,0.1,1.2-0.2,1.6-0.6L55.1,7l7.4,2.7
		c0.6,0.2,1.2,0.1,1.7-0.2l6.6-4.4l6.6,4.4c0.5,0.3,1.2,0.4,1.7,0.2L86.6,7l5.3,5.9c0.4,0.4,1,0.7,1.6,0.6l7.9-0.9l3.8,7
		c0.3,0.5,0.8,0.9,1.4,1l7.9,1l2,7.7c0.2,0.6,0.6,1.1,1.2,1.3l7.4,2.9l0.1,7.9c0,0.6,0.3,1.2,0.8,1.5l6.5,4.6l-1.8,7.7
		c-0.1,0.6,0,1.2,0.4,1.7l5.2,6l-3.6,7.1C132.3,70.5,132.3,71.2,132.6,71.7z"/>
	<linearGradient id="SVGID_2_" gradientUnits="userSpaceOnUse" x1="115.4244" y1="70.5149" x2="115.4244" y2="66.4141">
		<stop  offset="0" style="stop-color:#043040"/>
		<stop  offset="1" style="stop-color:#043040"/>
	</linearGradient>
	<path fill="url(#SVGID_2_)" d="M113.6,70.5h3.8c0-1.4-0.1-2.7-0.2-4.1l-3.8,0.4C113.5,68.1,113.6,69.3,113.6,70.5z"/>
	<linearGradient id="SVGID_3_" gradientUnits="userSpaceOnUse" x1="110.6734" y1="53.0112" x2="110.6734" y2="47.9101">
		<stop  offset="0" style="stop-color:#043040"/>
		<stop  offset="1" style="stop-color:#043040"/>
	</linearGradient>
	<path fill="url(#SVGID_3_)" d="M113.2,51.5c-0.6-1.2-1.2-2.4-1.8-3.6l-3.3,1.9c0.6,1,1.1,2.1,1.6,3.2L113.2,51.5z"/>
	<linearGradient id="SVGID_4_" gradientUnits="userSpaceOnUse" x1="68.3145" y1="117.4249" x2="68.3145" y2="113.424">
		<stop  offset="0" style="stop-color:#043040"/>
		<stop  offset="1" style="stop-color:#043040"/>
	</linearGradient>
	<path fill="url(#SVGID_4_)" d="M70.3,117.4v-3.8c-1.2,0-2.4-0.1-3.6-0.2l-0.4,3.8C67.7,117.3,69,117.4,70.3,117.4z"/>
	<linearGradient id="SVGID_5_" gradientUnits="userSpaceOnUse" x1="36.1076" y1="101.6215" x2="36.1076" y2="96.3204">
		<stop  offset="0" style="stop-color:#043040"/>
		<stop  offset="1" style="stop-color:#043040"/>
	</linearGradient>
	<path fill="url(#SVGID_5_)" d="M38.8,99.1c-0.8-0.9-1.5-1.8-2.3-2.8l-3.1,2.2c0.8,1.1,1.6,2.1,2.5,3.1L38.8,99.1z"/>
	<linearGradient id="SVGID_6_" gradientUnits="userSpaceOnUse" x1="99.071" y1="38.8082" x2="99.071" y2="33.5071">
		<stop  offset="0" style="stop-color:#043040"/>
		<stop  offset="1" style="stop-color:#043040"/>
	</linearGradient>
	<path fill="url(#SVGID_6_)" d="M99.1,38.8l2.6-2.8c-1-0.9-2-1.7-3.1-2.5l-2.2,3.1C97.3,37.3,98.2,38.1,99.1,38.8z"/>
	<linearGradient id="SVGID_7_" gradientUnits="userSpaceOnUse" x1="63.7635" y1="29.0061" x2="63.7635" y2="24.6052">
		<stop  offset="0" style="stop-color:#043040"/>
		<stop  offset="1" style="stop-color:#043040"/>
	</linearGradient>
	<path fill="url(#SVGID_7_)" d="M62.4,29c1.2-0.2,2.4-0.4,3.5-0.6l-0.4-3.8c-1.3,0.1-2.6,0.4-3.9,0.6L62.4,29z"/>
	<linearGradient id="SVGID_8_" gradientUnits="userSpaceOnUse" x1="82.5675" y1="30.1064" x2="82.5675" y2="25.5054">
		<stop  offset="0" style="stop-color:#043040"/>
		<stop  offset="1" style="stop-color:#043040"/>
	</linearGradient>
	<path fill="url(#SVGID_8_)" d="M83.7,30.1l1.2-3.6c-1.3-0.4-2.6-0.7-3.9-1l-0.8,3.7C81.4,29.4,82.5,29.8,83.7,30.1z"/>
	<linearGradient id="SVGID_9_" gradientUnits="userSpaceOnUse" x1="50.5607" y1="113.224" x2="50.5607" y2="108.1229">
		<stop  offset="0" style="stop-color:#043040"/>
		<stop  offset="1" style="stop-color:#043040"/>
	</linearGradient>
	<path fill="url(#SVGID_9_)" d="M51.5,113.2l1.6-3.5c-1.1-0.5-2.2-1-3.2-1.6l-1.9,3.3C49.1,112,50.3,112.6,51.5,113.2z"/>
	<linearGradient id="SVGID_10_" gradientUnits="userSpaceOnUse" x1="102.3717" y1="105.2223" x2="102.3717" y2="99.8211">
		<stop  offset="0" style="stop-color:#043040"/>
		<stop  offset="1" style="stop-color:#043040"/>
	</linearGradient>
	<path fill="url(#SVGID_10_)" d="M99.7,102.4l2.5,2.8c1-0.9,1.9-1.8,2.8-2.8l-2.8-2.6C101.4,100.7,100.6,101.5,99.7,102.4z"/>
	<linearGradient id="SVGID_11_" gradientUnits="userSpaceOnUse" x1="112.4738" y1="89.519" x2="112.4738" y2="84.6179">
		<stop  offset="0" style="stop-color:#043040"/>
		<stop  offset="1" style="stop-color:#043040"/>
	</linearGradient>
	<path fill="url(#SVGID_11_)" d="M111.3,84.6c-0.4,1.1-0.8,2.3-1.3,3.3l3.5,1.6c0.5-1.2,1-2.5,1.4-3.7L111.3,84.6z"/>
	<linearGradient id="SVGID_12_" gradientUnits="userSpaceOnUse" x1="86.8684" y1="115.0243" x2="86.8684" y2="110.1233">
		<stop  offset="0" style="stop-color:#043040"/>
		<stop  offset="1" style="stop-color:#043040"/>
	</linearGradient>
	<path fill="url(#SVGID_12_)" d="M84.4,111.4l1.2,3.6c1.3-0.4,2.5-0.9,3.7-1.4l-1.5-3.5C86.7,110.6,85.5,111,84.4,111.4z"/>
	<linearGradient id="SVGID_13_" gradientUnits="userSpaceOnUse" x1="26.9057" y1="65.914" x2="26.9057" y2="61.613">
		<stop  offset="0" style="stop-color:#043040"/>
		<stop  offset="1" style="stop-color:#043040"/>
	</linearGradient>
	<path fill="url(#SVGID_13_)" d="M25.3,61.6c-0.3,1.3-0.5,2.6-0.6,3.9l3.8,0.4c0.1-1.2,0.3-2.4,0.6-3.5L25.3,61.6z"/>
	<linearGradient id="SVGID_14_" gradientUnits="userSpaceOnUse" x1="27.8059" y1="84.818" x2="27.8059" y2="80.117">
		<stop  offset="0" style="stop-color:#043040"/>
		<stop  offset="1" style="stop-color:#043040"/>
	</linearGradient>
	<path fill="url(#SVGID_14_)" d="M30.1,83.6c-0.4-1.1-0.7-2.3-0.9-3.5l-3.7,0.8c0.3,1.3,0.6,2.6,1,3.9L30.1,83.6z"/>
	<linearGradient id="SVGID_15_" gradientUnits="userSpaceOnUse" x1="33.4571" y1="49.0104" x2="33.4571" y2="43.8093">
		<stop  offset="0" style="stop-color:#043040"/>
		<stop  offset="1" style="stop-color:#043040"/>
	</linearGradient>
	<path fill="url(#SVGID_15_)" d="M33,43.8c-0.8,1.1-1.5,2.2-2.2,3.3l3.3,1.9c0.6-1,1.3-2,2-3L33,43.8z"/>
	<linearGradient id="SVGID_16_" gradientUnits="userSpaceOnUse" x1="46.5098" y1="36.1076" x2="46.5098" y2="30.8065">
		<stop  offset="0" style="stop-color:#043040"/>
		<stop  offset="1" style="stop-color:#043040"/>
	</linearGradient>
	<path fill="url(#SVGID_16_)" d="M43.9,33l2.2,3.1c1-0.7,2-1.3,3-2l-1.9-3.3C46.1,31.5,45,32.2,43.9,33z"/>
	<linearGradient id="SVGID_17_" gradientUnits="userSpaceOnUse" x1="70.915" y1="108.0229" x2="70.915" y2="33.8072">
		<stop  offset="0" style="stop-color:#043040"/>
		<stop  offset="1" style="stop-color:#043040"/>
	</linearGradient>
	<path fill="url(#SVGID_17_)" d="M70.9,108c20.4,0,37.1-16.7,37.1-37.1c0-20.5-16.7-37.1-37.1-37.1c-20.5,0-37.1,16.7-37.1,37.1
		S50.4,108,70.9,108z M70.9,37.6c18.4,0,33.3,14.9,33.3,33.3c0,18.3-15,33.3-33.3,33.3c-18.4,0-33.3-14.9-33.3-33.3
		C37.6,52.5,52.5,37.6,70.9,37.6z"/>
	<linearGradient id="SVGID_18_" gradientUnits="userSpaceOnUse" x1="69.7148" y1="93.9199" x2="69.7148" y2="54.9116">
		<stop  offset="0" style="stop-color:#043040"/>
		<stop  offset="1" style="stop-color:#043040"/>
	</linearGradient>
	<path fill="url(#SVGID_18_)" d="M47.4,82.6l9.4,9.4c1.2,1.2,2.9,1.9,4.7,1.9s3.4-0.7,4.7-1.9L92,66.1c2.6-2.6,2.6-6.8,0-9.3
		c-1.2-1.2-2.9-1.9-4.7-1.9s-3.4,0.7-4.7,1.9L61.5,78l-4.7-4.7c-1.2-1.2-2.9-1.9-4.7-1.9c-1.8,0-3.4,0.7-4.7,1.9
		C44.8,75.8,44.8,80,47.4,82.6z M50.2,75.9c0.5-0.5,1.2-0.8,1.9-0.8c0.7,0,1.4,0.3,1.9,0.8l6.1,6.1c0.4,0.4,0.8,0.6,1.3,0.6
		c0.5,0,1-0.2,1.3-0.6l22.5-22.5c0.5-0.5,1.2-0.8,2-0.8c0.7,0,1.4,0.3,1.9,0.8c1.1,1.1,1.1,2.8,0.1,3.9L63.4,89.3
		c-0.5,0.5-1.2,0.8-2,0.8c-0.8,0-1.4-0.3-2-0.8L50,79.9c-0.5-0.5-0.8-1.2-0.8-2C49.3,77.1,49.6,76.5,50.2,75.9z"/>
	<linearGradient id="SVGID_19_" gradientUnits="userSpaceOnUse" x1="70.915" y1="126.8269" x2="70.915" y2="15.0032">
		<stop  offset="0" style="stop-color:#043040"/>
		<stop  offset="1" style="stop-color:#043040"/>
	</linearGradient>
	<path fill="url(#SVGID_19_)" d="M70.9,15C40,15,15,40,15,70.9c0,30.8,25.1,55.9,55.9,55.9s55.9-25.1,55.9-55.9
		C126.8,40,101.7,15,70.9,15z M70.9,123c-28.7,0-52.1-23.4-52.1-52.1s23.4-52.1,52.1-52.1S123,42.1,123,70.9
		C123,99.6,99.6,123,70.9,123z"/>
</g>
</svg>
