<svg version="1.1" id="Capa_1" xmlns="http://www.w3.org/2000/svg" xmlns:xlink="http://www.w3.org/1999/xlink" x="0px" y="0px"
	 viewBox="0 0 850.4 850.4" enable-background="new 0 0 850.4 850.4" xml:space="preserve">
<g>
	<linearGradient id="SVGID_1_" gradientUnits="userSpaceOnUse" x1="413.1364" y1="843.39" x2="413.1364" y2="9.0999">
		<stop  offset="0" style="stop-color:#043040"/>
		<stop  offset="1" style="stop-color:#043040"/>
	</linearGradient>
	<path fill="url(#SVGID_1_)" d="M303.7,792.1c-15.9,38.6-36.8,54.7-69.6,54c-30.1-0.7-51.9-18.7-64.9-54.3c-4.4,0-9.1,0.1-13.9,0
		c-22.8-0.7-41.1-18.4-41.1-41.3c-0.2-89.8-0.2-179.5,0-269.3c0.1-22.7,18.5-41.1,41.3-41.2c99.1-0.2,198.2-0.2,297.3,0
		c23.2,0,41.2,18.4,41.8,41.6c0.1,3.9,0,7.8,0,12.6c3.7,0,6.7,0,9.8,0c27.7,0,55.5-0.2,83.2,0.1c23.5,0.3,42.2,10.3,54.6,30.4
		c21.8,35.4,43.3,71,64.5,106.8c3.2,5.5,4.9,12.6,5.2,19c0.7,15.8,0.3,31.7,0.2,47.6c-0.1,10.9-5,16.5-14,16.3
		c-8.6-0.2-13.1-5.7-13.2-16.2c-0.1-13.3,0-26.5,0-40.8c-3.6,0-6.6,0-9.6,0c-45,0-90,0-135.1,0c-14.7,0-18.4-3.8-18.4-18.7
		c0-35.7,0-71.4,0-107c0-3.1,0-6.1,0-9.7c-9,0-17.4,0-26.5,0c0,80.3,0,160.8,0,242c8.9,0,18,0,27.5,0c10.3-32.9,32-53.6,67.6-53.3
		c34.8,0.3,56,20.8,66.3,53.9c4.4,0,8.9,0.1,13.4,0c9.7-0.2,13.2-3.3,14.7-12.7c1.5-9.3,7.2-14,15.6-12.9c7.8,1,12,6.9,11.5,16
		c-1,19-17,35.4-36.1,36.5c-6.2,0.4-12.4,0.1-16.8,0.1c-6.9,11.3-12.3,21.8-19.2,31.2c-6.3,8.6-14.9,9.2-21.2,3.3
		c-6.1-5.7-5.7-13.2,1.3-20.9c12.9-14.3,14.2-35.3,3.1-50.9c-10.9-15.3-31.4-21-49.3-13.7c-17.2,7-27.4,25.5-24.4,44.1
		c3.1,19.1,17.8,32.7,36.9,34.1c1.7,0.1,3.4,0.1,5.1,0.3c8,1.3,12.6,7,11.9,14.9c-0.6,7.4-5.7,11.8-13.7,12.1
		c-27.4,1-54.3-18.3-64-45.9c-0.9-2.6-1.8-5.3-2.7-8.1C449.6,792.1,376.6,792.1,303.7,792.1z M466,657.4c0-3.5,0-6,0-8.5
		c0-54.1,0-108.1,0-162.2c0-14.8-4.9-19.5-20-19.5c-94.8,0-189.7,0-284.5,0c-15.4,0-20.2,4.8-20.2,20.4c0,53.8,0,107.6,0,161.3
		c0,2.7,0.2,5.4,0.4,8.5c12.9,0,25.1,0,37.2,0c11.1,0.1,16.7,4.6,16.7,13.5c0,9-5.5,13.6-16.6,13.6c-12.4,0.1-24.7,0-37.6,0
		c0,23-0.2,45.1,0.1,67.1c0.1,8.1,6,13.7,14,14.3c4.7,0.4,9.5,0.1,14,0.1c11.7-34.3,34.1-53.1,63.9-54.2
		c32.7-1.2,54.4,15.4,70.2,53.7c54.5,0,109,0,163.5,0c0-27.1,0-53.6,0-80.9c-3.7,0-7,0-10.4,0c-70.8,0-141.5,0-212.3,0
		c-2.5,0-5.1,0.1-7.6,0c-8.9-0.5-14-5.6-13.9-13.8c0.1-7.9,5.1-12.8,13.5-13.3c2.5-0.2,5.1-0.1,7.6-0.1c70.2,0,140.4,0,210.6,0
		C457.9,657.4,461.3,657.4,466,657.4z M549.6,521.6c0,36.7,0,72.4,0,107.9c41.4,0,82.2,0,124.1,0c-18.9-31.5-37-62.2-55.8-92.4
		c-6-9.6-15.8-14.9-27.1-15.4C577.4,521.1,563.8,521.6,549.6,521.6z M236.4,738.9c-23.1,0-40.8,17.8-40.7,40.9
		c0.1,22.8,17.6,40.4,40.3,40.6c23.1,0.2,41.1-17.5,41.2-40.5C277.2,756.8,259.5,739,236.4,738.9z"/>
	<linearGradient id="SVGID_2_" gradientUnits="userSpaceOnUse" x1="561.7932" y1="843.39" x2="561.7932" y2="9.0999">
		<stop  offset="0" style="stop-color:#043040"/>
		<stop  offset="1" style="stop-color:#043040"/>
	</linearGradient>
	<path fill="url(#SVGID_2_)" d="M807.8,331.2C781,207.4,677.5,89.5,542,48.9c-5,15.1-10.3,30.2-14.9,45.5c-0.8,2.6,0.6,6.1,1.8,8.9
		c2.8,6.8,6.4,13.2,9.1,20.1c2.9,7.3-0.3,14.6-7.3,17.7c-7,3.2-12.6,0.1-16-5.6C503,115.3,494.8,94.7,505,71
		c3.9-9,6.4-18.7,9.9-29.2c-8.4-1.5-16.3-3.1-24.3-4.4c-66.4-10.7-131.4-4.8-195,17c-9.2,3.2-17.1,0-19.9-7.4
		c-2.9-7.8,1.7-15.2,11.3-18.6C525.2-53.3,779.7,85.8,836.7,331c29,124.6,4.9,240.3-70.4,344.6c-6.6,9.2-14.7,11.4-21.5,6.2
		c-6.7-5.2-6.8-13.5-0.2-22.6c35.8-49,59.7-103.1,70.1-162.9c3.2-18.3,4.7-36.8,7.1-56.3c-14.4,0-27.1-0.2-39.7,0.1
		c-23.7,0.5-44.6-7.3-60.2-24.6c-29.4-32.7-66.1-55.6-102.5-79c-6.7-4.3-16-6.3-24.1-6.4c-35.9-0.7-71.9-0.3-107.9-0.3
		c-18.7,0-33.1,7.7-43.1,23.9c-10.5,17.1-21.4,34-32.2,50.9c-5.8,9-12.9,11.4-20.5,6.9c-7.4-4.4-8.5-12.1-2.8-21.4
		c11.4-18.2,22.7-36.5,34.6-54.4c14.3-21.7,34.9-32.7,60.8-32.9c36.5-0.4,73-0.1,109.6-0.1c15.7,0,30,4.8,43.1,13.4
		c37.1,24.3,74.8,47.9,105,81.3c9.8,10.8,23.3,15.7,38.3,15.5c13.2-0.2,26.5,0,41.4,0c-1.9-18.4-3.7-36-5.6-54.4
		c-13.3,0-25.6-0.1-38,0c-23.1,0.3-39.6-9.5-48.7-31.1c-1.6-3.9-3.5-7.7-5.3-11.6c-4-8.5-10.9-12.8-20.2-13.1
		c-5.9-0.2-11.9-0.1-17.8-0.1c-13.5,0.1-24.8-4.8-34.3-14.2c-8.3-8.1-16.4-16.5-24.7-24.6c-8.7-8.6-17.2-10.9-27.7-5.2
		c-25.9,14.1-53.3,19.3-82.6,16.9c-10.4-0.9-20.9,0.1-31.4-0.3c-22-0.7-39.1-15.2-43.8-36.8c-4.6-21.1,5.4-42.3,24.6-51.9
		c10.1-5,20.3-9.9,30.6-14.7c8.4-3.9,16.6-1.4,19.6,5.6c3.2,7.3,0,14.5-8.4,18.7c-9.6,4.8-19.4,9.2-29,14
		c-8.6,4.2-12.6,12.1-11.1,20.8c1.6,9.1,9.3,16.9,18.6,17c22.6,0.4,45.3,1,67.9-0.3c8.3-0.5,16.3-6,24.4-9.1c7.1-2.7,14-6.2,21.4-8
		c16.2-3.9,30.9,0,43.2,11.5c8.7,8.1,17,16.6,25.3,25.2c5.4,5.6,11.7,8.7,19.6,8.2c1.4-0.1,2.8,0.1,4.2,0
		c30-2.7,50.2,10.4,60.3,38.6c4.7,13.3,13.6,18.4,27.3,17.4C789.1,330.6,798.4,331.2,807.8,331.2z"/>
	<linearGradient id="SVGID_3_" gradientUnits="userSpaceOnUse" x1="125.267" y1="843.39" x2="125.267" y2="9.0999">
		<stop  offset="0" style="stop-color:#043040"/>
		<stop  offset="1" style="stop-color:#043040"/>
	</linearGradient>
	<path fill="url(#SVGID_3_)" d="M177.9,118.5c-16.5,16.7-33.1,31.7-47.6,48.5C62.9,245.4,29.8,336.5,32.9,440
		c2,67.7,21.2,130.8,55.1,189.5c2,3.4,4.2,6.8,5.6,10.4c2.6,7.1-0.6,14.8-7.5,17.8c-6.7,3-11.9-0.4-15.2-5.8
		c-7.2-11.8-14.1-23.9-20.3-36.2C-51,415.1,23.8,169.2,219.7,59.3c3.8-2.1,9-5,12.4-4c4.7,1.5,9.8,5.7,12,10.2
		c3,5.9-0.5,11.7-6,15.2c-9.1,5.7-18.3,11.3-27.7,16.4c-6.5,3.5-8.2,7.7-6.1,14.9c4,13.6,7,27.4,10.2,41.1
		c5.4,23-0.4,43.1-16.6,60.2c-5.9,6.1-11.8,12.2-18,18c-9.6,9.1-13.1,20.3-12,33.1c1.9,21-6,37.3-20.2,52.7
		c-13.3,14.4-23.2,31.9-35.8,47c-17,20.4-18.3,42.1-9.2,65.9c2.6,6.7-1,13.5-8.1,16.3c-6.5,2.6-12.4,0.8-15.1-5.5
		c-10.5-24.3-14.7-49.6-0.1-73.3c16.3-26.4,31.6-53.7,53.6-76.2c6.6-6.8,8.9-15.5,8-25.1c-1.9-21.7,2.3-41.2,21-55.1
		c25.7-19.2,33.7-43.5,21.8-73.8c-1.8-4.7-2.5-9.9-3.7-14.8C180,122,179.6,121.6,177.9,118.5z"/>
	<linearGradient id="SVGID_4_" gradientUnits="userSpaceOnUse" x1="589.7575" y1="843.39" x2="589.7575" y2="9.0999">
		<stop  offset="0" style="stop-color:#043040"/>
		<stop  offset="1" style="stop-color:#043040"/>
	</linearGradient>
	<path fill="url(#SVGID_4_)" d="M590.2,793.2c-7.3,0.2-13.7-5.7-13.9-13.1c-0.2-7.4,5.7-13.7,13.1-13.9c7.4-0.2,13.7,5.7,13.9,13.1
		C603.5,786.6,597.5,793,590.2,793.2z"/>
	<linearGradient id="SVGID_5_" gradientUnits="userSpaceOnUse" x1="385.8903" y1="843.39" x2="385.8903" y2="9.0999">
		<stop  offset="0" style="stop-color:#043040"/>
		<stop  offset="1" style="stop-color:#043040"/>
	</linearGradient>
	<path fill="url(#SVGID_5_)" d="M385.8,738.9c-13,0-26,0.1-39,0c-9.8-0.1-15.1-4.8-15.3-13.2c-0.2-8.7,5.3-13.9,15.4-13.9
		c26-0.1,52-0.1,78,0c9.8,0,15.1,4.8,15.3,13.2c0.2,8.7-5.3,13.8-15.4,13.9C411.8,739,398.8,738.9,385.8,738.9z"/>
	<linearGradient id="SVGID_6_" gradientUnits="userSpaceOnUse" x1="195.517" y1="843.39" x2="195.517" y2="9.0999">
		<stop  offset="0" style="stop-color:#043040"/>
		<stop  offset="1" style="stop-color:#043040"/>
	</linearGradient>
	<path fill="url(#SVGID_6_)" d="M195.5,521.4c0,5.8,0.3,10.3-0.1,14.8c-0.6,7.7-5.9,12.4-13.4,12.4c-7.5,0-13.1-4.6-13.4-12.3
		c-0.4-9.9-0.5-19.8,0-29.6c0.4-7.5,5-11.9,12.6-12.2c9.6-0.3,19.2-0.4,28.8,0c7.8,0.3,12.6,5.5,12.7,13c0.2,7.9-4.7,13.3-12.8,13.9
		C205.5,521.7,201,521.4,195.5,521.4z"/>
	<linearGradient id="SVGID_7_" gradientUnits="userSpaceOnUse" x1="236.3873" y1="843.39" x2="236.3873" y2="9.0999">
		<stop  offset="0" style="stop-color:#043040"/>
		<stop  offset="1" style="stop-color:#043040"/>
	</linearGradient>
	<path fill="url(#SVGID_7_)" d="M249.9,779.4c0.2,7.3-5.9,13.7-13.2,13.8c-7.3,0.2-13.6-5.9-13.8-13.2c-0.2-7.4,5.8-13.6,13.2-13.8
		C243.5,766,249.7,772,249.9,779.4z"/>
</g>
</svg>
