<svg version="1.1" id="Capa_1" xmlns="http://www.w3.org/2000/svg" xmlns:xlink="http://www.w3.org/1999/xlink" x="0px" y="0px"
	 viewBox="0 0 141.7 141.7" enable-background="new 0 0 141.7 141.7" xml:space="preserve">
<g>
	<g>
		<linearGradient id="SVGID_1_" gradientUnits="userSpaceOnUse" x1="47.11" y1="55.6118" x2="47.11" y2="20.0042">
			<stop  offset="0" style="stop-color:#043040"/>
			<stop  offset="1" style="stop-color:#043040"/>
		</linearGradient>
		<path fill="url(#SVGID_1_)" d="M62.8,37.3L47.6,22.1c-2.8-2.8-7.4-2.8-10.2,0l-6,6c-2.8,2.8-2.8,7.4,0,10.2l15.2,15.2
			c1.4,1.4,3.2,2.1,5.1,2.1c1.8,0,3.7-0.7,5.1-2.1l6-6C65.6,44.7,65.6,40.1,62.8,37.3z M59.9,44.7l-6,6c-0.6,0.6-1.4,0.9-2.2,0.9
			c-0.8,0-1.6-0.3-2.2-0.9L34.2,35.5c-1.2-1.2-1.2-3.2,0-4.5l6-6c0.6-0.6,1.4-0.9,2.2-0.9c0.8,0,1.6,0.3,2.2,0.9l15.2,15.2
			c0.6,0.6,0.9,1.4,0.9,2.2C60.8,43.3,60.5,44.1,59.9,44.7z"/>
	</g>
</g>
<g>
	<g>
		<linearGradient id="SVGID_2_" gradientUnits="userSpaceOnUse" x1="28.7061" y1="74.0157" x2="28.7061" y2="38.4081">
			<stop  offset="0" style="stop-color:#043040"/>
			<stop  offset="1" style="stop-color:#043040"/>
		</linearGradient>
		<path fill="url(#SVGID_2_)" d="M44.4,55.7L29.2,40.5c-2.8-2.8-7.4-2.8-10.2,0l-6,6c-2.8,2.8-2.8,7.4,0,10.2l15.2,15.2
			c1.4,1.4,3.2,2.1,5.1,2.1c1.9,0,3.7-0.7,5.1-2.1l6-6C47.2,63.1,47.2,58.5,44.4,55.7z M41.5,63.1l-6,6c-1.2,1.2-3.2,1.2-4.5,0
			L15.8,53.9c-0.6-0.6-0.9-1.4-0.9-2.2c0-0.8,0.3-1.6,0.9-2.2l6-6c0.6-0.6,1.4-0.9,2.2-0.9c0.8,0,1.6,0.3,2.2,0.9l15.2,15.2
			C42.8,59.8,42.8,61.8,41.5,63.1z"/>
	</g>
</g>
<g>
	<g>
		<linearGradient id="SVGID_3_" gradientUnits="userSpaceOnUse" x1="70.775" y1="133.7283" x2="70.775" y2="8.1156">
			<stop  offset="0" style="stop-color:#043040"/>
			<stop  offset="1" style="stop-color:#043040"/>
		</linearGradient>
		<path fill="url(#SVGID_3_)" d="M137.6,46.8l-19.1-19.1c-2.9-2.9-6.8-4.4-10.9-4.1c-0.9,0.1-1.9,0.2-2.8,0.5
			c-3.3-2.5-7.2-4.8-11.6-6.6c-6.4-2.8-13-4.3-18.4-4.3l0,0c-0.8,0-1.5,0-2.2,0.1c-1.6-1.8-3.9-3.1-6.5-3.3L47.8,8.2
			C43,7.7,38.4,9.4,35,12.7L15.8,32c-0.8,0.8-0.8,2.1,0,2.9c0.8,0.8,2.1,0.8,2.9,0L38,15.6c2.5-2.5,6-3.7,9.5-3.4l18.4,1.7
			c2.7,0.3,4.9,2.4,5.2,5.2l1,10.4c0,0,0,0-0.1-0.1c-0.2-0.1-0.3-0.3-0.5-0.5c-0.1-0.1-0.3-0.3-0.4-0.4c-0.1-0.1-0.1-0.1-0.2-0.2
			c-0.2-0.2-0.4-0.4-0.6-0.6c-0.2-0.2-0.3-0.3-0.5-0.5l-0.1-0.1c-0.1-0.2-0.3-0.3-0.4-0.5l-0.1-0.1c-0.1-0.1-0.2-0.3-0.3-0.4
			c0-0.1-0.1-0.1-0.1-0.2c-0.1-0.1-0.2-0.3-0.3-0.4c0-0.1-0.1-0.1-0.1-0.2s-0.1-0.1-0.1-0.2c1.2-2.4,0.7-5.4-1.2-7.4
			c-2.5-2.5-6.6-2.5-9.1,0s-2.5,6.6,0,9.1c1.3,1.3,2.9,1.9,4.6,1.9c1,0,2-0.2,2.9-0.7c0.6,0.8,1.2,1.6,2,2.4c1.5,1.5,3.2,3,5.2,4.5
			l0.2,2.4c0.3,3.5-0.9,7-3.4,9.5L36.8,79.6c-0.8,0.8-1.9,1.3-3.1,1.3s-2.3-0.5-3.1-1.3L5.3,54.4C4.5,53.6,4,52.5,4,51.3
			c0-1.2,0.5-2.3,1.3-3.1l4-4c0.8-0.8,0.8-2.1,0-2.9c-0.8-0.8-2.1-0.8-2.9,0l-4,4c-3.3,3.3-3.3,8.7,0,11.9l25.2,25.2
			c1.6,1.6,3.7,2.5,6,2.5s4.4-0.9,6-2.5l32.6-32.6c3.2-3.2,4.8-7.5,4.6-12c2,1.2,4.1,2.2,6.3,3.2c1.3,0.5,2.5,1,3.8,1.5L75.6,57.2
			c-3.9,5-3.9,11.9-0.3,16.9L66,83.4c-1,1-1.5,2.6-1.1,4c0,0.1,0,0.2-0.1,0.2L58,94.4c-0.3,0.3-0.5,0.6-0.7,0.9l-3.8,7.2l-6.8,3.5
			c-0.7,0.4-1.3,1-1.7,1.7l-2.7,5.5l-8.1,5.1c-0.8,0.5-1.4,1.4-1.5,2.4l-1.2,9.2c-0.1,1,0.2,2,0.9,2.8c0.6,0.6,1.5,1,2.3,1
			c0.1,0,0.3,0,0.4,0l9.2-1.2c1-0.1,1.9-0.7,2.4-1.5l5.1-8.1l5.5-2.7c0.7-0.4,1.3-0.9,1.7-1.7l3.5-6.8l7.2-3.8
			c0.3-0.2,0.6-0.4,0.9-0.7l6.7-6.7c0.1-0.1,0.2-0.1,0.2-0.1c1.4,0.3,3-0.1,4-1.1l9.3-9.3c2.5,1.8,5.4,2.7,8.3,2.7c3,0,6.1-1,8.7-3
			l10.8-8.3c0.9-0.7,1-1.9,0.4-2.8c-0.7-0.9-1.9-1-2.8-0.4l-10.8,8.3c-4,3.1-9.6,2.8-13.2-0.7l0,0l-0.1-0.1c0,0-0.1,0-0.1-0.1
			L79.6,73c0,0,0-0.1-0.1-0.1l-0.1-0.1l0,0c-3.4-3.6-3.8-9.2-0.7-13.2L91,43.8c3.7,1,7.3,1.5,10.6,1.5l0,0c1,0,1.9,0,2.7-0.1
			l16.1,16.1c1.2,1.2,2.7,1.8,4.2,1.8c1.5,0,3.1-0.6,4.2-1.8c2.3-2.3,2.3-6.1,0-8.5l-16.4-16.4c-1.1-1.1-2.6-1.8-4.2-1.8
			c-1.6,0-3.1,0.6-4.2,1.8c-1.1,1.1-1.8,2.6-1.8,4.2c0,0.2,0,0.4,0,0.6c-0.2,0-0.5,0-0.7,0l0,0c-2.4,0-5.1-0.3-7.9-1l6.8-8.8
			c1.8-2.3,4.5-3.7,7.3-3.9c2.9-0.2,5.7,0.9,7.8,2.9l19.1,19.1c2.1,2.1,3.1,4.9,2.9,7.8c-0.2,2.9-1.6,5.6-3.9,7.3l-6.5,5
			c-0.9,0.7-1,1.9-0.4,2.8c0.7,0.9,1.9,1,2.8,0.4l6.5-5c3.2-2.5,5.2-6.2,5.5-10.3C142,53.7,140.5,49.7,137.6,46.8z M62.4,24.9
			c-0.6,0-1.3-0.3-1.7-0.7c-0.5-0.5-0.7-1.1-0.7-1.7c0-0.6,0.3-1.3,0.7-1.7c0.5-0.5,1.1-0.7,1.7-0.7c0.1,0,0.2,0,0.3,0
			c-0.2,1.4,0,3,0.6,4.6C63,24.9,62.7,24.9,62.4,24.9z M78,77.1l10.2,10.2L79,96.5c-0.1,0.1-0.2,0.1-0.2,0.1c-1.4-0.3-3,0.1-4,1.1
			l-6.7,6.7l-7.2,3.8c-0.7,0.4-1.2,0.9-1.6,1.6l-3.5,6.8l-5.5,2.7c-0.6,0.3-1.2,0.8-1.6,1.4l-4.9,7.9l-7.9,1l1-7.9l7.9-4.9
			c0.6-0.4,1.1-0.9,1.4-1.6l2.7-5.5l6.8-3.5c0.7-0.4,1.2-0.9,1.6-1.6l3.8-7.2l6.7-6.7c1-1,1.5-2.6,1.1-4c0-0.1,0-0.2,0.1-0.2
			L78,77.1z M112.1,41.8L126,55.7c0.8,0.8,0.8,2,0,2.8c-0.4,0.4-0.9,0.6-1.4,0.6s-1-0.2-1.4-0.6l-14.4-14.4
			C110.2,43.5,111.3,42.7,112.1,41.8z M106.9,39.3c0.4-0.4,0.9-0.6,1.4-0.6c0.3,0,0.7,0.1,1,0.3c-0.6,0.8-1.6,1.4-2.9,1.8
			c0,0,0,0,0-0.1C106.3,40.1,106.5,39.6,106.9,39.3z M97.3,29.1l-7.8,10.1c-1.6-0.5-3.2-1.1-4.8-1.8c-3.1-1.3-5.9-2.8-8.4-4.5
			L75,18.7c-0.1-0.5-0.1-1-0.3-1.5h0.1l0,0c4.9,0,10.9,1.4,16.9,4c3.3,1.4,6.3,3.1,8.9,4.8C99.4,26.8,98.3,27.9,97.3,29.1z"/>
	</g>
</g>
</svg>
