<svg width="896" height="577" viewBox="0 0 896 577" fill="none" xmlns="http://www.w3.org/2000/svg">
<path d="M43.4842 575.696C42.2343 574.906 41.4449 573.852 41.4449 572.931C41.4449 572.141 41.116 570.693 40.787 569.705C40.195 568.191 40.3265 567.664 41.5107 566.414L42.958 564.834L41.8396 550.877C41.2475 543.175 40.4581 528.89 40.1292 519.081C39.2082 495.579 35.3268 447.588 33.1559 433.302L31.4455 421.914L33.8795 416.581L36.3136 411.249L33.6822 404.271L31.1166 397.293L34.34 391.236L37.5635 385.18L34.2743 380.374C32.4323 377.675 29.9982 373.067 28.8798 369.973C27.1036 365.035 26.7089 362.731 25.6563 350.026C24.9985 342.192 24.1433 335.345 23.7486 334.819C23.3539 334.292 19.6041 302.759 15.1307 262.272L7.30216 190.582L5.26281 150.227C4.21024 128.042 2.82874 105.988 2.36824 101.183C1.84196 96.4429 1.1841 89.9914 0.986744 86.8973L0.526245 81.3017L4.34181 79.3925C7.56531 77.6809 9.34152 77.3518 17.3674 76.6276C22.4329 76.1668 33.4848 75.5743 41.7738 75.3768C64.0094 74.7843 101.77 72.0194 114.006 70.0445L124.401 68.3329L128.348 70.7028C130.519 72.0194 132.69 73.0727 133.15 73.0727C133.676 73.0727 136.242 72.0853 138.939 70.8345L143.873 68.5962L148.873 71.8878L153.938 75.1793L157.688 71.8878C159.859 70.1103 163.543 67.7404 166.109 66.6871C170.187 64.9755 172.029 64.6463 181.897 63.9222C188.607 63.3955 193.475 62.7372 194.068 62.2764C194.66 61.7497 217.027 58.9848 251.959 55.0349L308.863 48.6493L342.019 47.3326L375.175 46.0818L381.82 43.5144C388.267 41.0128 388.859 40.8812 402.608 39.8937C410.371 39.3012 423.001 38.6429 430.567 38.4454C449.974 37.9187 499.971 33.903 513.983 31.7964L525.693 30.019L530.758 32.5206L535.824 35.0222L542.534 32.3889C549.047 29.8873 549.31 29.8215 551.086 30.8748C552.073 31.5331 554.77 32.9814 556.941 34.1663L561.02 36.273L565.559 32.9814C568.322 30.9406 572.401 28.7682 575.624 27.5832C580.426 25.8716 582.729 25.4766 594.636 24.555C603.057 23.8966 608.583 23.2383 609.175 22.7117C609.833 22.185 635.621 19.091 679.894 14.2194L749.627 6.58298L786.467 4.87136C806.729 3.94972 827.978 2.69892 833.767 2.04061L844.227 0.987305L850.082 3.94972L855.937 6.91213L855.476 10.5329C855.081 14.0878 854.489 15.0094 851.003 17.511C849.753 18.3668 849.753 18.696 851.726 36.4705C853.568 53.455 853.634 54.8374 852.779 60.2356C852.187 63.9222 851.003 67.872 849.621 70.9661C848.371 73.6652 847.319 76.101 847.319 76.4301C847.319 76.6935 849.226 79.1951 851.463 82.0258L855.673 87.0948L854.423 94.2705L853.108 101.38L856.529 105.988L859.949 110.531L860.476 123.565C861.199 139.233 866.265 185.118 869.423 204.736C870.738 212.504 872.58 225.999 873.567 234.623L875.409 250.423L874.159 257.269L872.909 264.116L878.501 303.154L884.093 342.126L889.75 412.368L895.474 482.61L892.776 487.087C890.211 491.432 890.013 491.563 887.053 491.958C884.487 492.221 883.501 492.814 880.475 495.776L876.988 499.265L820.544 505.651L764.1 512.037L731.865 513.288L699.63 514.604L694.696 516.908C689.959 519.147 689.236 519.278 678.578 519.937C672.46 520.397 661.343 520.858 653.909 521.056C634.107 521.648 597.136 524.479 586.281 526.322L576.874 527.902L572.664 525.335L568.453 522.767L563.454 525.006C560.691 526.256 558.059 527.31 557.665 527.31C557.204 527.31 554.836 525.927 552.402 524.281C548.52 521.714 547.731 521.385 546.81 522.175C546.218 522.636 544.376 524.084 542.731 525.466C537.271 529.877 532.732 531.194 519.048 532.247C511.812 532.839 506.089 533.629 504.905 534.222C502.47 535.341 393.924 547.454 380.899 548.047C376.031 548.244 360.308 549.758 346.032 551.404C313.929 555.091 301.824 556.078 282.878 556.539C258.011 557.263 249.064 558.119 244.065 560.291C238.933 562.464 230.579 563.254 201.436 564.175C177.095 564.965 148.544 567.269 135.387 569.508C128.15 570.693 127.427 570.693 124.401 569.705C122.624 569.178 120.519 568.059 119.73 567.335L118.282 566.019L112.888 568.257L107.559 570.561L102.757 567.335L97.8889 564.044L94.205 567.269C87.9553 572.667 83.8108 574.05 70.7195 575.103C46.0499 577.144 45.7867 577.144 43.4842 575.696ZM98.0205 553.708C125.124 549.627 132.032 548.837 158.543 546.73C174.99 545.479 192.028 543.833 196.37 543.109C205.58 541.661 312.087 533.234 321.757 533.234C325.376 533.234 331.099 532.905 334.388 532.576C367.018 528.89 376.886 527.639 386.819 525.927C393.135 524.808 403.792 523.228 410.502 522.438C421.62 521.122 423.067 521.122 426.62 521.977C431.619 523.162 441.619 522.306 461.157 519.015C468.591 517.698 480.366 515.987 487.274 515.131L499.971 513.617L505.76 514.933L511.615 516.316L544.442 511.313L577.269 506.309L632.529 501.965C663.645 499.529 689.17 497.751 690.946 498.015C692.722 498.212 698.446 497.883 703.774 497.291C716.142 495.908 721.076 496.501 727.852 500.385L732.391 503.018L736.536 498.936L740.68 494.855L746.535 496.04L752.456 497.225L756.14 494.131L759.824 490.971L771.797 490.444C785.941 489.786 819.162 486.033 835.477 483.137C841.793 482.018 852.713 480.438 859.686 479.582C866.66 478.726 872.514 477.936 872.646 477.804C872.778 477.739 872.449 472.604 871.988 466.416C871.462 460.293 870.738 446.798 870.344 436.462C869.488 412.368 865.607 364.64 863.502 351.671L861.857 341.665L864.357 336.267L866.791 330.869L864.226 324.088L861.66 317.307L864.686 311.778C866.331 308.749 867.712 305.919 867.712 305.524C867.712 305.129 866.265 302.759 864.489 300.323C859.226 293.016 857.45 286.696 856.2 270.699C855.542 262.601 854.818 256.677 854.226 255.557C853.634 254.438 850.608 228.567 845.74 183.67L838.174 113.559L836.464 78.0101C835.609 58.4581 834.359 37.3263 833.767 31.1381C832.714 20.3417 832.583 19.7493 831.267 19.7493C830.477 19.7493 824.886 20.3417 818.833 21.0659C808.768 22.185 807.321 22.2509 801.861 21.3292C798.243 20.7367 794.493 19.6834 792.19 18.4985C785.875 15.3386 786.204 15.2727 780.612 19.9468L775.547 24.16L769.165 22.975C765.679 22.3167 762.455 21.79 762.06 21.7242C761.666 21.7242 759.363 23.2383 756.929 25.0816L752.456 28.439L739.562 28.9657C723.773 29.624 679.96 34.5613 657.856 38.1162C648.975 39.5645 635.818 41.342 628.581 42.132C615.622 43.5802 615.293 43.5802 608.188 42.4611L600.951 41.2761L563.783 46.6743L526.614 52.0725L457.868 57.6682C416.752 60.9597 387.675 63.0663 385.504 62.803C383.464 62.6055 377.017 63.0005 370.702 63.7905C359.913 65.0413 359.255 65.0413 354.519 63.9222C351.756 63.2638 347.808 61.7497 345.44 60.3014L341.23 57.8657L336.888 62.1447L332.546 66.4238L326.823 65.0413L321.1 63.7247L317.284 66.9504L313.468 70.242L302.614 70.637C289.786 71.0978 251.827 75.5085 235.512 78.4051C229.197 79.5242 218.408 81.1042 211.632 81.8941L199.199 83.3424L193.475 82.0258L187.752 80.775L154.53 85.7782L121.374 90.7814L73.3509 94.4679C46.9709 96.4429 24.0117 98.2862 22.3671 98.4837L19.3409 98.8128L20.9198 113.098C22.3671 126.067 22.4329 127.976 21.7092 133.638C21.1171 137.917 20.1961 141.34 18.6173 144.697C17.4331 147.331 16.4464 149.898 16.4464 150.359C16.4464 150.885 18.2884 153.519 20.4593 156.284L24.4722 161.353L23.2881 168.792L22.1697 176.296L25.5248 180.839L28.8798 185.381L29.2746 196.243C29.8008 210.2 35.5242 262.338 38.8135 283.075C40.195 291.962 42.1027 305.919 43.0238 314.082C44.6026 328.301 44.6684 329.223 43.6816 334.819C43.1553 337.978 42.5632 340.809 42.4317 341.073C42.2343 341.27 44.8 360.229 48.0235 383.205L53.8784 424.942L59.207 490.773C62.1016 526.98 64.4699 557.131 64.4699 557.79C64.4699 558.645 64.8646 558.843 65.9829 558.58C66.7724 558.448 81.1794 556.21 98.0205 553.708Z" fill="#fff"/>
<path d="M83.1529 528.1C82.4293 527.507 81.4425 525.664 80.982 524.018L80.1268 521.056L83.8108 517.633L87.4948 514.209L86.5738 511.708C85.2581 508.416 84.3371 496.567 83.5476 474.974C82.7582 452.92 80.1268 418.885 78.1532 406.048L76.7059 396.305L78.8769 392.224L81.0478 388.076L79.0084 382.942C77.8901 380.111 76.9691 377.543 76.9691 377.148C76.9691 376.753 78.1532 374.449 79.6663 371.948L82.3635 367.405L79.3374 363.521C74.6666 357.399 73.2851 352.791 72.3641 340.546C71.9694 334.687 71.2457 329.289 70.7194 328.17C70.1932 326.985 67.2986 303.285 63.5488 268.921C57.4965 213.689 57.2334 210.529 55.9177 181.036C54.2073 142.328 53.5494 135.152 51.5758 133.309C50.3917 132.255 50.0628 131.005 49.7996 126.857L49.4049 121.657L53.4836 119.813C57.1018 118.233 58.8122 117.904 69.0748 117.312C75.3902 116.851 86.0475 116.39 92.7576 116.193C110.257 115.666 138.215 113.493 149.202 111.782C159.596 110.136 158.214 110.004 164.596 113.757C166.24 114.678 166.569 114.613 171.24 112.572L176.108 110.465L180.121 113.164C182.358 114.613 184.397 115.863 184.726 115.863C185.055 115.863 186.699 114.678 188.344 113.164C193.41 108.754 198.08 107.239 209.724 106.318C215.316 105.923 220.053 105.265 220.25 104.87C220.513 104.54 243.67 101.71 271.694 98.5497C320.902 93.0199 323.599 92.7565 348.664 91.8349C381.096 90.6499 381.096 90.6499 386.359 88.28C391.622 85.9101 398.463 85.2518 427.277 84.2643C448.329 83.5401 452.802 83.0135 457.21 81.0385C461.025 79.3928 470.762 78.4711 495.366 77.6811C505.694 77.352 515.628 76.8912 517.404 76.6937C519.246 76.4962 527.6 75.772 536.021 74.9821C544.442 74.2579 552.073 73.4021 552.994 73.0729C555.625 72.0196 652.198 61.2891 665.092 60.565C671.408 60.2358 686.802 58.7217 699.301 57.2734C718.708 54.9693 726.47 54.4426 752.587 53.3235C769.428 52.6652 786.072 51.7436 789.559 51.2827L795.94 50.5586L800.084 53.1919C804.163 55.7593 804.229 55.8251 804.229 58.6559C804.229 61.6841 802.058 65.1732 800.15 65.1732C799.032 65.1732 799.032 65.7657 800.874 81.9602C802.321 94.534 802.387 96.1798 801.532 100.525C801.071 103.158 799.756 107.108 798.637 109.346L796.598 113.362L799.098 116.258C804.361 122.512 804.032 121.393 802.782 127.779L801.729 133.44L804.755 137.39L807.847 141.274V149.174C807.847 158.522 812.255 198.877 815.149 216.256C818.504 236.203 820.149 252.398 819.294 257.138C818.899 259.31 818.373 261.614 818.176 262.272C817.912 262.865 819.82 277.48 822.386 294.793C826.925 325.536 827.122 327.38 831.53 383.073C835.674 435.146 836.003 440.083 835.082 441.861C834.293 443.375 834.227 444.757 834.622 448.641L835.214 453.447L832.517 456.541L829.885 459.635L778.244 465.428C727.72 471.09 726.01 471.221 698.906 472.275L671.211 473.328L666.737 475.369C662.724 477.146 661.08 477.475 651.014 478.331C644.83 478.792 635.357 479.253 629.897 479.253C617.135 479.253 580.361 482.084 569.374 483.927L560.756 485.309L557.401 483.269C555.625 482.15 553.652 481.228 553.06 481.228C552.533 481.228 550.165 482.084 547.862 483.137L543.586 485.046L539.113 482.215L534.574 479.319L531.284 482.215C525.627 486.955 521.482 488.272 509.444 489.128C503.457 489.523 498.129 490.247 497.01 490.773C494.642 491.827 398.529 502.689 385.833 503.281C381.162 503.545 365.768 504.993 351.624 506.573C323.007 509.799 312.284 510.655 293.075 511.181C273.865 511.708 266.826 512.432 262.484 514.341C258.406 516.184 248.735 517.04 224.329 517.764C205.251 518.357 176.24 520.727 165.122 522.57C158.806 523.623 157.951 523.689 155.386 522.702C153.872 522.175 152.03 521.188 151.307 520.529C149.991 519.41 149.794 519.476 145.386 521.385C142.952 522.438 140.715 523.36 140.452 523.36C140.255 523.36 138.281 522.175 136.176 520.727C134.071 519.278 132.097 518.093 131.834 518.093C131.637 518.093 129.992 519.278 128.282 520.727C122.164 525.862 119.269 526.652 102.297 528.034C83.8766 529.482 84.8633 529.482 83.1529 528.1ZM133.545 508.285C154.991 504.993 164.135 504.006 185.844 502.294C200.317 501.175 215.842 499.661 220.382 499.002C230.381 497.422 320.902 490.313 329.586 490.378C333.007 490.378 338.204 490.115 341.098 489.786C343.993 489.457 348.006 488.996 349.979 488.798C365.242 487.284 379.912 485.375 391.095 483.532C398.332 482.281 408.397 480.833 413.528 480.24C421.488 479.319 423.265 479.319 426.685 480.109C430.106 480.899 431.751 480.899 440.435 479.845C445.895 479.187 455.499 477.805 461.815 476.685C468.13 475.566 477.603 474.25 482.932 473.657C491.616 472.67 492.8 472.67 496.484 473.591C498.655 474.184 501.418 474.645 502.536 474.645C503.72 474.645 517.272 472.736 532.666 470.366C559.901 466.218 562.006 465.955 610.951 462.137C638.647 459.964 662.395 458.384 663.711 458.582C665.092 458.779 670.158 458.516 675.092 457.924C683.183 456.936 684.433 456.936 688.381 457.792C690.749 458.384 694.367 459.767 696.406 460.886L700.09 462.993L703.774 459.306L707.524 455.619L712.721 456.87L717.984 458.055L721.208 455.29L724.365 452.46L734.036 451.999C746.535 451.406 778.704 447.654 796.335 444.757C803.966 443.506 811.86 442.256 813.899 442.058C817.583 441.663 817.583 441.597 817.057 439.886C816.334 437.516 815.149 420.07 814.689 404.205C814.163 386.431 810.808 344.298 809.097 334.621L807.716 326.59L810.018 322.442L812.321 318.295L810.084 312.831L807.781 307.433L810.479 302.89C811.926 300.389 813.11 298.019 813.11 297.69C813.11 297.295 811.926 295.452 810.413 293.608C806.005 288.078 804.229 281.956 803.308 269.58C802.847 263.852 802.255 258.783 801.861 258.323C801.532 257.928 798.44 232.319 795.019 201.378C788.901 146.278 788.704 144.434 787.125 110.597C785.546 78.0103 784.822 68.2014 783.901 67.3456C783.704 67.1481 780.349 67.3456 776.402 67.8064C767.718 68.7939 763.442 68.0698 757.258 64.7124L753.114 62.4083L749.364 66.0948L745.614 69.7814L740.549 68.6622L735.549 67.6089L734.167 69.3206C731.931 72.2171 729.299 73.0071 721.405 73.4679C705.024 74.2579 676.605 77.4837 659.83 80.3144C653.514 81.4335 643.646 82.8818 637.923 83.5401C628.713 84.5934 627.134 84.6593 623.582 83.8035C620.029 83.0135 618.45 83.0135 610.885 83.9351C606.148 84.4618 597.267 85.8442 591.084 86.8975C574.703 89.7283 566.348 90.6499 537.797 92.8224C523.719 93.9415 506.681 95.5215 499.971 96.4431C485.103 98.418 393.595 105.528 389.451 105.067C387.806 104.804 382.083 105.199 376.623 105.857C367.939 106.91 366.228 106.91 362.281 106.12C359.781 105.66 356.295 104.343 354.519 103.29C352.677 102.236 350.9 101.38 350.44 101.38C350.045 101.38 348.137 102.895 346.23 104.804L342.809 108.227L337.48 107.042L332.151 105.923L328.862 108.885L325.507 111.913H318.139C309.587 111.913 271.168 116.258 256.564 118.826C251.301 119.813 242.157 121.13 236.17 121.854C225.776 123.105 225.052 123.171 219.724 122.052L214.132 120.998L185.844 125.277C158.675 129.425 155.78 129.754 113.151 133.045C88.7447 134.889 68.6143 136.534 68.4827 136.732C68.2854 136.864 68.8774 143.447 69.6669 151.347C71.4431 167.673 71.1799 171.557 67.6933 178.535C66.6407 180.642 65.7855 182.616 65.7855 183.077C65.7855 183.472 67.2986 185.513 69.2064 187.685L72.5614 191.57L71.5089 197.363L70.5221 203.09L73.3509 206.711L76.1796 210.397L76.6402 220.206C77.2322 232.78 81.7056 272.674 84.2055 287.683C85.2581 294.003 86.7711 304.536 87.4948 311.054C88.8105 322.311 88.8763 323.101 87.8237 328.828L86.7053 334.753L91.3103 366.023C95.8495 396.634 96.0469 398.478 100.389 453.184C103.941 497.752 104.665 509.404 104.073 510.984C103.349 512.959 103.349 512.959 105.454 512.564C106.638 512.366 119.269 510.391 133.545 508.285Z" fill="#fff"/>
<path d="M188.147 470.563L182.555 467.996L177.358 458.384L172.161 448.839L175.187 442.716L178.213 436.594L182.555 436.331C186.897 436.133 186.897 436.133 189.528 438.832C191.633 440.939 192.357 442.387 193.146 445.745C194.857 453.184 200.12 456.673 208.343 455.817C212.487 455.356 212.619 455.29 216.106 451.406C218.079 449.234 219.724 446.93 219.724 446.337C219.724 444.823 214.395 407.892 214.132 407.628C214.001 407.497 208.935 408.352 202.883 409.406C196.107 410.657 189.594 411.447 186.107 411.447C181.173 411.447 180.252 411.249 178.213 409.801C176.305 408.352 175.911 407.628 175.648 404.863C175.319 401.901 175.45 401.374 177.292 399.399C180.187 396.042 190.581 393.145 202.949 392.224C208.014 391.829 212.224 391.434 212.356 391.368C212.422 391.302 211.895 389.261 211.172 386.891C210.251 383.797 209.593 378.662 208.935 369.051L208.014 355.621L205.251 351.935C202.356 348.117 201.37 347.656 196.041 347.524C192.883 347.458 187.949 349.302 184.463 351.935C182.687 353.252 182.358 353.91 182.029 357.596C181.634 361.283 181.305 362.007 179.068 364.114C177.555 365.562 175.582 366.681 174.069 366.944C171.898 367.339 171.306 367.142 168.74 365.101L165.911 362.731L165.451 355.556L164.99 348.314L169.135 341.599C173.016 335.345 173.74 334.621 179.003 331.066C184.529 327.38 184.857 327.248 192.489 325.997C203.146 324.286 205.843 325.01 214.527 331.725C219.724 335.74 221.237 337.386 223.868 341.731L227.026 346.932L228.934 363.85C229.986 373.198 231.171 386.167 231.565 392.685C231.96 399.202 233.473 413.158 234.855 423.625L237.354 442.716L236.17 449.3C235.447 452.92 234.92 456.212 234.855 456.673C234.855 457.068 232.289 460.359 229.197 463.914L223.539 470.366L211.303 471.814C195.12 473.723 194.791 473.723 188.147 470.563Z" fill="#fff"/>
<path d="M269.721 462.465L266.826 459.503L262.682 424.481C257.814 382.678 254.919 346.536 255.445 332.778L255.84 323.561L258.143 321.455C261.3 318.558 264.721 318.492 268.668 321.257L271.497 323.166L273.931 338.176C276.957 357.201 278.141 359.308 282.483 353.975C284.26 351.803 285.444 349.17 287.22 343.311C288.536 338.966 291.364 331.856 293.733 327.182C297.68 319.348 298.075 318.755 300.64 317.702C303.995 316.386 307.482 316.32 308.534 317.636C308.995 318.229 309.455 321.455 309.653 325.668L309.982 332.778L305.377 345.944C302.877 353.185 299.39 362.336 297.68 366.286L294.588 373.527L296.035 380.308C297.219 385.706 297.877 387.286 299.061 388.076C299.982 388.668 301.035 390.512 301.759 392.816C302.351 394.922 303.666 397.687 304.653 398.938C305.64 400.189 306.824 402.954 307.284 404.995C307.745 407.299 308.666 409.34 309.587 410.195C310.574 411.117 311.758 413.816 312.81 417.305C313.797 420.728 317.415 428.76 321.823 437.515C329.125 451.998 329.191 452.064 328.402 454.697C327.81 456.672 326.823 457.857 324.126 459.701C320.244 462.4 319.981 462.465 316.363 461.346C312.021 460.096 306.89 451.735 298.93 432.973C293.47 420.004 291.825 416.778 289.259 413.882L286.233 410.459L284.786 412.104C283.404 413.684 283.404 414.211 283.733 422.308C283.931 427.048 284.786 435.87 285.509 441.992L286.891 453.052L284.852 459.24L282.746 465.428H277.681H272.615L269.721 462.465Z" fill="#fff"/>
<path d="M362.018 451.077L355.505 445.876L352.808 438.7L350.045 431.525L348.993 413.092C348.401 402.954 347.216 389.063 346.361 382.151C345.506 375.305 344.19 362.007 343.467 352.725L342.151 335.806L344.256 330.21C347.019 322.771 354.124 314.345 360.176 311.185C363.794 309.276 364.715 309.144 372.018 308.881C379.846 308.617 379.978 308.617 385.833 311.053C392.016 313.555 394.122 315.266 400.108 322.047L403.397 325.865L404.252 332.909L405.108 339.953L402.805 342.784C400.7 345.286 400.174 345.615 397.674 345.615C393.332 345.615 389.845 342.718 388.53 338.11C387.214 333.699 385.898 332.646 379.32 331C374.781 329.881 374.583 329.881 370.702 331.132C366.82 332.448 366.623 332.58 364.584 336.793L362.479 341.072L364.123 354.304C365.636 366.088 365.768 368.261 365.11 373.856C364.518 378.925 364.584 381.69 365.373 388.076C365.899 392.421 366.689 404.336 367.149 414.54L367.939 433.039L372.478 436.462L377.017 439.82L381.096 439.359C386.096 438.832 389.911 436.791 392.28 433.368C393.727 431.196 394.056 430.076 394.056 426.587C394.056 422.901 394.319 421.913 396.227 419.214C397.806 416.779 398.858 415.989 400.503 415.725C401.621 415.528 403.595 415.264 404.845 415.067C407.015 414.738 407.279 414.869 411.16 420.07L415.239 425.402L414.186 429.089C413.594 431.196 412.147 435.804 410.963 439.425L408.726 446.008L403.463 450.089L398.2 454.171L385.767 455.224C367.544 456.672 369.518 457.002 362.018 451.077Z" fill="#fff"/>
<path d="M444.711 448.049C441.948 445.218 441.75 444.757 441.356 440.215C441.093 437.647 440.829 431.196 440.829 425.929C440.764 417.305 440.632 416.186 439.316 414.08C437.145 410.525 435.303 394.396 432.146 350.486L429.317 311.646L431.685 307.367C434.646 302.1 436.882 301.047 441.882 302.561C445.303 303.614 448.658 303.351 456.881 301.442C460.499 300.586 464.644 300.191 470.367 300.191C475.63 300.191 479.709 299.862 481.748 299.204C484.774 298.282 485.037 298.348 488.458 299.994C491.813 301.64 492.142 302.035 493.392 305.721C494.576 309.21 494.708 311.317 494.708 324.154C494.708 332.185 495.037 348.182 495.431 359.769C496.155 379.65 496.287 380.901 497.602 382.349C498.918 383.797 499.05 385.311 500.036 405.39C500.957 423.823 501.352 427.575 502.602 431.591L504.049 436.265L502.405 439.556C500.76 442.716 500.497 442.914 496.747 443.835L492.8 444.889L490.234 442.453L487.735 440.083L484.577 416.581C482.011 397.424 481.485 392.092 481.814 387.615C482.143 383.205 481.551 376.753 478.722 353.712C475.301 326.524 475.038 325.141 473.196 321.784L471.222 318.295L461.486 318.097L451.75 317.9L449.908 320.072C447.803 322.574 447.54 324.417 448.987 327.248C449.776 328.696 450.829 340.217 453.329 374.12C456.289 414.343 456.749 419.544 458.197 424.086C459.71 428.958 459.776 429.484 459.118 436.923C458.394 444.296 458.263 444.757 456.092 447.456C454.776 449.036 453.263 450.287 452.605 450.287C451.947 450.287 450.631 450.484 449.579 450.682C447.934 450.945 447.211 450.55 444.711 448.049Z" fill="#fff"/>
<path d="M546.547 437.252C541.547 435.146 540.297 434.224 536.482 430.077C532.469 425.666 532.008 424.876 529.903 418.293C527.798 411.578 527.732 411.117 528.719 409.208C529.508 407.628 529.706 405.258 529.64 397.951C529.574 391.302 529.771 387.813 530.561 385.443C532.271 379.65 531.877 376.885 527.666 365.759C523.916 356.016 523.719 355.095 522.14 342.653L520.496 329.684L522.14 325.668C523.653 321.982 523.719 321.192 523.193 316.781L522.601 311.975L530.232 304.602C539.245 295.912 541.35 294.925 551.152 294.925C556.349 294.925 557.862 295.188 563.256 297.295C569.506 299.665 571.479 301.113 576.282 306.774L578.782 309.803L582.795 343.311C585.163 363.324 587.268 384.719 588.057 396.239L589.307 415.594L587.268 421.255C585.36 426.719 585.031 427.114 579.834 431.723C572.466 438.174 568.322 439.754 558.98 439.688C552.796 439.622 551.81 439.425 546.547 437.252ZM566.546 419.544C568.519 417.437 569.045 416.186 570.032 411.446L571.151 405.851L568.453 377.872C567.006 362.468 565.361 343.377 564.769 335.411C564.177 327.446 563.585 320.336 563.388 319.612C563.256 318.887 561.612 317.176 559.704 315.859L556.283 313.358H549.178H542.139L540.363 316.32C538.85 318.953 538.587 320.402 538.126 327.38C537.666 335.345 537.666 335.411 539.442 338.374C541.152 341.336 541.218 341.665 542.007 358.781C542.402 368.393 543.192 379.65 543.718 383.797C544.244 387.945 544.705 396.305 544.705 402.428V413.421L547.205 416.647C549.573 419.741 549.77 419.807 555.23 420.795C563.585 422.309 563.848 422.309 566.546 419.544Z" fill="#fff"/>
<path d="M619.569 427.378L617.332 424.876L616.214 413.421C615.622 407.101 614.372 388.998 613.451 373.264C612.53 357.53 611.082 338.571 610.227 331.132C609.306 323.496 608.451 311.448 608.254 303.417L607.793 289.197L610.161 287.091C611.411 285.972 613.122 284.918 613.977 284.787C614.766 284.589 623.582 283.668 633.581 282.746L651.672 281.1L657.396 283.733C662.527 286.169 663.382 286.827 665.619 290.185L668.184 293.937L670.882 317.637C673.842 343.047 673.776 341.402 671.342 351.935C671.145 352.725 668.316 355.358 664.895 357.925L658.777 362.534L646.475 364.706L634.173 366.878L633.121 369.709C631.344 374.317 631.542 392.289 633.45 409.208L635.094 423.098L632.463 426.456L629.897 429.813L625.884 429.879C622.003 429.879 621.74 429.747 619.569 427.378ZM647.396 344.825L651.738 342.85L652.133 334.555C652.396 328.301 652.133 323.166 651.146 314.147L649.764 302.166L638.515 302.298L627.266 302.495L627.068 304.799C627.003 306.05 627.924 315.662 629.239 326.129C631.016 340.809 631.805 345.417 632.66 346.405C634.305 348.248 641.607 347.458 647.396 344.825Z" fill="#fff"/>
<path d="M721.931 426.785C719.431 426.522 719.102 426.258 716.734 422.177L714.234 417.898L709.103 375.305C704.695 338.966 701.932 312.041 701.932 305.392C701.932 304.075 701.274 303.219 699.235 301.903C696.998 300.389 695.617 300.059 690.683 299.73C685.091 299.335 684.565 299.204 681.144 296.702C678.184 294.595 677.526 293.871 677.855 292.686C678.052 291.962 678.25 290.185 678.25 288.868C678.25 286.761 678.71 286.103 681.736 283.47L685.223 280.507L708.774 279.388C731.075 278.401 732.457 278.401 734.825 279.454C737.391 280.573 739.43 283.931 739.43 286.893C739.43 287.551 737.72 289.724 735.68 291.765C731.931 295.385 731.733 295.517 726.734 296.175C723.905 296.57 721.273 296.899 720.944 296.899C720.55 296.899 719.826 297.953 719.3 299.204C718.445 301.31 718.839 305.128 724.234 349.696C727.523 376.226 730.483 402.954 730.878 409.076L731.602 420.202L729.233 423.757C727.786 425.929 726.47 427.18 725.747 427.114C725.155 427.048 723.444 426.917 721.931 426.785Z" fill="#fff"/>
<path d="M165.648 298.414L162.622 295.254L158.28 257.401C153.609 216.453 151.175 187.027 151.241 171.622C151.307 158.588 152.425 156.02 158.412 155.099C160.977 154.704 161.635 154.901 164.398 156.942L167.49 159.246L169.661 173.268C172.753 193.017 173.608 194.729 178.016 190.055C180.252 187.685 180.976 186.171 182.752 180.049C183.936 175.967 186.765 168.857 189.265 163.788C194.002 154.045 194.462 153.584 200.712 152.399C204.264 151.741 204.988 153.124 205.514 161.418L205.909 168.462L201.37 181.497C198.87 188.673 195.449 197.692 193.804 201.576C192.16 205.46 190.778 209.212 190.778 209.936C190.778 210.66 191.37 213.82 192.094 216.98C193.081 221.259 193.804 222.971 195.054 223.892C195.975 224.682 197.028 226.657 197.686 228.961C198.278 231.002 199.33 233.306 199.988 234.03C201.567 235.808 202.291 237.454 203.212 241.272C203.672 243.115 204.725 245.288 205.514 246.209C206.369 247.131 208.014 250.817 209.198 254.438C210.382 258.125 214.329 266.946 218.277 274.648L225.184 288.21L224.197 290.777C223.474 292.489 222.092 294.069 219.592 295.78C216.106 298.282 215.974 298.282 212.948 297.426C210.119 296.702 209.527 296.175 205.712 290.646C202.422 286.037 200.186 281.561 195.383 270.238C188.015 252.661 188.278 253.253 184.792 249.238L181.963 246.078L180.779 247.526C179.068 249.633 179.266 260.297 181.239 276.163L182.752 288.671L180.713 295.122L178.674 301.508H173.674H168.674L165.648 298.414Z" fill="#fff"/>
<path d="M250.709 293.147C249.788 292.95 247.683 291.633 245.907 290.185L242.749 287.486V281.956C242.749 277.874 243.078 275.833 243.999 273.99C244.788 272.344 245.38 269.316 245.709 264.642C245.972 260.824 246.828 254.767 247.683 251.147C248.538 247.526 249.459 241.93 249.656 238.639C249.92 235.413 250.972 229.686 251.959 225.933C253.472 220.403 253.735 218.363 253.472 214.413C253.143 209.278 255.643 179.654 258.011 160.958L259.458 149.766L262.353 146.08L265.313 142.393L270.642 141.932C280.97 141.142 280.378 140.945 284.128 146.08C286.036 148.581 287.483 151.28 287.483 152.202C287.483 153.058 288.207 154.506 289.062 155.296C290.312 156.481 290.707 157.666 291.036 161.813C291.496 166.553 291.693 167.08 294.062 169.516C296.233 171.754 297.022 173.597 299.851 182.353C301.627 187.949 303.666 194.466 304.324 196.836C304.916 199.206 306.1 201.905 306.89 202.826C307.877 204.011 308.863 207.237 310.048 213.294C311.363 219.811 312.219 222.576 313.468 224.222C314.455 225.538 315.639 228.632 316.495 232.056C317.35 235.742 318.534 238.705 319.784 240.416C321.034 242.194 321.692 243.905 321.692 245.485C321.692 247.197 322.218 248.382 323.928 250.159C325.968 252.266 326.231 252.99 326.889 258.256C327.481 263.062 328.007 264.905 330.244 268.921L332.875 273.727L331.494 277.611C330.704 279.718 329.323 282.548 328.402 283.865C327.086 285.971 326.362 286.366 323.731 286.696C322.086 286.893 319.784 287.222 318.665 287.42C316.692 287.683 316.495 287.551 312.284 280.178C308.666 273.99 307.679 271.554 306.561 266.485C304.719 258.125 304.916 258.651 301.693 255.952L298.864 253.517L294.456 254.175C290.575 254.702 289.851 254.636 288.273 253.451L286.496 252.2L278.536 254.57L270.51 257.006L267.879 260.956C265.182 264.905 265.182 265.037 264.721 272.871C264.458 277.216 263.866 281.89 263.406 283.272C262.945 284.655 260.972 287.551 259.064 289.658C255.511 293.674 254.853 293.937 250.709 293.147ZM291.364 232.648C292.878 231.397 293.404 230.41 293.404 228.764C293.404 227.447 293.009 226.262 292.417 225.999C291.825 225.67 290.904 223.629 290.312 221.523C289.72 219.35 288.273 216.19 287.023 214.544C285.575 212.504 284.72 210.331 284.457 208.29C284.194 206.513 282.681 202.431 281.102 199.272C278.734 194.466 278.01 193.544 277.286 194.202C275.839 195.453 275.115 198.679 274.786 206.052C274.523 211.779 274.129 213.754 272.484 217.638C270.379 222.708 270.379 226.065 272.55 230.146C273.997 232.911 275.379 233.306 287.944 234.228C288.733 234.294 290.246 233.57 291.364 232.648Z" fill="#fff"/>
<path d="M359.782 280.047C354.256 278.335 353.992 277.611 352.216 262.865C351.164 253.912 350.637 246.275 350.637 238.31C350.637 231.99 349.979 218.692 349.256 208.817C347.94 192.162 347.874 190.845 348.861 189.726C350.374 188.08 350.308 187.619 348.072 181.431C346.559 177.218 345.703 172.61 344.125 159.312C343.006 150.096 342.085 142.196 342.085 141.801C342.085 141.406 343.269 139.694 344.717 138.048C346.822 135.678 348.203 134.823 351.032 133.967C353.071 133.374 355.111 133.045 355.505 133.177C355.9 133.374 358.005 134.954 360.176 136.798L364.123 140.089L366.689 150.491C368.728 158.719 370.899 164.908 376.82 179.391C383.991 196.902 386.622 202.102 388.464 202.102C389.714 202.102 392.016 193.215 392.74 185.447C393.069 181.497 393.924 176.296 394.648 173.927C395.372 171.491 396.095 166.883 396.358 163.591C396.556 160.365 397.806 152.334 399.056 145.882C401.095 135.613 401.687 133.704 403.463 131.268L405.568 128.437H412.476H419.383L421.752 130.609L424.186 132.848L425.896 162.999C427.606 191.174 427.935 195.058 431.554 220.206C433.725 235.084 435.764 252.2 436.159 258.322L436.816 269.382L434.382 272.608C431.356 276.558 429.646 276.755 424.778 273.595L421.291 271.423L417.147 247.131C414.252 229.817 412.542 221.588 411.292 218.429C410.305 215.927 409.384 213.952 409.187 213.952C408.989 213.952 407.279 220.074 405.305 227.645C400.832 245.156 401.029 244.893 390.898 244.893C384.583 244.893 383.662 244.761 382.083 243.379C380.044 241.733 375.767 232.319 373.991 225.604C373.136 222.444 372.281 220.733 371.097 219.811L369.386 218.429L368.465 221.457C367.61 224.156 367.676 226.592 368.926 243.115C369.715 253.319 370.373 264.708 370.373 268.329V275.044L366.821 278.072C364.847 279.718 363.137 281.1 363.005 281.034C362.939 280.968 361.426 280.573 359.782 280.047Z" fill="#fff"/>
<path d="M467.538 272.608C465.038 272.213 463.854 271.62 461.683 269.448L458.986 266.749L459.118 260.626C459.184 257.071 459.644 253.846 460.17 252.792C460.631 251.871 461.289 248.118 461.486 244.498C461.749 240.943 462.802 234.228 463.854 229.62C464.907 225.077 465.762 219.416 465.762 217.112C465.762 214.478 466.486 210.331 467.801 205.723C469.446 199.864 469.775 197.626 469.512 194.202C469.183 189.528 472.209 153.519 474.248 138.443C475.433 129.161 475.498 129.095 478.261 125.606C481.419 121.59 482.603 121.195 491.419 121.195H497.01L500.168 125.409C501.878 127.713 503.26 130.214 503.26 130.938C503.26 131.663 503.984 133.111 504.839 134.098C506.154 135.612 506.549 137.127 506.944 141.076C507.339 145.75 507.536 146.211 509.97 148.581C512.601 151.149 513.72 154.111 519.969 175.177C520.89 178.271 522.272 181.629 522.996 182.55C523.851 183.669 524.903 187.224 526.022 192.688C527.272 198.942 528.127 201.773 529.508 203.748C530.627 205.328 531.811 208.554 532.535 211.977C533.39 215.795 534.311 218.165 535.561 219.547C536.745 220.864 537.403 222.576 537.666 224.748C537.929 227.381 538.389 228.369 540.034 229.686C541.942 231.265 542.139 231.858 542.797 237.322C543.389 242.259 543.981 244.103 546.152 248.118L548.849 253.056L547.665 256.347C547.007 258.191 545.626 261.087 544.639 262.733C542.863 265.564 542.468 265.827 539.245 266.222C532.206 267.012 532.798 267.407 528.061 259.244C524.443 252.99 523.522 250.752 522.272 245.024C520.89 238.639 520.627 238.112 517.93 235.61L515.036 232.977L510.957 233.438C508.72 233.701 506.747 233.965 506.615 234.096C506.483 234.228 505.497 233.701 504.444 232.911L502.47 231.529L494.51 233.965C490.169 235.281 486.419 236.598 486.221 236.927C485.958 237.19 484.774 239.034 483.458 241.009C481.09 244.498 481.024 244.761 480.63 252.595C480.367 257.532 479.774 261.548 479.182 263.128C478.261 265.234 472.078 272.739 471.025 272.937C470.828 273.003 469.249 272.805 467.538 272.608ZM507.668 211.845C509.378 210.265 509.707 207.04 508.26 205.46C507.799 204.867 506.878 202.76 506.22 200.786C505.628 198.811 504.115 195.716 502.931 193.873C501.681 192.03 500.563 189.331 500.365 187.619C499.905 184.591 494.839 173.136 493.918 173.136C493.655 173.136 492.932 173.86 492.34 174.716C491.616 175.901 491.221 178.6 490.958 184.13C490.629 190.582 490.234 192.622 488.656 196.441C486.55 201.641 486.353 204.604 487.998 208.488C489.445 212.109 492.208 213.162 500.234 213.228C505.431 213.293 506.286 213.096 507.668 211.845Z" fill="#fff"/>
<path d="M660.356 246.67C657.725 244.893 657.001 243.971 655.948 240.679L654.633 236.861L657.461 233.438C660.488 229.751 665.422 221.983 664.961 221.457C664.764 221.325 663.843 221.786 662.856 222.576C661.803 223.432 660.553 223.827 659.764 223.629C658.843 223.366 658.251 223.695 657.725 224.814C657.133 226.197 656.475 226.394 651.278 226.789C646.673 227.184 645.16 227.052 643.515 226.197C640.883 224.88 640.423 224.88 638.252 226.394C635.752 228.237 622.99 229.356 619.766 228.04C617.661 227.184 617.464 227.25 614.898 229.093C612.793 230.607 611.477 231.068 609.175 231.068C604.307 231.068 603.78 230.344 602.859 221.852C601.873 213.425 602.07 212.899 606.741 208.685L609.306 206.381L605.951 204.801C604.109 203.88 602.596 203.09 602.596 203.024C602.596 202.892 603.254 201.707 604.044 200.391C604.833 199.008 605.228 197.823 604.899 197.692C604.504 197.56 603.254 196.902 602.004 196.112C599.767 194.795 599.767 194.729 600.162 190.911C600.623 186.566 598.583 167.672 597.004 161.945C596.478 159.97 595.755 155.889 595.36 152.926C594.768 148.318 594.834 147.199 595.755 145.29C596.807 143.051 596.873 143.051 602.399 142.591C606.149 142.261 608.583 142.393 610.162 142.92C612.201 143.644 612.596 143.578 614.898 142.064C617.003 140.616 618.516 140.221 624.634 139.694C631.081 139.102 632.2 139.167 634.634 140.221C637.331 141.406 637.397 141.406 639.502 139.826C640.686 138.97 642.331 138.246 643.12 138.246C643.975 138.246 644.896 137.719 645.291 137.127C645.752 136.271 647.33 135.744 650.949 135.283L655.948 134.625L652.133 130.609C650.028 128.437 647.33 125.869 646.146 124.948C643.91 123.302 643.91 123.302 644.37 119.484C644.831 116.192 645.291 115.205 647.594 112.835C651.935 108.358 652.593 108.424 660.159 114.481C667.658 120.537 668.645 122.315 667.987 128.108C667.527 132.058 667.592 132.123 671.671 130.675C675.684 129.227 676.079 129.358 676.605 132.321C676.868 133.769 677.263 135.086 677.592 135.283C677.855 135.481 679.5 135.152 681.144 134.691L684.17 133.769L686.999 137.061C690.42 141.076 706.011 153.519 713.248 158.061C720.484 162.538 726.931 167.738 727.655 169.647C727.984 170.503 728.247 172.478 728.247 173.926C728.247 176.23 727.72 177.218 724.563 180.905C722.589 183.274 718.708 187.224 716.011 189.792C709.761 195.651 697.591 209.805 694.565 214.874L692.196 218.758L688.71 218.823L685.157 218.889L684.96 221.917L684.762 224.946L681.671 224.682C677.197 224.287 676.539 224.946 677.592 228.698C678.908 233.438 678.118 235.413 672.197 242.457C665.948 249.764 665.29 250.027 660.356 246.67ZM657.133 200.193C658.185 199.535 657.527 198.152 656.146 198.152C655.619 198.152 655.225 198.745 655.225 199.469C655.225 200.917 655.685 201.115 657.133 200.193ZM647.528 162.603C647.133 161.155 646.344 160.892 645.686 161.945C645.16 162.801 645.883 163.92 647.002 163.92C647.528 163.92 647.725 163.459 647.528 162.603Z" fill="#fff"/>
<path d="M579.9 237.783L577.203 236.532L574.111 212.24C571.151 189.199 571.019 187.027 570.822 170.108L570.69 152.268L573.453 150.227C575.756 148.45 576.808 148.121 579.834 148.121C582.005 148.121 583.782 148.45 584.374 149.042C584.9 149.569 585.624 152.992 586.15 157.469C587.137 166.093 586.939 166.817 582.663 170.569L579.966 173.005L583.387 174.717L586.808 176.428L585.492 179.061L584.176 181.695L586.808 183.011L589.439 184.328V188.87C589.439 195.058 591.676 211.253 593.649 219.021C594.57 222.576 595.491 227.579 595.689 230.081C596.149 234.426 596.018 234.821 594.439 236.532C593.386 237.651 592.136 238.31 590.952 238.31C589.965 238.31 587.663 238.507 585.821 238.639C583.387 238.902 581.808 238.705 579.9 237.783Z" fill="#fff"/>
</svg>
