<svg width="32" height="32" viewBox="0 0 32 32" fill="none" xmlns="http://www.w3.org/2000/svg">
<path d="M32 0H0V32H32V0Z" fill="#231E1B"/>
<path d="M16.0862 17.581C14.8171 16.4826 13.9698 15.1272 13.5243 14.356L13.192 13.6966C13.3082 13.5653 14.1942 12.5666 14.5782 12.0248C15.0607 11.3443 14.3611 10.7298 14.3611 10.7298C14.3611 10.7298 12.3927 8.65742 11.944 8.24634C11.4954 7.83468 10.979 8.06332 10.979 8.06332C10.0361 8.70461 9.05864 9.26217 9 11.9436C8.99781 14.4541 10.8083 17.0435 12.7661 19.0481C14.7271 21.3119 17.4195 23.581 20.0225 23.5784C22.5696 23.5173 23.0991 22.4885 23.7083 21.496C23.7083 21.496 23.9257 20.9528 23.535 20.4801C23.1441 20.0076 21.175 17.9351 21.175 17.9351C21.175 17.9351 20.5916 17.1986 19.9451 17.7069C19.4633 18.0861 18.598 18.9294 18.3896 19.1338C18.3896 19.1338 16.9425 18.3223 16.0862 17.581Z" fill="white"/>
</svg>
