<svg width="33" height="31" viewBox="0 0 33 31" fill="none" xmlns="http://www.w3.org/2000/svg">
<g clip-path="url(#clip0_67_307)">
<path d="M33 0H0V31H33V0Z" fill="#1BD741"/>
<path d="M4.95898 26.3526L6.57542 20.9595C5.53596 19.3006 4.98867 17.4132 4.98867 15.4743C4.98867 9.50429 10.159 4.64734 16.5141 4.64734C22.8693 4.64734 28.0395 9.50429 28.0395 15.4743C28.0395 21.4443 22.8693 26.3012 16.5141 26.3012C14.5339 26.3012 12.5949 25.8251 10.8795 24.9209L4.95898 26.3526ZM11.1822 22.9512L11.535 23.1536C13.0306 24.0113 14.7524 24.4646 16.5141 24.4646C21.7912 24.4646 26.0844 20.4316 26.0844 15.4743C26.0844 10.517 21.7912 6.48395 16.5141 6.48395C11.237 6.48395 6.94377 10.517 6.94377 15.4743C6.94377 17.2016 7.46636 18.879 8.45492 20.3251L8.6925 20.6726L7.76166 23.7784L11.1822 22.9512Z" fill="white"/>
<path d="M13.277 10.4351L12.5291 10.3968C12.2942 10.3847 12.0638 10.4585 11.8863 10.6034C11.5237 10.8991 10.944 11.4709 10.7659 12.216C10.5004 13.3271 10.9107 14.6875 11.9728 16.048C13.0349 17.4084 15.0141 19.5851 18.5139 20.5148C19.6417 20.8144 20.5289 20.6124 21.2134 20.2011C21.7555 19.8753 22.1293 19.3524 22.2639 18.7613L22.3834 18.2374C22.4213 18.0709 22.3313 17.9019 22.1666 17.8306L19.6391 16.7362C19.475 16.6652 19.2805 16.7101 19.1701 16.8444L18.1779 18.0528C18.1029 18.1441 17.9746 18.1803 17.8587 18.142C17.1792 17.9177 14.9031 17.0222 13.6541 14.7622C13.6 14.6642 13.6134 14.5452 13.6902 14.4616L14.6385 13.4311C14.7354 13.3258 14.7599 13.1779 14.7017 13.05L13.6122 10.6555C13.5542 10.5281 13.4242 10.4426 13.277 10.4351Z" fill="white"/>
</g>
<defs>
<clipPath id="clip0_67_307">
<rect width="33" height="31" rx="4" fill="white"/>
</clipPath>
</defs>
</svg>
