<svg width="507" height="563" viewBox="0 0 507 563" fill="none" xmlns="http://www.w3.org/2000/svg">
<path d="M457.586 561.945C461.943 544.757 469.119 528.227 479.995 513.955C484.325 508.292 489.2 503.044 494.555 498.282C497.184 495.882 499.997 493.314 503.207 491.745C504.499 491.109 505.349 490.862 505.299 492.529C505.076 494.107 504.571 495.635 503.805 497.044C497.911 510.238 487.12 518.717 473.775 524.14C465.522 527.374 457.036 530.016 448.386 532.045C440.419 534.013 431.512 536.088 423.263 534.686C408.002 532.084 411.669 512.632 413.826 502.095C417.924 482.131 425.369 462.766 432.479 443.685C440.765 421.415 449.482 399.273 456.839 376.682C462.74 358.576 468.873 339.333 468.819 320.155C468.81 307.899 464.908 294.919 451.271 291.627C443.953 289.857 436.119 290.837 428.858 292.386C418.838 294.518 409.16 298.056 399.727 301.939C377.601 311.053 356.499 322.407 335.361 333.483C317.871 342.66 300.117 352.985 281.095 358.918C276.522 360.348 269.98 362.45 265.308 360.222C261.211 358.294 262.336 353.645 263.649 350.267C266.258 343.668 270.598 337.642 274.735 331.908C280.876 323.424 287.415 315.249 293.955 307.074C309.02 288.219 324.317 269.427 337.52 249.261C348.293 232.808 359.846 213.696 360.851 193.7C361.217 186.392 359.748 178.768 355.399 172.668C351.558 167.273 345.748 163.668 339.498 161.382C331.426 158.433 322.711 157.395 314.157 156.924C303.269 156.459 292.362 156.63 281.494 157.436C255.019 159.082 228.672 162.285 202.195 163.981C174.2 165.751 145.748 166.26 117.975 161.709C91.7411 157.378 66.0188 147.999 46.0811 130.424C20.6615 107.96 8.36836 75.6302 4.14505 43.1327C2.4304 29.1924 1.8365 15.1432 2.36877 1.11303C2.39234 0.329383 1.14648 0.386405 1.1057 1.15616C0.153079 31.9006 3.29337 63.733 16.4309 92.07C28.5977 118.694 50.5485 139.938 77.9811 151.64C102.926 162.291 130.54 165.707 157.565 166.313C185.987 166.956 214.367 164.434 242.64 161.847C266.569 159.644 290.88 156.708 314.953 158.143C329.947 159.036 348.94 162.005 356.341 176.577C364.991 193.52 355.766 214.568 347.596 229.933C336.06 251.626 320.746 271.344 305.462 290.638C292.581 306.893 278.519 322.719 267.51 340.287C263.9 346.05 255.402 360.512 267.852 362.117C273.83 362.883 280.177 360.607 285.633 358.619C294.392 355.302 302.946 351.497 311.254 347.221C332.986 336.45 354.143 324.609 375.958 314.007C386.663 308.804 397.516 303.835 408.696 299.689C417.718 296.322 427.185 293.325 436.848 292.251C443.843 291.47 451.654 291.614 457.707 295.573C463.042 299.02 465.67 304.85 466.793 310.787C468.284 318.745 467.52 327.071 466.284 335.011C464.596 345.124 462.227 355.12 459.193 364.932C452.384 387.856 443.716 410.22 435.287 432.617C427.595 453.054 419.554 473.572 414.23 494.756C412.357 502.181 410.724 509.851 410.692 517.524C410.667 522.382 411.279 527.924 414.698 531.735C417.315 534.656 421.27 535.762 425.122 536.097C433.013 536.808 441.146 535.047 448.754 533.167C463.452 529.509 479.623 525.187 491.406 515.485C496.383 511.233 500.489 506.106 503.511 500.372C504.304 498.905 509.066 490.647 505.147 489.907C503.344 489.588 500.958 491.574 499.67 492.491C496.662 494.703 493.813 497.114 491.143 499.705C486.077 504.505 481.473 509.745 477.389 515.362C467.278 529.268 460.54 545.168 456.363 561.648C456.347 561.797 456.388 561.945 456.477 562.067C456.566 562.188 456.697 562.274 456.847 562.308C456.996 562.342 457.153 562.322 457.288 562.251C457.423 562.18 457.527 562.064 457.581 561.924L457.586 561.945Z" fill="white"/>
</svg>
