<svg width="82" height="76" viewBox="0 0 82 76" fill="none" xmlns="http://www.w3.org/2000/svg">
<path d="M79.5983 14.5153C79.5983 13.8526 80.1387 13.3122 80.8014 13.3122C81.4643 13.3122 82 13.8526 82 14.5153V50.5532C82 52.1648 81.3418 53.6312 80.2793 54.6937C79.217 55.756 77.7506 56.4189 76.1344 56.4189H49.0447L51.2964 66.9197H56.4902C57.716 66.9197 58.8236 67.4191 59.6273 68.2227C60.4308 69.0262 60.9302 70.134 60.9302 71.3552C60.9302 72.5764 60.4308 73.6887 59.6273 74.4924C58.8236 75.2959 57.716 75.7952 56.4902 75.7952H25.5098C24.2885 75.7952 23.1764 75.2959 22.3727 74.4924C21.5692 73.6887 21.0698 72.5764 21.0698 71.3552C21.0698 70.134 21.5692 69.0262 22.3727 68.2227C23.1764 67.4191 24.2885 66.9197 25.5098 66.9197H30.7036L32.9598 56.4189H5.86556C4.24943 56.4189 2.78288 55.756 1.72072 54.6937C0.658242 53.6314 0 52.1648 0 50.5532V42C0 41.3371 0.540367 40.8014 1.20309 40.8014C1.86582 40.8014 2.40154 41.3371 2.40154 42V44.6876H79.5983V14.5153ZM62.837 18.011C62.1741 18.011 61.6384 17.4708 61.6384 16.8079C61.6384 16.145 62.1741 15.6048 62.837 15.6048H75.744C76.4069 15.6048 76.9424 16.145 76.9424 16.8079C76.9424 17.4708 76.4067 18.011 75.744 18.011H62.837ZM62.837 8.37744C62.1741 8.37744 61.6384 7.84171 61.6384 7.17899C61.6384 6.51162 62.1741 5.97589 62.837 5.97589H75.744C76.4069 5.97589 76.9424 6.51162 76.9424 7.17899C76.9424 7.84187 76.4067 8.37744 75.744 8.37744H62.837ZM62.837 13.0399C62.1741 13.0399 61.6384 12.5042 61.6384 11.8415C61.6384 11.1786 62.1741 10.6384 62.837 10.6384H75.744C76.4069 10.6384 76.9424 11.1786 76.9424 11.8415C76.9424 12.5044 76.4067 13.0399 75.744 13.0399H62.837ZM62.837 22.6736C62.1741 22.6736 61.6384 22.1333 61.6384 21.4704C61.6384 20.8077 62.1741 20.2719 62.837 20.2719H72.6341C73.2969 20.2719 73.8325 20.8077 73.8325 21.4704C73.8325 22.1333 73.2968 22.6736 72.6341 22.6736H62.837ZM56.9897 32.321C56.3268 32.321 55.7864 31.7808 55.7864 31.1179C55.7864 30.455 56.3268 29.9194 56.9897 29.9194H69.892C70.5547 29.9194 71.0951 30.4552 71.0951 31.1179C71.0951 31.7806 70.5547 32.321 69.892 32.321H56.9897ZM56.9897 36.9834C56.3268 36.9834 55.7864 36.4477 55.7864 35.785C55.7864 35.1176 56.3268 34.5819 56.9897 34.5819H66.7821C67.445 34.5819 67.9852 35.1176 67.9852 35.785C67.9852 36.4479 67.445 36.9834 66.7821 36.9834H56.9897ZM57.0486 39.3216C57.7115 39.3216 58.2471 39.8618 58.2471 40.5247C58.2471 41.1876 57.7113 41.7278 57.0486 41.7278H44.1054C43.4425 41.7278 42.9022 41.1876 42.9022 40.5247V26.3782C42.9022 25.7153 43.4424 25.1751 44.1054 25.1751H75.4307C76.0936 25.1751 76.6338 25.7153 76.6338 26.3782V40.5247C76.6338 41.1876 76.0936 41.7278 75.4307 41.7278H62.4874C61.8246 41.7278 61.2889 41.1876 61.2889 40.5247C61.2889 39.8618 61.8246 39.3216 62.4874 39.3216H74.2321V27.5768H45.3039V39.3216H57.0486ZM44.1054 15.605H58.1745C58.8374 15.605 59.3776 16.1452 59.3776 16.8081V21.4706C59.3776 22.1334 58.8372 22.6738 58.1745 22.6738H44.1054C43.4425 22.6738 42.9022 22.1334 42.9022 21.4706V20.3402H36.6825L32.4105 22.5739C32.9144 23.1868 33.1914 23.8405 33.1959 24.5351V26.3465V29.8105C33.1959 31 32.7055 32.0849 31.9247 32.8658C31.112 33.6785 30.0179 34.1325 28.8693 34.1325H24.4565C24.1932 35.9802 23.3306 37.6374 22.0731 38.8949C20.5477 40.4202 18.441 41.3645 16.112 41.3645C13.783 41.3645 11.6765 40.4202 10.1512 38.8949C8.89364 37.6374 8.03104 35.9802 7.76774 34.1325H2.4017V36.5614C2.4017 37.2243 1.86598 37.76 1.20325 37.76C0.540367 37.76 0.000160156 37.2243 0.000160156 36.5614C0.000160156 26.6598 0.000160156 16.7629 0.000160156 6.86572C0 5.24942 0.658242 3.78303 1.72072 2.72056C2.78304 1.65824 4.24943 1 5.86556 1H76.1344C77.7506 1 79.217 1.65824 80.2793 2.72056C81.3418 3.78303 82 5.24942 82 6.86556V9.07187C82 9.73476 81.4643 10.275 80.8014 10.275C80.1387 10.275 79.5983 9.7346 79.5983 9.07187V6.86556C79.5983 5.91679 79.2078 5.04971 78.5813 4.42318C77.9548 3.79216 77.0877 3.4017 76.1343 3.4017H5.86556C4.91664 3.4017 4.04955 3.79216 3.42318 4.42318C2.79216 5.04971 2.4017 5.91679 2.4017 6.86556V11.7142C2.99188 12.1637 3.58205 12.6131 4.17223 13.0534C6.0017 14.4153 7.61351 15.4777 8.82109 15.523C11.4906 15.6093 16.203 16.2857 18.7681 16.8532L35.5611 8.44102C35.7291 8.35469 35.9107 8.30937 36.0968 8.30937H42.9022V7.17899C42.9022 6.51162 43.4424 5.97589 44.1054 5.97589H58.1745C58.8374 5.97589 59.3776 6.51162 59.3776 7.17899V11.8415C59.3776 12.5044 58.8372 13.0399 58.1745 13.0399H44.1054C43.4425 13.0399 42.9022 12.5042 42.9022 11.8415V10.7109H36.3692L22.3274 17.7479C25.0103 18.4969 28.0296 19.482 30.3993 20.9257L35.8426 18.0792C36.0151 17.9884 36.2059 17.9386 36.3965 17.9386H42.9022V16.8081C42.9022 16.1452 43.4424 15.605 44.1054 15.605ZM56.9714 18.011H45.3039V20.2719H56.9714V18.011ZM56.9714 8.37744H45.3039V10.6384H56.9714V8.37744ZM27.2712 22.0018V25.1481H30.7897V24.5351C30.7897 23.6315 27.6981 22.1924 27.2712 22.0018ZM48.8449 66.9197L46.5886 56.4189H35.4113L33.1595 66.9197H38.2805C38.9434 66.9197 39.4836 67.4554 39.4836 68.1183C39.4836 68.781 38.9434 69.3214 38.2805 69.3214H25.5097C24.9512 69.3214 24.4427 69.5483 24.075 69.9207C23.7028 70.2884 23.4757 70.7969 23.4757 71.3552C23.4757 71.9135 23.7026 72.422 24.075 72.7944C24.4427 73.1621 24.9512 73.3937 25.5097 73.3937H56.49C57.0485 73.3937 57.557 73.1621 57.9292 72.7944C58.2969 72.422 58.5285 71.9135 58.5285 71.3552C58.5285 70.7968 58.2969 70.2883 57.9292 69.9207C57.5568 69.5483 57.0483 69.3214 56.49 69.3214H43.7191C43.0562 69.3214 42.5207 68.781 42.5207 68.1183C42.5207 67.4554 43.0564 66.9197 43.7191 66.9197H48.8449ZM26.6221 51.7518C25.9548 51.7518 25.419 51.216 25.419 50.5533C25.419 49.8904 25.9548 49.3502 26.6221 49.3502H28.6423C29.3052 49.3502 29.8408 49.8904 29.8408 50.5533C29.8408 51.2162 29.3051 51.7518 28.6423 51.7518H26.6221ZM53.3621 51.7518C52.6993 51.7518 52.159 51.216 52.159 50.5533C52.159 49.8904 52.6993 49.3502 53.3621 49.3502H55.3824C56.0451 49.3502 56.5808 49.8904 56.5808 50.5533C56.5808 51.2162 56.0451 51.7518 55.3824 51.7518H53.3621ZM46.675 51.7518C46.0121 51.7518 45.4765 51.216 45.4765 50.5533C45.4765 49.8904 46.0122 49.3502 46.675 49.3502H48.6952C49.3581 49.3502 49.8983 49.8904 49.8983 50.5533C49.8983 51.2162 49.3581 51.7518 48.6952 51.7518H46.675ZM39.9921 51.7518C39.3293 51.7518 38.789 51.216 38.789 50.5533C38.789 49.8904 39.3293 49.3502 39.9921 49.3502H42.0123C42.6752 49.3502 43.2108 49.8904 43.2108 50.5533C43.2108 51.2162 42.6751 51.7518 42.0123 51.7518H39.9921ZM33.3048 51.7518C32.6419 51.7518 32.1064 51.216 32.1064 50.5533C32.1064 49.8904 32.6421 49.3502 33.3048 49.3502H35.325C35.9879 49.3502 36.5281 49.8904 36.5281 50.5533C36.5281 51.2162 35.9879 51.7518 35.325 51.7518H33.3048ZM2.4017 47.0893V50.5532C2.4017 51.5021 2.79216 52.3692 3.42318 52.9955C4.04971 53.6266 4.9168 54.0125 5.86556 54.0125H76.1344C77.0879 54.0125 77.9549 53.6266 78.5815 52.9955C79.208 52.369 79.5985 51.5019 79.5985 50.5532V47.0893H2.4017ZM2.4017 31.7398H7.7679C8.03119 29.892 8.8938 28.2349 10.1513 26.9774C11.6767 25.4519 13.7834 24.5076 16.1122 24.5076C18.4412 24.5076 20.5477 25.4519 22.0732 26.9774C23.3308 28.2349 24.1934 29.892 24.4567 31.7398H28.8694C29.396 31.7398 29.8773 31.5173 30.2269 31.1679C30.5765 30.8184 30.7899 30.337 30.7899 29.8104V27.5494H26.0685C25.4056 27.5494 24.8699 27.0092 24.8699 26.3463V21.0437C24.157 20.7985 23.4035 20.5626 22.6317 20.331C18.2733 19.028 13.2614 18.1156 9.93818 17.9521C9.72469 18.7284 9.30716 19.4274 8.75334 19.9859C7.91348 20.8213 6.76036 21.3387 5.48904 21.3387H2.4017V23.9355H4.65798C5.32087 23.9355 5.85659 24.4759 5.85659 25.1386C5.85659 25.8013 5.32087 26.3371 4.65798 26.3371H2.4017V31.7398ZM2.4017 18.9374H5.48871C6.09699 18.9374 6.65097 18.6875 7.05504 18.2881C7.22305 18.1156 7.36366 17.9204 7.47273 17.7024C5.87918 17.2347 4.20843 16.0725 2.40154 14.7152L2.4017 18.9374ZM50.0435 29.6379C50.4567 29.1203 51.2058 29.0339 51.7233 29.4426C52.2454 29.8512 52.3317 30.6049 51.9231 31.1224L50.9425 32.3618L52.3227 32.9701C52.9265 33.2379 53.2034 33.9461 52.9356 34.55C52.8812 34.677 52.804 34.7906 52.7132 34.886L50.8338 37.2605C50.425 37.7826 49.6715 37.8688 49.1539 37.4602C48.6364 37.0517 48.5501 36.298 48.9586 35.7805L49.9393 34.5411L48.5592 33.9326C47.851 33.6194 47.6194 32.707 48.1052 32.094L50.0435 29.6379ZM16.1122 28.7072C17.2789 28.7072 18.3368 29.1794 19.1041 29.9467C19.8667 30.7093 20.3389 31.7672 20.3389 32.9339C20.3389 34.1006 19.8667 35.1585 19.1041 35.9258C18.3368 36.6884 17.2789 37.1651 16.1122 37.1651C14.9455 37.1651 13.8876 36.6884 13.1205 35.9258C12.3577 35.1585 11.8855 34.1006 11.8855 32.9339C11.8855 31.7672 12.3577 30.7093 13.1205 29.9467C13.8876 29.1794 14.9455 28.7072 16.1122 28.7072ZM17.4061 31.6445C17.0747 31.3131 16.6161 31.1088 16.1122 31.1088C15.6083 31.1088 15.1498 31.313 14.8229 31.6445C14.4916 31.9758 14.2872 32.4299 14.2872 32.9337C14.2872 33.4377 14.4914 33.8963 14.8229 34.2276C15.1498 34.559 15.6083 34.7634 16.1122 34.7634C16.6161 34.7634 17.0747 34.5592 17.4061 34.2276C17.733 33.8963 17.9372 33.4376 17.9372 32.9337C17.9372 32.4299 17.733 31.9758 17.4061 31.6445ZM20.3752 28.6753C19.2812 27.5812 17.7783 26.9095 16.1122 26.9095C14.4461 26.9095 12.9433 27.586 11.8492 28.6753C10.7596 29.765 10.0876 31.2723 10.0876 32.9337C10.0876 34.5998 10.7595 36.1072 11.8492 37.1968C12.9433 38.2863 14.4461 38.9628 16.1122 38.9628C17.7783 38.9628 19.2812 38.2863 20.3752 37.1968C21.4648 36.1072 22.1366 34.5998 22.1366 32.9337C22.1366 31.2723 21.4648 29.765 20.3752 28.6753Z" fill="#EE3428"/>
</svg>
