<svg width="57" height="77" viewBox="0 0 57 77" fill="none" xmlns="http://www.w3.org/2000/svg">
<g clip-path="url(#clip0_1378_48)">
<path d="M56.1319 21.0619C55.5465 20.5692 54.8084 20.3397 54.0543 20.4166L53.2005 20.5031V18.8635L54.5455 18.7274C56.1136 18.569 57.296 17.1107 57.1808 15.4764C57.1232 14.6593 56.7409 13.8967 56.1319 13.3843C55.5465 12.8916 54.8084 12.6626 54.0543 12.739L53.2005 12.8255V12.1953C53.2005 10.8662 52.1192 9.78487 50.7901 9.78487H50.3403V1.91162C50.3403 0.857527 49.4827 0 48.4288 0H45.4777C44.4236 0 43.5662 0.857678 43.5662 1.91162V9.78487H43.1164C41.7872 9.78487 40.7059 10.8662 40.7059 12.1953V14.089L39.2104 14.2403C37.6423 14.3987 36.46 15.857 36.5752 17.4913C36.6747 18.9002 37.6811 20.02 39.0228 20.2143C39.1538 20.2333 39.2862 20.2427 39.4195 20.2427C39.5135 20.2427 39.6075 20.2381 39.7016 20.2286L40.7059 20.1269V21.7665L39.2104 21.9178C37.6423 22.0761 36.46 23.5346 36.5752 25.1686C36.6744 26.5776 37.681 27.6974 39.0225 27.8917C39.1534 27.9107 39.2862 27.9202 39.4195 27.9202C39.5135 27.9202 39.6075 27.9155 39.7016 27.906L40.7061 27.8044V29.3547H40.6309C40.0072 29.3547 39.5019 29.8602 39.5019 30.4837V34.1075C39.5019 35.007 39.9862 35.7936 40.7062 36.2264V37.6993C40.7062 38.8288 41.5647 39.7609 42.6633 39.8792V43.8682C41.3819 44.6958 40.3877 45.8613 39.769 47.2114H34.4148V46.2471C34.4148 45.2978 33.6424 44.5256 32.6931 44.5256H29.701C29.5524 42.7977 28.0994 41.4367 26.3336 41.4367H25.014V28.2632C25.014 25.7524 22.9713 23.7095 20.4602 23.7095H5.55368C3.04276 23.7095 1 25.7523 1 28.2632V36.2796C1 36.9032 1.50531 37.4086 2.12898 37.4086C2.75265 37.4086 3.25797 36.9032 3.25797 36.2796V28.2634C3.25797 26.9977 4.28784 25.9678 5.55353 25.9678H6.89712V50.4891C6.89712 51.1127 7.40243 51.6181 8.0261 51.6181C8.64977 51.6181 9.15508 51.1127 9.15508 50.4891V25.9678H11.8779V37.9326C11.8779 38.5561 12.3832 39.0616 13.0068 39.0616C13.6305 39.0616 14.1358 38.5561 14.1358 37.9326V25.9678H16.8587V50.4891C16.8587 51.1127 17.364 51.6181 17.9876 51.6181C18.6113 51.6181 19.1166 51.1127 19.1166 50.4891V25.9678H20.4601C21.7259 25.9678 22.7558 26.9977 22.7558 28.2634V72.4465C22.7558 73.7122 21.7259 74.742 20.4601 74.742H19.1166V62.8445C19.1166 62.221 18.6113 61.7155 17.9876 61.7155C17.364 61.7155 16.8587 62.221 16.8587 62.8445V74.742H14.1358V50.2878C14.1358 49.6642 13.6305 49.1588 13.0068 49.1588C12.3832 49.1588 11.8779 49.6642 11.8779 50.2878V74.742H9.15508V62.8445C9.15508 62.221 8.64977 61.7155 8.0261 61.7155C7.40243 61.7155 6.89712 62.221 6.89712 62.8445V74.742H5.55368C4.28799 74.742 3.25812 73.7122 3.25812 72.4465V40.7957C3.25812 40.1722 2.7528 39.6667 2.12913 39.6667C1.50546 39.6667 1.00015 40.1722 1.00015 40.7957V72.4465C1 74.9572 3.04276 77 5.55368 77H20.4602C22.9711 77 25.014 74.9572 25.014 72.4463V59.5415H26.3336C28.0993 59.5415 29.5522 58.1806 29.701 56.4526H32.6931C33.6424 56.4526 34.4148 55.6803 34.4148 54.7311V53.7668H39.7576C41.0019 56.5016 43.7584 58.4086 46.9535 58.4086C51.3112 58.4086 54.8566 54.8633 54.8566 50.5054C54.8566 47.8021 53.4885 45.3181 51.2438 43.8683V39.8794C52.3424 39.7612 53.2008 38.8289 53.2008 37.6995V36.2265C53.9209 35.7937 54.4052 35.0072 54.4052 34.1077V30.4837C54.4052 29.8602 53.8999 29.3547 53.2762 29.3547H53.201V26.5408L54.5459 26.4047C56.1141 26.2463 57.2964 24.788 57.1812 23.1537C57.1232 22.3366 56.7409 21.5741 56.1319 21.0619ZM27.4561 56.1608C27.4561 56.78 26.9524 57.2835 26.3334 57.2835H25.0139V43.6946H26.3334C26.9524 43.6946 27.4561 44.1983 27.4561 44.8173V56.1608ZM32.1565 54.1948H29.714V46.7837H32.1565V54.1948ZM39.116 51.5088H34.4146V49.4693H39.1187C39.074 49.8098 39.0501 50.1556 39.0501 50.5054C39.05 50.8454 39.0742 51.1799 39.116 51.5088ZM45.8242 2.25812H48.0823V9.78502H45.8242V2.25812ZM43.1164 12.043H50.7904C50.8744 12.043 50.9427 12.1113 50.9427 12.1953V13.0539L42.9642 13.8608V12.1953C42.9642 12.1114 43.0323 12.043 43.1164 12.043ZM39.4751 17.9821C39.4311 17.9864 39.3879 17.9857 39.3469 17.9797C39.0698 17.9395 38.8515 17.6673 38.8279 17.3327C38.7982 16.9107 39.0774 16.5236 39.4378 16.4872L54.282 14.9858C54.3005 14.9839 54.3185 14.983 54.336 14.983C54.49 14.983 54.6056 15.0511 54.6778 15.112C54.8242 15.2352 54.913 15.4209 54.9281 15.6352C54.9577 16.0572 54.6786 16.4443 54.3181 16.4807L39.4751 17.9821ZM50.9426 19.0918V20.7313L42.9641 21.5382V19.8986L50.9426 19.0918ZM52.5984 50.5054C52.5984 53.6182 50.0661 56.1506 46.9532 56.1506C43.8402 56.1506 41.3079 53.6183 41.3079 50.5054C41.3079 48.4076 42.462 46.4945 44.3197 45.5124C44.6895 45.3169 44.9209 44.9327 44.9209 44.5143V39.8925H48.9854V44.5141C48.9854 44.9325 49.2168 45.3166 49.5866 45.5121C51.4444 46.4945 52.5984 48.4076 52.5984 50.5054ZM42.9641 37.6344V36.5806H50.9426V37.6344H42.9641ZM52.1469 34.1075C52.1469 34.226 52.0503 34.3224 51.932 34.3224H41.9746C41.8561 34.3224 41.7597 34.2259 41.7597 34.1075V31.6129H41.8349H52.0714H52.1469V34.1075ZM54.3184 24.1581L50.3773 24.5568C49.7569 24.6195 49.3048 25.1734 49.3675 25.7938C49.4301 26.4142 49.9831 26.8661 50.6045 26.8035L50.9424 26.7694V29.355H42.9639V27.5762L46.0884 27.2601C46.7088 27.1974 47.1608 26.6435 47.0981 26.0231C47.0356 25.4028 46.483 24.9506 45.8612 25.0134C45.8598 25.0136 45.7388 25.0258 45.7374 25.0259L39.475 25.6592C39.4311 25.6637 39.3881 25.6628 39.3464 25.6568C39.0694 25.6166 38.8513 25.3446 38.8279 25.0098C38.7982 24.5878 39.0774 24.2007 39.4378 24.1643L54.282 22.663C54.4634 22.6442 54.5975 22.7215 54.6781 22.7893C54.8245 22.9125 54.9133 23.0982 54.9284 23.3125C54.958 23.7346 54.6789 24.1219 54.3184 24.1581Z" fill="#EE3428"/>
</g>
<defs>
<clipPath id="clip0_1378_48">
<rect width="57" height="77" fill="white"/>
</clipPath>
</defs>
</svg>
