<?xml version="1.0" standalone="no"?>
<!DOCTYPE svg PUBLIC "-//W3C//DTD SVG 20010904//EN"
 "http://www.w3.org/TR/2001/REC-SVG-20010904/DTD/svg10.dtd">
<svg version="1.0" xmlns="http://www.w3.org/2000/svg"
 width="141.000000pt" height="44.000000pt" viewBox="0 0 141.000000 44.000000"
 preserveAspectRatio="xMidYMid meet">

<g transform="translate(0.000000,44.000000) scale(0.100000,-0.100000)"
fill="#ee3428" stroke="none">
<path d="M0 220 l0 -220 705 0 705 0 0 220 0 220 -705 0 -705 0 0 -220z m111
53 c18 -58 21 -59 38 -12 12 32 23 45 39 47 27 4 27 4 -6 -88 -23 -65 -30 -75
-51 -75 -20 0 -27 10 -51 77 -15 43 -25 80 -22 83 17 17 42 2 53 -32z m279
-28 c0 -37 4 -65 10 -65 6 0 10 -9 10 -20 0 -13 -7 -20 -18 -20 -33 0 -42 22
-42 97 0 66 2 73 20 73 18 0 20 -7 20 -65z m71 18 c0 -47 1 -47 16 -25 9 12
26 22 39 22 24 0 24 -1 8 -25 -15 -22 -15 -29 -4 -51 12 -21 16 -23 28 -10 10
10 11 19 4 32 -21 37 2 53 73 53 62 -1 65 -2 72 -27 l7 -27 6 25 c8 33 50 42
50 11 0 -12 5 -21 10 -21 6 0 10 9 10 20 0 15 7 20 26 20 19 0 24 -4 20 -17
-2 -10 -10 -37 -17 -60 -10 -34 -17 -43 -35 -43 -15 0 -25 8 -30 22 l-7 23 -8
-23 c-6 -17 -15 -22 -31 -20 -17 2 -26 15 -38 58 -14 48 -17 53 -27 36 -8 -14
-8 -25 0 -38 22 -35 -3 -53 -75 -55 -62 -1 -66 0 -79 25 l-13 27 -4 -27 c-2
-20 -9 -28 -23 -28 -17 0 -19 8 -19 85 0 78 2 85 20 85 17 0 20 -7 21 -47z
m-132 -37 c12 -25 11 -31 -6 -55 -26 -34 -74 -40 -102 -12 -46 46 -14 104 53
99 34 -2 43 -8 55 -32z m599 22 c7 -7 12 -33 12 -59 l0 -48 -42 1 c-24 0 -49
5 -55 10 -18 14 -16 47 2 54 12 5 13 10 4 20 -6 7 -8 18 -4 24 9 14 68 13 83
-2z m152 -50 c0 -76 -16 -98 -72 -98 -32 0 -38 3 -38 21 0 17 4 20 24 15 15
-4 28 -1 32 6 5 8 2 9 -10 5 -11 -4 -26 2 -42 18 -28 28 -30 42 -8 73 12 18
25 22 65 22 l49 0 0 -62z m119 44 c5 -9 9 -34 8 -55 -1 -31 -5 -39 -25 -44
-63 -15 -111 41 -78 91 20 32 79 37 95 8z m139 -44 c3 -53 1 -58 -18 -58 -17
0 -20 6 -20 40 0 29 -4 40 -15 40 -11 0 -15 -11 -15 -40 0 -36 -2 -40 -25 -40
-24 0 -25 3 -25 60 l0 61 58 -3 57 -3 3 -57z"/>
<path d="M256 223 c-3 -4 -6 -15 -6 -25 0 -24 33 -21 38 3 3 17 -21 33 -32 22z"/>
<path d="M1004 216 c-6 -17 2 -36 17 -36 12 0 12 37 -1 45 -6 3 -13 -1 -16 -9z"/>
<path d="M1153 183 c9 -2 23 -2 30 0 6 3 -1 5 -18 5 -16 0 -22 -2 -12 -5z"/>
</g>
</svg>
