<svg xmlns="http://www.w3.org/2000/svg" viewBox="0 0 86.84 67.54"><defs><style>.cls-1{fill:#0063af;}</style></defs><g id="Слой_2" data-name="Слой 2"><g id="УТП"><g id="Group_8" data-name="Group 8"><g id="Shape_666" data-name="Shape 666"><path class="cls-1" d="M0,10.37H14.08V66.58H26.44V0H0ZM80.09,31.25q-6.75-5.47-20.83-5.47H52.89l1.42-15.41H82.94V0H43.85L40.43,36.24H56.5q9.8,0,13.84,2.62a8.61,8.61,0,0,1,4,7.75,8.72,8.72,0,0,1-3.75,7.47q-3.76,2.7-10.32,2.71A33.22,33.22,0,0,1,49.6,55a28.25,28.25,0,0,1-8.89-4.81l-5.23,9.61A33.79,33.79,0,0,0,46.7,65.49a46.86,46.86,0,0,0,13.8,2.05,33.27,33.27,0,0,0,14.55-2.86A19.75,19.75,0,0,0,86.84,46.13Q86.84,36.72,80.09,31.25Z"/></g></g></g></g></svg>