<svg xmlns="http://www.w3.org/2000/svg" viewBox="0 0 90.79 81.64"><defs><style>.cls-1{fill:#0063af;}</style></defs><g id="Слой_2" data-name="Слой 2"><g id="УТП"><g id="Group_6" data-name="Group 6"><g id="_1_5_copy_3" data-name="1,5 copy 3"><path class="cls-1" d="M33,37.9Q38.3,31.9,38.3,22T33,6a17.7,17.7,0,0,0-13.9-6A17.44,17.44,0,0,0,5.26,6.06Q0,12.12,0,22t5.26,15.9a17.44,17.44,0,0,0,13.83,6.06A17.68,17.68,0,0,0,33,37.9ZM12,32.19Q9.27,28.47,9.26,22T12,11.72A8.39,8.39,0,0,1,19.09,8a8.38,8.38,0,0,1,7.27,3.66Q28.93,15.32,28.93,22T26.36,32.24a8.38,8.38,0,0,1-7.27,3.66A8.38,8.38,0,0,1,12,32.19Zm73.52,11.6a17.6,17.6,0,0,0-13.89-6.06,17.44,17.44,0,0,0-13.84,6.06q-5.25,6.06-5.26,15.9t5.26,15.89a17.44,17.44,0,0,0,13.84,6.06,17.6,17.6,0,0,0,13.89-6.06q5.31-6.06,5.32-15.89T85.47,43.79ZM78.78,69.92A8.88,8.88,0,0,1,64.37,70q-2.63-3.66-2.63-10.29T64.37,49.4a8.89,8.89,0,0,1,14.41.05q2.63,3.72,2.63,10.24T78.78,69.92ZM67.12.8l-54.66,80H23.67L78.32.8Z"/></g></g></g></g></svg>