<svg xmlns="http://www.w3.org/2000/svg" viewBox="0 0 80.71 98.65"><defs><style>.cls-1{fill:#0063af;}</style></defs><g id="Слой_2" data-name="Слой 2"><g id="УТП"><g id="Group_7_copy" data-name="Group 7 copy"><g id="Shape_666" data-name="Shape 666"><path class="cls-1" d="M59.49,66.58,55.4,76.5l1.48-.31L61,66.27Zm-2.76,4.8A2.88,2.88,0,0,0,56,67.9a2,2,0,0,0-1.68-.33,2.08,2.08,0,0,0-1.42,1,2.54,2.54,0,0,0-.23,1.87,2.49,2.49,0,0,0,1,1.61,2.23,2.23,0,0,0,3.1-.65Zm-1-.53a.78.78,0,0,1-.59.49.78.78,0,0,1-.73-.22,1.8,1.8,0,0,1-.46-1,1.88,1.88,0,0,1,0-1.07.8.8,0,0,1,.58-.49.78.78,0,0,1,.74.21,1.83,1.83,0,0,1,.46,1A1.9,1.9,0,0,1,55.69,70.85Zm7.05-.11a2.07,2.07,0,0,0-1.69-.32,2.18,2.18,0,0,0-1,.52,2.07,2.07,0,0,0-.59,1,2.93,2.93,0,0,0,0,1.32A3.13,3.13,0,0,0,60,74.47a2,2,0,0,0,.94.67,2.1,2.1,0,0,0,1.17.06,2.08,2.08,0,0,0,1.42-1,2.89,2.89,0,0,0-.74-3.48Zm-.3,3a.77.77,0,0,1-.59.49.78.78,0,0,1-.73-.2,1.84,1.84,0,0,1-.47-1,1.91,1.91,0,0,1,0-1.08A.82.82,0,0,1,62,71.65a1.8,1.8,0,0,1,.46,1A1.89,1.89,0,0,1,62.44,73.69ZM72.54,0,0,6.39,8.17,98.65l72.54-6.39ZM6.05,11.57,67.37,6.05l7.29,81L13.34,92.6Zm64.52,58.9a12.69,12.69,0,1,0-11.5,13.78A12.7,12.7,0,0,0,70.57,70.47ZM58.92,82.63a11.06,11.06,0,1,1,10-12A11.07,11.07,0,0,1,58.92,82.63ZM57,61.5a10.15,10.15,0,1,0,11,9.2A10.17,10.17,0,0,0,57,61.5Zm1.67,18.6a8.52,8.52,0,1,1,7.73-9.25A8.54,8.54,0,0,1,58.69,80.1ZM66,28.87,12.23,33.71l.14,1.62,53.79-4.84Zm.42,4.58L12.64,38.29l.14,1.62,53.79-4.84ZM66.84,38,13.05,42.87l.15,1.62L67,39.65Zm.41,4.59L13.46,47.46l.15,1.62L67.4,44.24Zm-9.14,5.44L13.88,52,14,53.66l44.24-4Zm.42,4.58-44.24,4,.14,1.62,44.24-4ZM15.7,72.29l.14,1.62,11.1-1-.14-1.62Zm12-46.44A3.41,3.41,0,0,0,29.14,27a4.06,4.06,0,0,0,2,.3,4.11,4.11,0,0,0,1.56-.45,3,3,0,0,0,1.14-1l-.92-.73a2.5,2.5,0,0,1-1.82,1,2.69,2.69,0,0,1-1.33-.2,2.34,2.34,0,0,1-1-.81,2.69,2.69,0,0,1-.23-2.56,2.34,2.34,0,0,1,.82-1,2.6,2.6,0,0,1,1.28-.43,2.49,2.49,0,0,1,2,.65l.78-.87a3.39,3.39,0,0,0-1.29-.77,4.11,4.11,0,0,0-1.62-.16,4,4,0,0,0-1.89.64,3.53,3.53,0,0,0-1.24,1.42A3.64,3.64,0,0,0,27,24,3.55,3.55,0,0,0,27.67,25.85Zm-7.09,3.84-.14-1.5,5.43-.49L26,29.2l1.21-.11L27,26.48l-1,.09-.53-6-5.19.47.12,2.25a12.26,12.26,0,0,1-.08,2.77c-.12.65-.4,1-.85,1.07l-.3,0,.22,2.62Zm.94-6.35-.06-1.26,2.77-.25.44,4.85L21.08,27a2.59,2.59,0,0,0,.43-1.36A15.85,15.85,0,0,0,21.52,23.34Zm-8.35,2.44,3.66-.33.27,3,1.31-.12-.63-7.08-1.32.12.27,2.92-3.66.33-.26-2.92-1.32.12.64,7.07,1.31-.11Z"/></g></g></g></g></svg>