<svg xmlns="http://www.w3.org/2000/svg" viewBox="0 0 90.3 90.3"><defs><style>.cls-1{fill:#0063af;}</style></defs><g id="Слой_2" data-name="Слой 2"><g id="УТП"><g id="Group_9" data-name="Group 9"><g id="Shape_666" data-name="Shape 666"><path class="cls-1" d="M39.71,39.68H52.07L40.25,66.2H46.5L58.72,38.65V34.74H34.27V45h5.44ZM73,0H17.28A17.3,17.3,0,0,0,0,17.28V73A17.3,17.3,0,0,0,17.28,90.3H73A17.3,17.3,0,0,0,90.3,73V17.28A17.3,17.3,0,0,0,73,0ZM83.3,73A10.29,10.29,0,0,1,73,83.3H17.28A10.29,10.29,0,0,1,7,73V21.39H83.3Z"/></g></g></g></g></svg>