<svg xmlns="http://www.w3.org/2000/svg" viewBox="0 0 90.29 90.29"><defs><style>.cls-1{fill:#0062ae;}</style></defs><g id="Слой_2" data-name="Слой 2"><g id="УТП"><g id="Group_7_copy_2" data-name="Group 7 copy 2"><g id="Shape_666" data-name="Shape 666"><path class="cls-1" d="M87.19,28.71h0A45,45,0,0,0,66.73,5.49h0c-.71-.38-1.43-.74-2.15-1.09l-.64-.28c-.51-.24-1-.48-1.55-.69l-.77-.3c-.49-.19-1-.38-1.46-.55l-.86-.29-1.37-.44-1-.27-1.27-.32L54.58,1,53.46.77,52.2.56,51.28.42c-.48-.06-1-.13-1.46-.18l-.62,0C48.61.13,48,.09,47.44.06h-.1a45.17,45.17,0,0,0-18.63,3v0A44.86,44.86,0,0,0,5.49,23.56h0a42.85,42.85,0,0,0-2,4.16A44.75,44.75,0,0,0,.05,47.13c0,.15,0,.3,0,.44A44.6,44.6,0,0,0,.71,53c.09.55.2,1.1.32,1.65.16.72.33,1.44.52,2.16s.47,1.64.73,2.45A44.94,44.94,0,0,0,23.55,84.8h0A45.21,45.21,0,0,0,84.8,66.73h0c.38-.71.75-1.43,1.09-2.15l.29-.63c.23-.52.47-1,.69-1.57l.3-.76c.19-.49.38-1,.55-1.46.1-.29.19-.58.28-.86.16-.46.31-.92.44-1.38s.18-.64.27-1,.23-.86.33-1.28.17-.73.24-1.09.16-.75.23-1.13.15-.83.22-1.25.09-.62.13-.93c.07-.48.13-1,.18-1.45l.06-.64c.05-.58.1-1.16.13-1.74v-.12A45,45,0,0,0,87.19,28.71ZM83.24,47v.13c0,.48-.07,1-.11,1.45,0,.19,0,.37,0,.56,0,.4-.09.81-.15,1.21s-.07.53-.11.8-.12.7-.19,1-.12.65-.19,1-.13.61-.2.91-.19.73-.29,1.09-.14.54-.22.8-.24.79-.37,1.18l-.24.72c-.15.41-.31.83-.47,1.24-.08.21-.16.43-.25.64-.19.44-.39.89-.59,1.33-.08.17-.15.35-.23.52-.3.62-.61,1.22-.93,1.82A38.15,38.15,0,1,1,47,7h.09c.49,0,1,.06,1.48.11l.52,0,1.24.16.78.11,1.06.18.95.19.92.21,1.08.28.81.23c.39.11.78.24,1.17.37l.73.24c.41.14.82.3,1.22.46l.66.26c.44.18.88.38,1.32.58l.53.24c.61.29,1.22.6,1.82.93A38.18,38.18,0,0,1,83.24,47ZM56.75,24.37Q51.53,22,43.6,23.72L27.27,27.35l6.62,29.83-5.67,1.26.88,4,5.67-1.26L36.08,67l7.38-1.63-1.31-5.9,12.47-2.77-.88-4L41.26,55.54l-.71-3.23,9-2q7.93-1.77,11.63-6.16T63.4,33.31Q62,26.79,56.75,24.37Zm-2,16.55q-2.05,2.44-6.58,3.46l-8.91,2L36,32l8.9-2c3.06-.68,5.54-.58,7.44.28A6.4,6.4,0,0,1,56,35,6.51,6.51,0,0,1,54.71,40.92Z"/></g></g></g></g></svg>