<svg xmlns="http://www.w3.org/2000/svg" viewBox="0 0 90.3 95.15"><defs><style>.cls-1{fill:#0063af;}</style></defs><g id="Слой_2" data-name="Слой 2"><g id="УТП"><g id="Group_5" data-name="Group 5"><g id="Shape_657" data-name="Shape 657"><path class="cls-1" d="M31.58,48.53,19.36,60.14V64H42.05V59.12H27.54l8.22-7.82a18.33,18.33,0,0,0,4-5,10.61,10.61,0,0,0,1.06-4.7,7.81,7.81,0,0,0-3-6.46,12.46,12.46,0,0,0-8-2.38A16.9,16.9,0,0,0,23,34.08a11.89,11.89,0,0,0-4.86,3.76l4,3.08a8.61,8.61,0,0,1,7.21-3.21,6.82,6.82,0,0,1,4.27,1.14,4,4,0,0,1,1.45,3.3,6.47,6.47,0,0,1-.73,2.92A13.18,13.18,0,0,1,31.58,48.53ZM66.76,64V57h5.45V52.13H66.76v-6.2H61.4v6.2H51.33l14.29-19H59.51L44.34,53v4H61.22v7ZM87.2,33.57l-6.52,2.55a38.16,38.16,0,1,1-17.8-19.88l-.23,1.6-4.9,9L81,22.11,72.37,0l-5,9.09-1.18,1a45.12,45.12,0,1,0,21,23.47Z"/></g></g></g></g></svg>