<svg xmlns="http://www.w3.org/2000/svg" viewBox="0 0 27.96 27.96"><defs><style>.cls-1{fill:#fff;}</style></defs><g id="Слой_2" data-name="Слой 2"><g id="Подвал"><g id="Соцсети"><g id="Инста"><g id="Rectangle_609" data-name="Rectangle 609"><path class="cls-1" d="M27.88,8.22a10.5,10.5,0,0,0-.65-3.4A7.18,7.18,0,0,0,23.14.73,10.49,10.49,0,0,0,19.75.08C18.26,0,17.78,0,14,0S9.71,0,8.22.08a10.5,10.5,0,0,0-3.4.65A6.79,6.79,0,0,0,2.35,2.35,6.79,6.79,0,0,0,.73,4.82a10.5,10.5,0,0,0-.65,3.4C0,9.71,0,10.18,0,14s0,4.27.08,5.77a10.49,10.49,0,0,0,.65,3.39,7.18,7.18,0,0,0,4.09,4.09,10.24,10.24,0,0,0,3.4.65c1.49.07,2,.08,5.76.08s4.28,0,5.77-.08a10.23,10.23,0,0,0,3.39-.65,7.11,7.11,0,0,0,4.09-4.09,10.49,10.49,0,0,0,.65-3.39c.07-1.5.08-2,.08-5.77S28,9.71,27.88,8.22Zm-2.5,11.42a7.7,7.7,0,0,1-.48,2.6,4.67,4.67,0,0,1-2.66,2.66,7.7,7.7,0,0,1-2.6.48c-1.48.07-1.92.08-5.66.08s-4.18,0-5.66-.08a7.82,7.82,0,0,1-2.6-.48,4.45,4.45,0,0,1-1.61-1,4.3,4.3,0,0,1-1-1.61,7.63,7.63,0,0,1-.49-2.6C2.52,18.16,2.5,17.72,2.5,14s0-4.18.08-5.66a7.75,7.75,0,0,1,.49-2.6,4.3,4.3,0,0,1,1-1.61,4.3,4.3,0,0,1,1.61-1,7.75,7.75,0,0,1,2.6-.49C9.8,2.52,10.24,2.5,14,2.5s4.18,0,5.66.08a7.63,7.63,0,0,1,2.6.49,4.3,4.3,0,0,1,1.61,1,4.45,4.45,0,0,1,1,1.61,7.82,7.82,0,0,1,.48,2.6c.07,1.48.08,1.92.08,5.66S25.45,18.16,25.38,19.64ZM14,6.81A7.18,7.18,0,1,0,21.16,14,7.17,7.17,0,0,0,14,6.81Zm0,11.84A4.67,4.67,0,1,1,18.65,14,4.67,4.67,0,0,1,14,18.65ZM21.43,4.86a1.68,1.68,0,1,0,1.68,1.67A1.67,1.67,0,0,0,21.43,4.86Z"/></g></g></g></g></g></svg>