<svg xmlns="http://www.w3.org/2000/svg" viewBox="0 0 27.94 27.94"><defs><style>.cls-1{fill:#fff;}</style></defs><g id="Слой_2" data-name="Слой 2"><g id="Подвал"><g id="Соцсети"><g id="Shape_1_copy_2" data-name="Shape 1 copy 2"><path class="cls-1" d="M18.26,0H9.69C1.86,0,0,1.86,0,9.69v8.57c0,7.82,1.86,9.68,9.69,9.68h8.57c7.82,0,9.68-1.86,9.68-9.68V9.69C27.94,1.86,26.08,0,18.26,0ZM14,22.94a8.92,8.92,0,0,1-4.38-1.15L5,23l1.26-4.47A9,9,0,1,1,14,22.94ZM14,6.5A7.45,7.45,0,0,0,7.75,18l.18.29-.72,2.58,2.66-.69.28.17A7.46,7.46,0,1,0,14,6.5ZM18.5,16.69a1.83,1.83,0,0,1-.82,1.19,2.47,2.47,0,0,1-2.1.26,9.46,9.46,0,0,1-5.09-3.7,4,4,0,0,1-.94-3.18,2.7,2.7,0,0,1,.87-1.34.71.71,0,0,1,.5-.17l.58,0a.3.3,0,0,1,.26.18l.85,2a.27.27,0,0,1,0,.31l-.74.86a.21.21,0,0,0,0,.25,6,6,0,0,0,3.27,2.8.23.23,0,0,0,.25-.07l.77-1a.3.3,0,0,1,.37-.09l2,.9a.3.3,0,0,1,.17.34Z"/></g></g></g></g></svg>