<svg xmlns="http://www.w3.org/2000/svg" width="68.027" height="130.852" viewBox="0 0 68.027 130.852"><g transform="matrix(0, -1, 1, 0, -92.985, 815.629)"><path d="M814.939,143.487l.183,1.58-.071.44h-7.781l-.254-1.97.254-.03h7.507Z" fill="#f29100"/><path d="M815.05,145.507l-.943,6-13.5,3.94a9.742,9.742,0,0,0,1.329-4.94,9.857,9.857,0,0,0-1.359-5H815.05Z" fill="#3c3c3b"/><path d="M774.106,133.507l-.578-3.44,2.029-24.561h25.656l7.822,5.56.1.41-.1.03H785.7v10l27.391,6,.051-.01,1.349,12.011H806.5l.517,4.03.254,1.97h-6.7a10.172,10.172,0,0,0-18.93,5c0,.34.02.67.051,1h-.051l-5.072-3.44Z" fill="#86bbe6"/><path d="M813.092,127.066l.051.43-.051.01-27.391-6v-10h23.333l.1-.03Z"/><path d="M800.6,155.448a10.213,10.213,0,0,1-17.6.06,9.824,9.824,0,0,1-1.309-4c-.03-.33-.051-.66-.051-1a10.172,10.172,0,0,1,18.93-5,9.857,9.857,0,0,1,1.359,5A9.742,9.742,0,0,1,800.6,155.448Zm-3.743-4.94a5.073,5.073,0,1,0-5.072,5A5.039,5.039,0,0,0,796.861,150.508Z" fill="#3c3c3b"/><path d="M791.789,145.507a5,5,0,1,1-5.072,5A5.039,5.039,0,0,1,791.789,145.507Zm3.043,5a3.044,3.044,0,1,0-3.043,3A3.018,3.018,0,0,0,794.832,150.508Z" fill="#bd1622"/><ellipse cx="3.043" cy="3" rx="3.043" ry="3" transform="translate(788.745 147.508)"/><path d="M783,155.508h-43.3a9.857,9.857,0,0,0,1.359-5,10.146,10.146,0,0,0-20.289,0,9.858,9.858,0,0,0,1.359,5h-5.762a9.857,9.857,0,0,0,1.359-5,10.159,10.159,0,0,0-15.471-8.5l-2.141-6.5h63.952l.385-2h9.648l2.465,14.561,5.072,3.44h.051A9.824,9.824,0,0,0,783,155.508Zm-11-3v-3H744.616v3Zm0-7v-3H744.616v3Z"/><path d="M764.459,133.507l-.385,2H690.849l6.087-32h62.075l.943-5,.385-2h20.289l-1.014,4.5h-8.968Z" fill="#f29100"/><rect width="27.391" height="3" transform="translate(744.616 149.508)" fill="#3c3c3b"/><rect width="27.391" height="3" transform="translate(744.616 142.507)" fill="#3c3c3b"/><path d="M759.955,98.505l-.943,5h-58.89l11.524-5,38.55-5Z" fill="#c7e0f6"/><path d="M739.706,155.508a10.218,10.218,0,0,1-17.57,0,9.858,9.858,0,0,1-1.359-5,10.146,10.146,0,0,1,20.289,0A9.857,9.857,0,0,1,739.706,155.508Zm-3.713-5a5.073,5.073,0,1,0-5.072,5A5.039,5.039,0,0,0,735.993,150.508Z" fill="#3c3c3b"/><path d="M730.921,145.507a5,5,0,1,1-5.072,5A5.039,5.039,0,0,1,730.921,145.507Zm3.043,5a3.044,3.044,0,1,0-3.043,3A3.018,3.018,0,0,0,733.964,150.508Z" fill="#bd1622"/><ellipse cx="3.043" cy="3" rx="3.043" ry="3" transform="translate(727.877 147.508)"/><path d="M716.373,155.508a10.172,10.172,0,0,1-18.93-5,9.939,9.939,0,0,1,4.819-8.5,10.159,10.159,0,0,1,15.471,8.5A9.857,9.857,0,0,1,716.373,155.508Zm-3.713-5a5.073,5.073,0,1,0-5.072,5A5.039,5.039,0,0,0,712.66,150.508Z" fill="#3c3c3b"/><path d="M707.588,145.507a5,5,0,1,1-5.072,5A5.039,5.039,0,0,1,707.588,145.507Zm3.043,5a3.044,3.044,0,1,0-3.043,3A3.018,3.018,0,0,0,710.631,150.508Z" fill="#bd1622"/><ellipse cx="3.043" cy="3" rx="3.043" ry="3" transform="translate(704.545 147.508)"/><path d="M739.544,155.508h43.622" fill="none" stroke="#000" stroke-miterlimit="10" stroke-width="1.014"/><path d="M716.211,155.508H722.3" fill="none" stroke="#000" stroke-miterlimit="10" stroke-width="1.014"/><path d="M702.262,142.007a10.159,10.159,0,0,1,15.471,8.5,9.857,9.857,0,0,1-1.359,5,10.172,10.172,0,0,1-18.93-5A9.939,9.939,0,0,1,702.262,142.007Z" fill="none" stroke="#000" stroke-miterlimit="10" stroke-width="1.007"/><ellipse cx="5.072" cy="5" rx="5.072" ry="5" transform="translate(702.516 145.507)" fill="none" stroke="#000" stroke-miterlimit="10" stroke-width="1.007"/><ellipse cx="3.043" cy="3" rx="3.043" ry="3" transform="translate(704.545 147.508)" fill="none" stroke="#000" stroke-miterlimit="10" stroke-width="1.007"/><ellipse cx="3.043" cy="3" rx="3.043" ry="3" transform="translate(727.877 147.508)" fill="none" stroke="#000" stroke-miterlimit="10" stroke-width="1.007"/><ellipse cx="3.043" cy="3" rx="3.043" ry="3" transform="translate(788.745 147.508)" fill="none" stroke="#000" stroke-miterlimit="10" stroke-width="1.007"/><ellipse cx="5.072" cy="5" rx="5.072" ry="5" transform="translate(725.848 145.507)" fill="none" stroke="#000" stroke-miterlimit="10" stroke-width="1.007"/><ellipse cx="5.072" cy="5" rx="5.072" ry="5" transform="translate(786.716 145.507)" fill="none" stroke="#000" stroke-miterlimit="10" stroke-width="1.007"/><path d="M722.135,155.508a9.858,9.858,0,0,1-1.359-5,10.146,10.146,0,0,1,20.289,0,9.857,9.857,0,0,1-1.359,5,10.218,10.218,0,0,1-17.57,0Z" fill="none" stroke="#000" stroke-miterlimit="10" stroke-width="1.007"/><path d="M800.574,145.507a9.857,9.857,0,0,1,1.359,5,9.742,9.742,0,0,1-1.329,4.94,10.213,10.213,0,0,1-17.6.06,9.824,9.824,0,0,1-1.309-4c-.03-.33-.051-.66-.051-1a10.172,10.172,0,0,1,18.93-5Z" fill="none" stroke="#000" stroke-miterlimit="10" stroke-width="1.007"/><path d="M756.79,135.507h-65.94l6.087-32h62.075l.943-5,.385-2h20.289l-1.014,4.5h-8.968l-6.188,32.5-.385,2H756.79" fill="none" stroke="#000" stroke-miterlimit="10" stroke-width="1.007"/><line y1="13.001" x2="2.536" transform="translate(689.328 103.505)" fill="none" stroke="#000" stroke-miterlimit="10" stroke-width="1.007"/><line y1="7" x2="1.522" transform="translate(685.27 103.505)" fill="none" stroke="#000" stroke-miterlimit="10" stroke-width="1.007"/><line y1="23.001" x2="4.382" transform="translate(702.861 108.006)" fill="none" stroke="#000" stroke-miterlimit="10" stroke-width="1.007"/><line y1="23.001" x2="4.382" transform="translate(710.976 108.006)" fill="none" stroke="#000" stroke-miterlimit="10" stroke-width="1.007"/><line y1="23.001" x2="4.382" transform="translate(719.092 108.006)" fill="none" stroke="#000" stroke-miterlimit="10" stroke-width="1.007"/><line y1="23.001" x2="4.382" transform="translate(727.208 108.006)" fill="none" stroke="#000" stroke-miterlimit="10" stroke-width="1.007"/><line y1="23.001" x2="4.382" transform="translate(735.324 108.006)" fill="none" stroke="#000" stroke-miterlimit="10" stroke-width="1.007"/><line y1="23.001" x2="4.382" transform="translate(743.439 108.006)" fill="none" stroke="#000" stroke-miterlimit="10" stroke-width="1.007"/><line y1="23.001" x2="4.382" transform="translate(751.555 108.006)" fill="none" stroke="#000" stroke-miterlimit="10" stroke-width="1.007"/><path d="M800.411,155.508l.193-.06,13.5-3.94.943-6,.071-.44-.183-1.58-.446-3.98L813.143,127.5l-.051-.43-3.956-15.591-.1-.41-7.822-5.56H775.557l-2.029,24.561.578,3.44,2.465,14.561,5.072,3.44" fill="none" stroke="#000" stroke-miterlimit="10" stroke-width="1.007"/><path d="M809.034,111.506H785.7v10l27.391,6" fill="none" stroke="#000" stroke-miterlimit="10" stroke-width="1.007"/><path d="M815.121,145.507H800.574" fill="none" stroke="#000" stroke-miterlimit="10" stroke-width="1.014"/><path d="M814.614,139.507H806.5l.517,4.03.254,1.97" fill="none" stroke="#000" stroke-miterlimit="10" stroke-width="1.007"/><line x2="7.507" transform="translate(807.269 143.507)" fill="none" stroke="#000" stroke-miterlimit="10" stroke-width="1.014"/><line x1="2.141" y1="6.5" transform="translate(700.122 135.507)" fill="none" stroke="#000" stroke-miterlimit="10" stroke-width="1.007"/><rect width="27.391" height="3" transform="translate(744.616 142.507)" fill="none" stroke="#000" stroke-miterlimit="10" stroke-width="1.007"/><rect width="27.391" height="3" transform="translate(744.616 149.508)" fill="none" stroke="#000" stroke-miterlimit="10" stroke-width="1.007"/><path d="M700.122,103.505l11.524-5,38.55-5,9.759,5" fill="none" stroke="#000" stroke-miterlimit="10" stroke-width="1.007"/><path d="M764.4,133.507h10.145" fill="none" stroke="#000" stroke-miterlimit="10" stroke-width="1.014"/></g></svg>