<svg xmlns="http://www.w3.org/2000/svg" viewBox="0 0 27.94 27.94"><defs><style>.cls-1{fill:#fff;}</style></defs><g id="Слой_2" data-name="Слой 2"><g id="Подвал"><g id="Соцсети"><g id="Shape_1_copy" data-name="Shape 1 copy"><path class="cls-1" d="M17.41,12.55a.74.74,0,0,0,0,.26.3.3,0,0,0,.57,0,.69.69,0,0,0,0-.18c0-.19,0-.33,0-.46L18,12a3.52,3.52,0,0,0-1.92-2.74,4.2,4.2,0,0,0-1.74-.45.28.28,0,0,0-.31.28.29.29,0,0,0,.27.33l.46.06a3.31,3.31,0,0,1,1,.31A3,3,0,0,1,17,10.94,3.14,3.14,0,0,1,17.41,12.55ZM18.26,0H9.69C1.86,0,0,1.86,0,9.69v8.57c0,7.82,1.86,9.68,9.69,9.68h8.57c7.82,0,9.68-1.86,9.68-9.68V9.69C27.94,1.86,26.08,0,18.26,0Zm4.3,17.06A5.7,5.7,0,0,1,19,20.52a26.46,26.46,0,0,1-5.68.46.12.12,0,0,0-.1,0L11.4,22.84,9.52,24.77a.22.22,0,0,1-.38-.15v-4A.14.14,0,0,0,9,20.52H9a5.71,5.71,0,0,1-3.6-3.46,18.94,18.94,0,0,1,0-8.14A5.71,5.71,0,0,1,9,5.46a26.32,26.32,0,0,1,9.93,0,5.7,5.7,0,0,1,3.61,3.46A18.94,18.94,0,0,1,22.56,17.06ZM14,7.36h-.16a.33.33,0,0,0-.32.37c0,.23.29.24.48.26s.61,0,.9.1a4.76,4.76,0,0,1,3.83,4c.05.38.07.76.1,1.13,0,.19.1.37.32.37a.32.32,0,0,0,.3-.38c0-.45-.07-.91-.15-1.36A5.39,5.39,0,0,0,14,7.36Zm3.87,8.3c-.32-.23-.65-.45-1-.66a.87.87,0,0,0-1,0c-.31.26-.46.76-.91.81a1.45,1.45,0,0,1-.74-.18,5.12,5.12,0,0,1-2.88-3.19.64.64,0,0,1,0-.57,1.26,1.26,0,0,1,.22-.24,3.4,3.4,0,0,1,.3-.23.92.92,0,0,0,.26-1.24,11.48,11.48,0,0,0-1.38-1.93.71.71,0,0,0-.89-.21,3.24,3.24,0,0,0-1.11.83,1.43,1.43,0,0,0-.42,1.41c.23.56.45,1.11.71,1.65a14.25,14.25,0,0,0,2.06,3.15,14.17,14.17,0,0,0,5.39,3.6,5,5,0,0,0,.62.19,3.17,3.17,0,0,0,.57-.18A3,3,0,0,0,19,17.27a.75.75,0,0,0-.22-.91C18.5,16.11,18.18,15.89,17.87,15.66Zm-1.49-3.13h0a.26.26,0,0,0,.23-.22.7.7,0,0,0,0-.25,1.82,1.82,0,0,0-1.87-1.82.32.32,0,0,0-.34.25.3.3,0,0,0,.25.35c.16,0,.33,0,.5.08a1.14,1.14,0,0,1,.35.17,1.17,1.17,0,0,1,.44.69,3.21,3.21,0,0,1,.07.43.33.33,0,0,0,.36.32Z"/></g></g></g></g></svg>