<svg xmlns="http://www.w3.org/2000/svg" viewBox="0 0 27.97 27.97"><defs><style>.cls-1{fill:#fff;}</style></defs><g id="Слой_2" data-name="Слой 2"><g id="Подвал"><g id="Соцсети"><g id="Shape_1" data-name="Shape 1"><path class="cls-1" d="M18.27,0H9.7C1.86,0,0,1.86,0,9.7v8.57C0,26.1,1.86,28,9.7,28h8.57c7.83,0,9.7-1.87,9.7-9.7V9.7C28,1.86,26.1,0,18.27,0Zm4.31,20h-2c-.78,0-1-.62-2.39-2-1.21-1.16-1.72-1.31-2-1.31s-.53.11-.53.69v1.83c0,.51-.16.8-1.46.8a8,8,0,0,1-6.22-3.73C5.38,12.68,4.69,10,4.69,9.46c0-.3.12-.57.7-.57h2c.52,0,.72.22.91.79,1,2.9,2.68,5.44,3.37,5.44.26,0,.38-.12.38-.77v-3c-.07-1.38-.81-1.49-.81-2a.49.49,0,0,1,.52-.46H15c.43,0,.58.23.58.75v4c0,.43.19.58.32.58s.47-.15.95-.63a16.87,16.87,0,0,0,2.5-4.17.88.88,0,0,1,.89-.57h2c.62,0,.75.31.62.75-.26,1.18-2.75,4.68-2.75,4.68-.21.35-.3.52,0,.91s.93.91,1.41,1.47a9.16,9.16,0,0,1,1.72,2.39C23.46,19.67,23.16,20,22.58,20Z"/></g></g></g></g></svg>