<svg version="1.0" xmlns="http://www.w3.org/2000/svg"
 width="1176.000000pt" height="1280.000000pt" viewBox="0 0 1176.000000 1280.000000"
 preserveAspectRatio="xMidYMid meet">
<metadata>
</metadata>
<g transform="translate(0.000000,1280.000000) scale(0.100000,-0.100000)"
fill="#fff" stroke="#fff">
<path d="M8310 12770 c-281 -33 -447 -64 -614 -115 -399 -121 -652 -274 -911
-551 -96 -104 -227 -219 -618 -548 -103 -86 -225 -195 -271 -241 -118 -118
-375 -428 -374 -451 1 -10 -35 -75 -79 -144 -80 -125 -80 -126 -79 -191 1 -60
-2 -70 -36 -119 -21 -30 -36 -55 -34 -57 2 -2 20 6 40 18 20 11 36 18 36 14 0
-4 -24 -35 -54 -68 -138 -159 -213 -278 -401 -636 -317 -602 -416 -849 -536
-1340 -49 -201 -52 -209 -116 -316 -36 -60 -94 -140 -129 -177 -74 -80 -154
-190 -195 -271 -39 -76 -89 -206 -89 -230 0 -34 26 -1 112 141 91 152 140 216
243 318 106 105 179 256 230 472 25 105 141 446 215 632 89 221 197 444 392
805 134 248 206 361 333 525 87 112 135 180 135 192 0 4 -10 16 -21 27 l-22
20 37 42 c20 24 36 51 36 62 0 18 -3 17 -37 -9 -51 -38 -41 -20 73 141 76 107
94 139 83 146 -8 5 -20 9 -27 9 -14 0 45 100 101 167 67 81 265 260 602 541
220 184 387 332 500 446 195 196 301 274 520 381 260 127 465 186 844 242 393
57 672 57 955 -2 145 -30 661 -203 791 -264 160 -76 253 -158 330 -287 l24
-41 -39 -53 c-39 -52 -56 -87 -47 -96 10 -10 34 9 69 56 32 41 43 48 70 46 32
-1 33 1 35 38 1 22 7 44 13 50 16 16 12 24 -12 19 -20 -3 -28 6 -57 62 -84
164 -235 270 -546 383 -440 161 -620 206 -888 223 -299 20 -332 19 -587 -11z"/>
<path d="M10440 12022 c-19 -9 -57 -38 -83 -65 -46 -45 -57 -75 -30 -84 12 -4
183 143 183 158 0 14 -32 10 -70 -9z"/>
<path d="M9930 11964 c0 -3 9 -18 21 -32 l21 -27 -45 -5 c-49 -6 -73 -21 -82
-51 -6 -17 -17 -19 -109 -19 -71 0 -143 -8 -232 -26 -125 -26 -448 -130 -530
-172 -143 -73 -268 -240 -294 -393 -15 -87 0 -225 28 -271 13 -20 44 -47 74
-63 123 -66 136 -90 97 -166 -27 -54 -19 -59 19 -11 63 79 48 116 -73 186 -36
22 -75 51 -86 64 -19 25 -35 69 -27 77 2 2 39 -29 81 -70 126 -119 211 -149
347 -121 110 23 192 67 242 129 60 76 82 130 75 189 -13 104 -106 225 -189
246 -143 36 -351 -9 -485 -104 -26 -18 -49 -32 -51 -29 -12 12 72 140 133 201
79 79 131 109 275 153 52 16 141 45 197 64 129 46 293 79 408 82 50 2 93 4 97
4 4 1 10 11 14 24 10 35 35 57 65 57 15 0 39 4 54 10 21 8 24 13 16 28 -10 19
-61 58 -61 46z m-664 -620 c45 -22 72 -62 86 -127 15 -69 0 -126 -51 -193 -31
-41 -46 -52 -101 -71 -77 -27 -122 -28 -181 -8 -75 27 -178 94 -209 137 -33
45 -54 107 -44 132 13 34 179 120 269 139 55 12 199 6 231 -9z"/>
<path d="M10474 11934 c-47 -25 -64 -40 -64 -58 0 -4 12 -5 28 -1 32 7 132 66
132 77 0 16 -49 7 -96 -18z"/>
<path d="M10832 11890 c-297 -17 -342 -24 -342 -50 0 -5 16 -14 35 -20 19 -6
35 -14 35 -16 0 -3 -18 -27 -39 -54 -44 -56 -76 -139 -67 -175 9 -35 -7 -47
-205 -152 -96 -51 -197 -112 -226 -135 -68 -56 -123 -129 -126 -164 -3 -49 38
-44 151 17 l97 53 128 6 c153 7 182 22 77 40 -42 7 -68 16 -63 21 12 12 139
73 332 161 183 83 353 141 596 203 99 25 189 48 200 51 14 4 17 3 10 -4 -5 -6
-93 -40 -195 -77 -334 -120 -505 -192 -582 -247 -28 -19 -38 -58 -16 -58 7 0
102 42 212 94 221 103 365 162 563 230 72 24 145 52 162 60 25 14 56 52 104
133 10 16 -62 57 -138 78 -89 25 -338 27 -703 5z m695 -54 c29 -9 55 -21 58
-26 11 -18 -50 -68 -91 -75 -62 -11 -427 -103 -574 -145 -181 -52 -294 -101
-636 -274 -158 -80 -290 -143 -293 -140 -12 12 61 60 202 137 80 42 152 77
161 77 28 0 74 28 180 111 160 127 206 169 206 190 0 49 -85 32 -115 -24 -16
-29 -101 -107 -117 -107 -14 0 11 82 45 152 l42 83 140 7 c77 3 185 15 240 26
147 30 146 30 330 27 125 -2 184 -7 222 -19z"/>
<path d="M10715 11250 c3 -5 11 -10 16 -10 6 0 7 5 4 10 -3 6 -11 10 -16 10
-6 0 -7 -4 -4 -10z"/>
<path d="M10650 11216 c0 -19 103 -107 113 -97 4 4 4 22 1 40 -5 24 -16 37
-45 51 -45 24 -69 25 -69 6z"/>
<path d="M10330 11172 c0 -10 43 -52 53 -52 13 0 7 20 -13 40 -21 21 -40 26
-40 12z"/>
<path d="M10555 11098 l-26 -23 61 -72 c33 -40 63 -73 65 -73 3 0 5 13 5 29 0
18 -13 47 -35 75 -41 54 -33 60 15 11 23 -24 36 -31 41 -23 17 26 -46 98 -85
98 -8 0 -27 -10 -41 -22z"/>
<path d="M10272 11085 c-17 -36 -15 -59 6 -78 35 -32 55 -18 27 19 -23 30 -19
47 10 40 27 -7 34 11 13 32 -20 20 -44 14 -56 -13z"/>
<path d="M10214 10986 c-7 -18 43 -79 57 -71 13 9 -6 58 -29 73 -19 13 -22 12
-28 -2z"/>
<path d="M9830 10970 c0 -10 8 -24 18 -29 9 -6 13 -11 7 -11 -30 -1 -37 -17
-20 -49 13 -26 19 -30 31 -21 8 7 12 21 8 35 -4 15 0 24 10 28 23 9 20 33 -6
51 -30 21 -48 20 -48 -4z"/>
<path d="M10508 10933 c-18 -40 -20 -60 -15 -137 9 -165 62 -267 206 -401 162
-151 237 -231 383 -414 90 -111 149 -195 154 -214 3 -18 37 -84 74 -148 127
-215 179 -333 215 -491 15 -68 49 -284 61 -395 5 -49 11 -64 25 -68 11 -4 19
-9 19 -13 0 -4 7 -61 15 -127 19 -162 19 -502 0 -647 -15 -108 -81 -348 -95
-348 -4 0 -11 19 -16 43 -7 32 -14 42 -29 42 -21 0 -25 -16 -40 -147 -5 -49
-10 -58 -26 -58 -26 0 -35 -28 -42 -130 -3 -52 -17 -121 -34 -175 -26 -81 -31
-90 -55 -93 -22 -3 -28 -9 -33 -45 -16 -89 -65 -210 -372 -897 -89 -199 -127
-273 -108 -210 4 14 9 57 12 95 3 54 1 75 -11 90 -16 20 -16 20 -31 1 -8 -11
-15 -32 -15 -47 0 -34 -27 -107 -118 -314 -38 -88 -95 -234 -127 -325 -31 -91
-63 -175 -71 -187 -19 -30 -19 -60 0 -44 31 26 165 278 226 423 18 44 50 99
74 125 97 111 190 255 257 399 75 162 275 617 309 704 19 46 51 114 72 150 21
36 65 138 98 228 33 89 71 184 84 210 13 26 51 129 86 230 58 172 62 191 70
310 5 70 14 161 20 202 8 50 10 143 7 275 -6 215 -15 264 -66 360 -24 45 -29
68 -34 166 -15 274 -82 475 -240 720 -40 63 -102 161 -136 219 -120 201 -306
420 -518 608 -68 60 -89 86 -120 149 -27 54 -38 90 -38 122 0 25 -6 62 -13 82
-8 24 -9 44 -3 60 8 24 9 24 23 -11 14 -34 15 -35 27 -13 15 30 5 66 -29 103
-39 42 -57 38 -82 -17z"/>
<path d="M10197 10864 c-9 -10 4 -34 19 -34 8 0 14 9 14 20 0 19 -19 27 -33
14z"/>
<path d="M9797 10818 c-6 -18 22 -70 33 -63 14 9 12 49 -2 63 -15 15 -25 15
-31 0z"/>
<path d="M9784 10706 c-8 -34 12 -62 33 -44 19 15 13 62 -9 66 -12 2 -19 -5
-24 -22z"/>
<path d="M8386 10462 c-48 -17 -98 -64 -82 -79 4 -4 20 -2 36 4 35 13 35 13
11 -35 -10 -20 -22 -52 -26 -69 -14 -69 9 -50 66 51 79 140 78 156 -5 128z"/>
<path d="M8417 10343 c-15 -25 -45 -253 -33 -253 3 0 14 17 25 38 l20 37 1
-52 c0 -29 -4 -53 -9 -53 -9 0 -23 -14 -94 -96 -31 -34 -102 -72 -115 -60 -1
2 25 23 59 47 111 78 74 85 -66 13 -98 -50 -161 -97 -198 -150 -36 -52 -47
-48 -75 32 -31 85 -58 73 -166 -80 -79 -110 -153 -262 -161 -330 -9 -69 2 -86
56 -86 30 0 51 10 104 51 77 59 128 83 158 73 12 -4 47 -24 79 -46 45 -31 75
-43 135 -53 170 -31 194 -11 34 27 -88 21 -121 34 -168 67 -89 62 -137 55
-257 -38 -31 -24 -64 -41 -79 -41 -25 0 -27 3 -27 43 0 26 11 65 29 102 34 72
159 260 194 293 l25 24 20 -44 c11 -23 32 -54 46 -68 l28 -25 21 30 c30 43 98
107 136 129 33 18 33 18 26 -3 -8 -26 -12 -26 65 0 72 23 103 43 183 114 56
51 57 51 63 121 6 61 4 73 -12 89 -15 15 -19 34 -19 83 0 40 -4 67 -12 69 -6
2 -13 0 -16 -4z"/>
<path d="M8358 9340 c-4 -14 -8 -47 -8 -75 l0 -50 20 33 c18 29 40 43 40 25 0
-5 -10 -36 -22 -71 -21 -61 -18 -90 10 -73 16 10 42 110 42 162 l0 41 -34 -22
-35 -21 -3 38 c-3 34 -4 35 -10 13z"/>
<path d="M8475 9168 c-13 -103 9 -166 29 -83 9 39 0 121 -14 130 -5 3 -11 -18
-15 -47z"/>
<path d="M8550 9127 c0 -16 24 -67 32 -67 18 0 4 65 -14 68 -10 2 -18 2 -18
-1z"/>
<path d="M8724 8739 c-3 -6 7 -29 23 -52 16 -23 41 -62 55 -87 40 -68 226
-248 274 -265 l39 -13 3 -81 c2 -45 7 -81 13 -81 5 0 18 14 28 30 l18 30 6
-82 c8 -103 -5 -185 -43 -282 -36 -90 -40 -146 -9 -146 16 0 31 23 75 118 67
140 71 166 30 170 -26 3 -28 6 -20 35 9 37 7 125 -5 270 -2 15 -39 6 -57 -14
l-19 -21 -5 42 c-4 37 -9 44 -37 54 -36 12 -218 202 -260 270 -70 114 -91 134
-109 105z m489 -777 c-9 -25 -33 -58 -33 -46 0 23 22 74 31 69 4 -3 5 -13 2
-23z"/>
<path d="M7516 8247 c-45 -24 -75 -32 -126 -35 -52 -3 -69 -8 -79 -23 -6 -11
-9 -24 -6 -29 10 -16 240 -13 254 3 13 17 5 27 -22 27 -17 0 -12 7 21 36 72
61 52 71 -42 21z"/>
<path d="M7150 8125 c0 -55 127 -104 292 -112 58 -3 114 -3 124 1 35 14 -4 27
-107 37 -136 12 -214 33 -266 69 l-43 30 0 -25z"/>
<path d="M6960 8121 c0 -33 81 -94 215 -163 113 -58 300 -126 312 -114 5 5
-94 60 -257 141 -74 37 -163 87 -197 111 -34 24 -64 44 -67 44 -3 0 -6 -8 -6
-19z"/>
<path d="M11120 8015 c0 -8 5 -15 11 -15 5 0 21 -25 35 -56 21 -47 27 -54 40
-44 8 7 16 11 18 9 17 -20 61 -112 92 -194 l39 -100 3 52 c5 92 -70 269 -126
292 -15 6 -35 25 -44 41 -19 33 -68 43 -68 15z"/>
<path d="M11008 8001 c-7 -12 -21 -21 -30 -21 -10 0 -22 -9 -28 -19 -13 -25
-13 -131 0 -151 9 -13 13 -12 29 8 11 12 22 40 26 62 8 45 20 52 29 15 7 -27
33 -34 42 -11 3 7 2 40 -3 72 -7 50 -11 59 -30 62 -14 2 -27 -4 -35 -17z"/>
<path d="M4416 7960 c-18 -45 -23 -205 -6 -215 14 -9 18 6 30 115 5 52 11 104
12 114 5 36 -20 27 -36 -14z"/>
<path d="M4496 7865 c-8 -22 -7 -100 3 -150 l8 -40 12 43 c14 50 11 154 -5
159 -6 2 -14 -3 -18 -12z"/>
<path d="M6651 7841 c-38 -24 224 -154 405 -200 66 -17 126 -31 133 -31 29 0
-6 21 -101 60 -57 24 -171 74 -254 112 -161 72 -162 72 -183 59z"/>
<path d="M10865 7748 c4 -57 10 -121 14 -143 l7 -40 12 67 c9 49 10 85 2 130
-5 35 -10 66 -10 69 0 4 -7 10 -16 13 -15 6 -16 -4 -9 -96z"/>
<path d="M4562 7748 c-6 -6 -12 -24 -12 -39 0 -20 -10 -36 -37 -56 -52 -40
-233 -253 -233 -274 0 -29 23 -13 82 54 126 146 178 198 184 179 16 -49 25
-64 39 -59 10 4 19 -9 30 -43 16 -48 40 -79 52 -67 3 4 0 44 -8 89 -12 73 -17
83 -36 86 -21 3 -23 9 -23 56 0 60 -18 94 -38 74z"/>
<path d="M10755 7668 c14 -48 24 -106 30 -182 10 -113 29 -85 30 42 0 109 -15
162 -47 162 -16 0 -19 -4 -13 -22z"/>
<path d="M10690 7593 c0 -15 7 -73 15 -128 8 -55 15 -104 15 -108 0 -5 5 -5
11 -2 12 8 4 154 -12 217 -12 46 -29 59 -29 21z"/>
<path d="M6730 7546 c0 -43 73 -80 207 -106 65 -13 297 -5 288 10 -2 4 -46 13
-97 20 -170 23 -292 50 -341 75 -27 14 -51 25 -53 25 -2 0 -4 -11 -4 -24z"/>
<path d="M9280 7518 c0 -14 32 -61 83 -119 45 -53 101 -120 125 -148 69 -82
220 -144 271 -112 16 10 11 13 -82 47 -79 28 -131 68 -193 146 -95 120 -175
208 -190 208 -8 0 -14 -10 -14 -22z"/>
<path d="M4704 7515 c-10 -26 5 -62 32 -80 l27 -17 -7 38 c-11 62 -16 74 -32
74 -8 0 -17 -7 -20 -15z"/>
<path d="M4801 7487 c-8 -11 -8 -24 4 -57 8 -23 15 -44 15 -46 0 -10 -49 -27
-84 -29 -25 -2 -70 -19 -115 -44 -41 -23 -87 -41 -102 -41 -17 0 -59 -20 -105
-50 -42 -27 -85 -50 -96 -50 -10 0 -40 -11 -66 -24 -26 -13 -81 -34 -122 -46
-87 -26 -165 -64 -270 -131 -84 -53 -119 -69 -157 -69 l-25 0 37 53 c21 28
126 139 233 244 108 106 193 195 190 198 -3 3 -27 -12 -52 -35 l-47 -40 -104
0 c-126 0 -180 -11 -310 -62 -129 -51 -390 -181 -435 -217 -19 -15 -59 -36
-88 -45 -29 -10 -65 -28 -80 -41 -17 -14 -87 -39 -187 -68 -181 -51 -268 -82
-830 -300 -535 -207 -962 -389 -1209 -514 -39 -20 -96 -44 -126 -53 -38 -12
-60 -26 -70 -44 -10 -17 -50 -43 -117 -75 -56 -27 -107 -59 -113 -70 -6 -12
-7 -21 -2 -21 5 0 63 22 128 49 66 27 223 86 349 131 275 98 460 172 901 358
379 161 490 206 697 287 82 31 146 59 143 62 -2 2 -57 -12 -121 -32 -64 -20
-119 -34 -122 -32 -6 6 234 100 554 218 304 111 312 115 426 185 98 61 130 76
331 160 116 49 136 54 202 54 41 0 74 -3 74 -7 0 -5 -15 -18 -33 -30 -95 -65
-307 -338 -307 -396 0 -28 1 -29 35 -23 46 9 45 -1 -5 -110 -22 -47 -37 -90
-34 -95 2 -5 -3 -20 -12 -34 -9 -14 -14 -34 -11 -47 5 -18 -8 -37 -63 -94 -39
-40 -70 -80 -70 -89 0 -18 -2 -18 110 1 l35 6 -31 -33 c-43 -47 -138 -169
-152 -196 -18 -34 -15 -43 17 -43 22 0 30 6 35 23 7 27 141 184 256 296 203
202 593 511 875 697 164 107 365 224 387 224 8 0 28 12 44 26 16 14 55 39 87
55 31 16 57 31 57 33 0 6 -69 -11 -120 -29 l-45 -16 -26 32 c-18 22 -31 30
-43 26 -9 -4 -16 -11 -16 -17 0 -25 -22 -6 -43 37 -24 51 -38 61 -56 40z m119
-137 c0 -5 -44 -32 -97 -61 -321 -172 -750 -485 -1074 -782 -101 -92 -134
-117 -165 -123 -36 -7 -38 -6 -25 10 22 27 426 368 546 461 237 184 539 384
704 467 89 44 111 49 111 28z m-563 -227 c2 -5 -58 -54 -133 -109 -75 -54
-221 -166 -323 -248 -102 -81 -193 -153 -201 -160 -38 -28 125 140 229 238
153 143 170 156 297 231 107 63 124 69 131 48z m-447 -206 c0 -7 -57 -68 -126
-137 -69 -69 -125 -120 -123 -115 52 145 57 152 142 209 84 56 107 65 107 43z"/>
<path d="M10594 7464 c3 -9 9 -33 12 -55 4 -22 11 -42 17 -46 6 -4 8 0 5 9 -4
9 -10 36 -13 62 -4 25 -12 46 -17 46 -6 0 -7 -7 -4 -16z"/>
<path d="M4165 7361 c-56 -25 -111 -79 -97 -93 8 -8 18 -7 36 6 14 9 38 16 54
16 29 0 47 11 72 44 14 18 14 19 -8 7 -28 -15 -40 -8 -22 14 20 24 8 26 -35 6z"/>
<path d="M6830 7343 c0 -20 47 -53 77 -53 10 0 32 -9 48 -20 38 -25 122 -27
208 -4 130 33 124 40 -36 48 -129 7 -195 17 -274 41 -18 6 -23 3 -23 -12z"/>
<path d="M10465 7223 c-33 -83 -82 -165 -145 -244 -58 -72 -92 -100 -133 -108
-38 -8 -46 -44 -10 -49 80 -11 231 154 316 344 28 63 31 81 21 108 -11 28 -21
17 -49 -51z"/>
<path d="M5916 7195 c-32 -42 -93 -104 -134 -138 -42 -34 -94 -79 -117 -100
-26 -22 -49 -35 -58 -31 -16 6 -63 -38 -73 -68 -7 -22 -240 -145 -439 -233
-410 -180 -740 -393 -1155 -744 -101 -86 -271 -239 -522 -469 -16 -14 -28 -20
-28 -13 0 7 65 77 144 156 79 79 161 165 182 191 59 71 256 248 382 342 124
92 468 318 919 603 161 101 288 186 282 187 -20 8 -572 -299 -834 -463 -425
-266 -593 -406 -865 -718 -80 -92 -162 -167 -184 -167 -20 0 1 39 47 88 29 31
92 102 139 157 113 132 291 303 409 394 52 41 200 143 329 229 350 231 652
434 765 512 106 74 303 180 335 180 34 0 50 -12 50 -37 0 -13 5 -34 12 -46 11
-21 11 -21 19 -2 4 11 8 34 8 51 1 22 8 34 24 41 25 12 21 14 -52 33 -25 7
-56 24 -70 39 -39 41 -57 44 -84 16 -14 -16 -52 -34 -109 -50 -240 -70 -517
-217 -920 -490 -487 -331 -642 -479 -896 -857 -88 -132 -110 -158 -130 -158
-31 0 -29 4 49 127 306 482 410 596 819 900 333 248 644 431 853 502 53 18 97
38 97 43 0 5 -8 7 -17 4 -10 -3 -36 -8 -58 -12 -69 -12 -234 -73 -339 -126
-185 -93 -463 -275 -722 -474 -237 -182 -367 -322 -537 -581 -100 -152 -128
-178 -140 -132 -3 11 -15 23 -26 26 -15 4 -21 13 -21 34 0 19 -8 34 -25 45
-14 9 -25 25 -25 35 0 22 -18 35 -31 22 -15 -15 -41 -123 -34 -142 6 -14 9
-13 25 7 l19 23 7 -28 c4 -15 27 -51 51 -80 l44 -51 -35 -71 c-20 -39 -36 -77
-36 -85 0 -8 15 -17 35 -20 19 -4 35 -9 35 -12 0 -3 -11 -22 -25 -42 -39 -57
-35 -62 45 -62 39 0 70 -2 70 -4 0 -2 -20 -39 -43 -82 -79 -142 -166 -323
-188 -386 -11 -35 -36 -97 -54 -139 -18 -42 -40 -100 -49 -128 -20 -67 -40
-96 -153 -213 -63 -65 -93 -104 -93 -120 0 -12 -3 -46 -6 -74 l-6 -50 50 -21
50 -21 213 130 c257 156 465 293 694 456 154 110 178 123 250 142 213 56 404
133 616 249 l124 68 35 -30 c103 -88 283 -250 343 -309 37 -37 88 -82 113 -99
102 -70 312 -159 376 -159 61 0 42 12 -238 146 -87 42 -122 66 -162 108 -43
46 -145 142 -356 335 -27 25 -45 46 -39 48 8 3 200 125 753 478 45 28 64 51
55 65 -17 28 -96 -15 -675 -362 -427 -257 -850 -480 -850 -449 0 15 134 97
250 153 208 101 1155 696 1217 764 l22 24 51 -20 c69 -27 145 -34 215 -20 99
19 247 98 374 199 96 77 120 91 150 91 50 0 81 19 230 143 118 98 200 181 189
192 -10 11 -97 -42 -224 -137 -165 -124 -184 -135 -184 -113 0 9 -9 15 -25 15
-14 0 -25 4 -25 8 0 5 47 95 105 201 102 186 114 214 97 225 -15 9 -29 -9
-131 -176 -73 -119 -108 -168 -121 -168 -26 0 -34 -17 -14 -28 14 -8 13 -12
-8 -37 -29 -34 -68 -28 -68 9 0 27 -24 51 -40 41 -5 -3 -10 -18 -10 -33 -1
-26 -1 -26 -15 -8 -8 11 -15 37 -15 58 0 26 -6 40 -19 47 -15 9 -17 17 -11 51
6 35 5 41 -9 38 -22 -4 -40 -62 -40 -135 -2 -121 35 -148 197 -148 l104 0 -46
-42 c-48 -43 -213 -133 -350 -191 -78 -33 -186 -54 -186 -36 0 5 57 43 127 84
73 43 129 83 131 93 5 26 -13 21 -86 -23 -99 -58 -195 -91 -284 -97 -115 -8
-124 1 -42 41 38 18 93 50 123 70 71 48 221 170 216 175 -3 2 -73 -37 -157
-87 -186 -111 -236 -134 -299 -136 -68 -2 -82 16 -87 104 -4 57 -2 70 11 70 8
0 20 -6 26 -14 17 -21 65 -29 118 -21 34 5 78 29 178 96 73 49 138 96 145 103
28 34 -15 20 -111 -36 -208 -122 -295 -131 -315 -32 -7 37 19 58 92 74 59 13
74 21 156 84 60 46 84 76 59 76 -4 0 -56 -22 -115 -50 -142 -67 -161 -67 -144
1 17 65 53 94 134 109 76 14 105 7 132 -32 7 -10 18 -18 23 -18 5 0 23 -10 39
-21 26 -20 33 -21 74 -10 25 6 47 11 50 11 3 0 6 -27 6 -59 0 -33 4 -62 9 -65
5 -4 21 30 36 75 25 74 32 84 74 112 60 41 332 313 450 450 94 111 114 153 38
81 -23 -22 -71 -64 -107 -93 -36 -29 -142 -127 -237 -217 -95 -90 -178 -164
-184 -164 -6 0 -24 -11 -40 -24 -15 -13 -56 -33 -91 -44 -35 -12 -71 -24 -80
-27 -16 -6 -18 -1 -18 39 0 44 -1 46 -30 46 -23 0 -28 3 -23 16 4 11 -1 22
-12 31 -11 7 -19 26 -20 41 0 20 -5 27 -20 27 -14 0 -22 -11 -30 -38 -12 -43
-23 -51 -76 -61 -48 -8 -68 12 -50 51 l12 27 19 -29 c18 -27 20 -28 26 -10 30
86 44 104 107 145 83 52 184 159 220 232 27 56 34 88 20 88 -5 0 -35 -34 -67
-75z m-548 -57 c7 -7 12 -15 12 -19 0 -3 -34 -24 -76 -45 -42 -22 -139 -82
-217 -135 -78 -53 -288 -186 -467 -294 -645 -392 -790 -504 -1044 -807 -146
-175 -142 -155 10 48 105 141 259 303 389 409 163 133 563 407 825 566 92 55
536 288 551 289 3 0 10 -5 17 -12z m155 -383 c6 -14 -33 -94 -62 -129 -9 -10
-167 -94 -351 -186 -366 -184 -468 -245 -820 -490 -462 -321 -655 -468 -869
-658 -63 -56 -116 -100 -119 -98 -10 11 25 49 110 122 51 43 165 144 253 223
471 424 830 696 1185 899 154 88 632 332 651 332 9 0 19 -7 22 -15z m-73 -194
c0 -4 -10 -23 -23 -42 -18 -27 -63 -55 -228 -139 -113 -58 -244 -128 -290
-154 -106 -62 -1088 -741 -1229 -850 -58 -44 -194 -168 -302 -275 -109 -107
-198 -187 -198 -179 0 76 292 342 705 644 306 223 982 688 1132 778 74 44 415
225 426 225 4 1 7 -3 7 -8z m-40 -158 c0 -12 -42 -43 -128 -93 -177 -104 -337
-212 -472 -320 -172 -137 -334 -253 -650 -465 -327 -219 -462 -318 -715 -529
-214 -179 -333 -271 -341 -264 -16 17 408 424 596 573 142 112 171 133 610
442 408 287 490 342 655 443 109 67 419 230 437 230 5 0 8 -8 8 -17z m700 13
c0 -3 -4 -8 -10 -11 -5 -3 -10 -1 -10 4 0 6 5 11 10 11 6 0 10 -2 10 -4z
m-740 -143 c0 -10 3 -34 6 -53 l6 -36 -119 -63 c-196 -106 -343 -196 -645
-396 -158 -104 -373 -246 -477 -314 -105 -68 -264 -179 -353 -246 -90 -68
-165 -120 -168 -118 -6 5 3 12 175 142 72 54 231 167 355 251 247 168 344 238
525 377 116 89 158 115 120 73 -10 -11 -15 -20 -10 -20 11 0 190 144 260 210
53 50 295 210 317 210 4 0 8 -8 8 -17z m50 -163 c10 -6 11 -12 5 -18 -36 -32
-299 -222 -585 -422 -184 -129 -436 -306 -560 -394 -124 -88 -346 -238 -495
-334 -148 -95 -384 -255 -524 -354 -278 -197 -399 -278 -419 -278 -15 0 27 87
54 111 11 10 60 41 109 70 137 80 317 203 450 309 333 266 506 391 850 615
127 82 327 215 445 294 183 124 634 408 650 410 3 0 12 -4 20 -9z m118 -113
c-23 -10 -63 -33 -90 -52 -74 -53 -478 -296 -478 -287 0 5 89 75 197 158 108
82 220 172 247 199 l51 50 58 -25 58 -25 -43 -18z m-2178 -457 c0 -27 -3 -30
-30 -30 -36 0 -38 12 -8 40 30 27 38 25 38 -10z m230 -525 c-7 -8 -18 -15 -24
-15 -6 0 -2 7 8 15 25 19 32 19 16 0z m-471 -369 c-21 -17 -114 -75 -117 -72
-7 8 19 46 31 46 7 0 28 8 47 19 19 10 37 17 39 15 2 -2 2 -6 0 -8z"/>
<path d="M7185 7219 c-49 -24 -133 -53 -213 -75 -7 -2 -10 -8 -7 -14 9 -14 64
-12 119 4 54 16 186 92 186 106 0 16 -21 10 -85 -21z"/>
<path d="M6260 7181 c0 -16 -192 -212 -262 -268 -67 -53 -85 -83 -50 -83 49 0
157 96 263 233 63 82 84 127 59 127 -5 0 -10 -4 -10 -9z"/>
<path d="M7190 7121 c-38 -22 -219 -84 -272 -93 -78 -14 -77 -33 2 -24 79 9
360 127 300 126 -8 0 -22 -4 -30 -9z"/>
<path d="M7065 7010 c-121 -55 -264 -113 -318 -131 -110 -35 -167 -73 -145
-95 23 -23 114 -34 284 -34 159 0 192 6 166 32 -6 6 -61 14 -122 18 -62 5
-114 11 -117 14 -3 3 5 10 18 15 109 42 156 64 313 144 98 51 181 98 184 106
5 13 -15 31 -33 30 -5 -1 -109 -45 -230 -99z"/>
<path d="M10171 7021 c-18 -38 -44 -79 -57 -92 l-24 -22 0 31 c0 82 -21 93
-133 70 l-59 -12 -25 29 -25 30 6 -35 c9 -50 30 -62 96 -55 30 4 63 9 73 11
15 5 17 -3 17 -69 0 -105 13 -113 80 -51 78 73 137 217 95 231 -6 2 -26 -28
-44 -66z"/>
<path d="M5612 7013 c2 -21 8 -38 13 -38 6 0 11 17 13 38 3 29 0 37 -13 37
-13 0 -16 -8 -13 -37z"/>
<path d="M6610 6677 c0 -26 25 -37 106 -48 81 -10 291 -3 314 11 7 4 10 15 7
23 -5 13 -26 16 -124 15 -65 -1 -160 2 -210 6 -79 7 -93 6 -93 -7z"/>
<path d="M2325 6518 c-33 -18 -73 -33 -90 -33 -43 -3 -1590 -622 -1770 -709
-153 -74 -194 -101 -177 -118 6 -6 35 4 78 25 86 43 152 71 139 58 -5 -5 -71
-46 -145 -90 -124 -75 -189 -126 -176 -138 3 -3 23 2 46 11 22 9 51 16 63 16
42 0 120 27 537 185 381 145 499 185 540 185 29 -1 -20 -28 -99 -56 -187 -66
-388 -150 -536 -223 -218 -108 -552 -293 -597 -331 -40 -33 -48 -50 -23 -50
28 0 15 -16 -31 -38 -35 -18 -45 -27 -41 -41 3 -13 -3 -22 -21 -30 -17 -8 -22
-15 -15 -22 7 -7 42 -1 109 20 55 17 167 46 249 66 482 112 781 206 1760 550
400 140 584 209 739 277 49 21 90 37 93 35 2 -3 -8 -22 -22 -43 -27 -39 -28
-57 -4 -61 20 -4 48 17 31 24 -17 7 65 100 122 138 46 30 55 51 20 48 -73 -6
-164 -27 -235 -54 -46 -17 -232 -82 -414 -144 -181 -62 -433 -150 -560 -195
-591 -210 -1194 -414 -1203 -406 -6 7 328 172 474 235 145 61 460 181 706 267
75 27 136 50 134 51 -2 2 -43 -6 -92 -17 -49 -11 -100 -23 -114 -26 -61 -14 8
18 190 87 192 73 247 109 74 49 -49 -18 -141 -50 -204 -72 -63 -22 -218 -80
-343 -130 -126 -50 -230 -88 -233 -85 -3 3 51 35 120 73 69 37 132 77 141 90
24 36 450 168 690 213 210 40 276 79 79 48 -55 -9 -93 -11 -101 -5 -7 6 -97
-16 -255 -62 -133 -39 -281 -82 -327 -96 -81 -23 -131 -31 -118 -17 4 3 163
68 354 144 324 129 348 137 365 122 15 -13 24 -14 51 -5 74 24 167 69 198 95
l34 27 -50 -6 c-27 -4 -79 -22 -114 -40 -84 -44 -96 -43 -41 5 25 21 43 41 40
44 -11 11 -206 -75 -225 -98 -16 -19 -113 -58 -405 -164 -612 -221 -940 -344
-1159 -435 -113 -47 -207 -84 -209 -82 -10 11 244 149 393 214 91 40 415 165
910 352 407 154 475 181 475 190 0 4 -71 -16 -157 -45 -326 -110 -556 -184
-547 -176 5 4 177 81 382 171 336 146 376 161 397 150 20 -11 32 -7 101 29 44
23 90 50 104 61 l25 20 -25 -1 c-14 0 -52 -14 -85 -31z m-925 -673 c0 -6 -838
-425 -1007 -503 -101 -47 -183 -67 -183 -44 0 4 121 71 268 149 426 225 497
259 742 349 135 49 180 62 180 49z m-851 -489 c-15 -14 -149 -75 -149 -68 0 5
30 23 68 40 60 27 92 39 81 28z m-254 -125 c-10 -9 -163 -61 -179 -61 -21 0 7
13 86 41 88 30 108 35 93 20z"/>
<path d="M2446 6520 c-41 -21 -89 -60 -82 -67 2 -3 32 10 65 27 34 17 66 28
71 25 6 -3 18 -1 27 5 16 10 15 11 -4 7 -15 -4 -23 0 -23 9 0 18 -7 17 -54 -6z"/>
<path d="M2530 6334 l-25 -14 29 2 c16 2 31 9 34 16 5 16 -7 15 -38 -4z"/>
<path d="M3078 6063 c-43 -45 -68 -92 -68 -128 0 -40 23 -30 63 28 21 30 48
64 62 77 14 13 25 32 25 42 0 31 -43 21 -82 -19z"/>
<path d="M10495 5648 c-2 -7 -23 -69 -45 -138 -51 -155 -147 -354 -234 -483
-85 -125 -87 -144 -10 -89 112 82 224 265 300 492 35 104 41 222 11 228 -9 2
-19 -2 -22 -10z"/>
<path d="M10094 5078 c-11 -13 -41 -52 -66 -89 -55 -78 -120 -139 -149 -139
-27 0 -52 -14 -114 -65 -29 -23 -75 -51 -101 -61 -44 -16 -218 -145 -252 -187
-18 -21 -7 -37 23 -37 22 0 80 38 153 102 19 16 85 53 148 83 84 39 117 60
125 79 8 16 20 26 33 26 38 0 121 57 177 122 53 60 66 89 72 158 3 33 -23 37
-49 8z"/>
<path d="M5371 4716 c-7 -9 -11 -22 -8 -29 7 -19 193 -86 259 -93 51 -6 60
-10 77 -39 18 -31 24 -34 88 -39 125 -11 133 -15 180 -82 81 -116 133 -246
433 -1069 341 -936 396 -1081 504 -1317 50 -109 82 -193 91 -240 22 -115 47
-176 112 -275 37 -56 53 -60 53 -13 0 37 -16 80 -41 106 -26 27 -80 177 -284
784 -95 283 -226 659 -290 835 -64 176 -168 461 -231 634 -63 173 -135 357
-159 409 -25 52 -43 97 -40 100 6 6 124 -18 148 -30 37 -19 125 -254 218 -578
193 -673 488 -1494 692 -1923 l60 -128 -31 -32 c-61 -62 -33 -84 33 -27 25 22
49 40 53 40 13 -1 146 -187 156 -218 6 -17 18 -37 27 -44 9 -7 25 -26 35 -42
l18 -29 -33 5 c-28 4 -34 1 -42 -21 -8 -20 -7 -28 8 -38 15 -12 19 -10 30 12
19 36 42 31 125 -22 165 -107 340 -159 505 -151 79 4 95 3 103 -11 8 -14 12
-13 39 6 l30 23 11 -35 c14 -43 24 -44 40 -5 7 16 18 34 24 39 7 6 73 11 147
13 113 2 138 0 160 -15 22 -15 25 -22 20 -58 -5 -37 -10 -42 -45 -54 -41 -14
-96 -61 -96 -81 0 -21 37 -26 67 -10 15 8 43 26 62 40 l34 25 47 -24 c52 -26
110 -72 110 -86 0 -12 -60 -11 -195 2 -94 9 -148 23 -368 95 -218 71 -261 82
-279 73 -22 -12 -22 -12 11 -40 l34 -28 -22 -34 c-11 -19 -21 -45 -21 -58 0
-22 2 -21 21 11 26 44 46 60 76 60 16 0 23 -6 23 -20 0 -23 4 -24 28 -9 14 9
40 4 117 -20 55 -16 132 -35 170 -41 39 -6 102 -19 140 -30 39 -10 81 -21 95
-24 19 -4 28 -16 38 -48 7 -24 30 -60 50 -80 l36 -38 -20 -27 c-13 -18 -42
-36 -78 -48 l-57 -20 -47 27 c-26 14 -114 53 -197 87 -82 33 -217 87 -300 121
-235 97 -450 152 -469 121 -3 -4 -22 -11 -42 -14 -20 -4 -48 -16 -61 -28 -18
-18 -26 -20 -35 -11 -17 17 -53 15 -89 -4 -17 -8 -32 -14 -33 -12 -2 2 -8 28
-15 59 -15 72 -57 138 -107 167 -225 133 -582 330 -634 350 -41 15 -89 24
-130 25 l-65 2 3 57 4 57 -41 20 c-28 15 -59 21 -102 21 l-63 0 28 29 c42 44
69 47 129 12 29 -16 88 -43 132 -59 44 -17 118 -47 164 -68 47 -20 121 -49
165 -64 l81 -28 0 -46 c0 -31 5 -50 15 -56 12 -8 16 -1 22 36 4 25 8 48 11 50
2 2 17 -1 34 -7 23 -7 30 -15 26 -28 -7 -27 14 -35 27 -12 9 18 17 20 58 15
93 -12 21 25 -224 115 -284 105 -300 112 -429 186 -118 68 -162 77 -222 46
-65 -33 -105 -94 -118 -184 -9 -56 8 -72 65 -62 28 5 46 15 61 36 24 34 58 45
88 29 16 -8 21 -20 21 -51 0 -50 23 -95 52 -105 13 -4 44 -6 69 -5 55 2 145
-35 388 -163 90 -47 203 -104 250 -127 126 -59 147 -78 170 -152 44 -143 63
-260 65 -389 l1 -127 33 -33 c31 -33 32 -37 32 -119 0 -47 7 -111 15 -144 18
-68 62 -154 88 -169 48 -30 86 58 96 224 8 113 9 116 50 179 22 35 41 70 41
76 0 7 -27 72 -60 143 -50 110 -60 140 -60 186 0 47 4 57 26 75 15 12 37 21
50 21 29 0 295 -96 588 -212 126 -50 263 -101 305 -114 137 -43 218 -27 274
53 17 24 34 43 38 43 17 0 52 -39 77 -85 48 -89 92 -56 92 70 0 63 -4 77 -41
145 -38 70 -40 77 -29 111 18 53 -9 137 -60 193 -35 38 -132 96 -160 96 -6 0
-32 11 -58 24 -74 37 -111 38 -367 12 -132 -14 -285 -26 -340 -27 l-100 -2
-160 92 c-88 51 -170 105 -182 119 -13 15 -73 98 -134 185 -62 88 -121 164
-131 170 -25 15 -47 58 -107 210 -126 315 -339 921 -551 1567 -89 272 -185
551 -212 620 -28 69 -52 131 -55 138 -4 9 10 12 51 12 49 0 56 -2 56 -20 0
-19 2 -19 40 5 44 28 61 30 89 13 15 -9 40 -9 109 0 63 8 106 9 148 2 32 -6
74 -13 92 -16 23 -3 32 -10 32 -24 0 -10 8 -26 17 -36 15 -15 33 -16 158 -10
132 7 143 9 186 37 l47 29 168 -2 169 -3 5 -30 c5 -28 8 -30 59 -33 30 -2 115
4 189 12 74 9 141 16 148 16 7 0 34 -28 61 -62 26 -35 156 -185 288 -334 278
-313 469 -537 580 -679 81 -103 447 -649 482 -720 16 -30 22 -70 28 -161 4
-78 3 -124 -3 -128 -5 -3 -76 8 -157 24 -82 17 -164 30 -184 30 -50 0 -189 35
-260 65 -33 13 -92 30 -133 36 -40 6 -97 23 -128 39 -126 64 -270 87 -346 55
-48 -20 -229 -169 -254 -210 -24 -38 -26 -68 -5 -85 19 -16 44 -9 162 41 125
54 248 71 317 45 54 -21 111 -83 128 -139 8 -28 23 -47 50 -65 39 -25 39 -25
281 -26 l242 -2 260 -52 c143 -29 273 -57 289 -63 17 -5 52 -34 79 -64 28 -32
95 -85 157 -126 105 -69 109 -72 130 -129 12 -32 29 -65 38 -73 27 -24 82 -29
134 -14 39 12 50 13 66 1 32 -22 45 -69 39 -134 -3 -33 -3 -60 -1 -60 3 0 18
7 34 15 42 21 73 107 78 215 3 79 1 89 -27 145 -16 32 -29 60 -27 62 6 6 232
-59 317 -92 52 -20 145 -54 208 -76 120 -42 181 -70 258 -119 57 -36 89 -38
187 -6 l75 24 43 -37 c59 -50 77 -72 78 -97 0 -12 6 -27 14 -33 19 -16 33 9
42 77 10 79 -10 134 -73 203 -47 51 -75 68 -228 144 l-174 87 -104 8 c-133 11
-173 18 -218 41 -19 9 -105 40 -190 68 -85 28 -171 62 -191 76 -32 22 -35 27
-26 47 l11 23 351 -3 c219 -1 358 -6 371 -13 24 -12 70 -112 62 -133 -4 -9
-29 -27 -57 -41 -55 -28 -62 -42 -26 -51 48 -12 136 35 136 71 0 8 7 15 15 15
29 0 150 -61 182 -92 38 -36 58 -32 66 14 12 80 -15 117 -139 187 -53 30 -93
45 -132 50 -32 4 -71 15 -89 24 -38 20 -209 23 -420 7 l-131 -10 -299 91
c-163 50 -307 96 -318 101 -11 6 -51 39 -90 73 -38 34 -80 65 -92 69 -14 5
-49 52 -99 134 -169 279 -302 460 -556 758 -199 233 -286 341 -438 544 -182
243 -297 389 -344 438 -34 36 -38 45 -25 52 8 5 44 30 78 55 35 26 65 44 68
42 2 -3 -7 -27 -21 -53 -19 -36 -23 -51 -14 -61 16 -19 29 -16 83 18 42 27 49
29 57 15 16 -29 45 -17 99 40 30 31 88 83 129 116 83 67 89 75 66 84 -10 4
-41 -10 -80 -35 -50 -33 -70 -40 -90 -35 -22 5 -40 -4 -106 -56 -44 -33 -80
-58 -80 -53 0 4 25 48 55 98 58 95 64 112 40 121 -9 4 -39 -19 -82 -63 -107
-110 -172 -148 -321 -189 -80 -22 -167 -39 -237 -44 -158 -14 -162 -13 -168
12 l-6 21 -303 -6 c-289 -6 -304 -7 -320 -27 -22 -28 -103 -28 -132 -1 -23 21
-146 55 -237 66 -31 4 -91 2 -133 -5 -44 -6 -104 -9 -136 -5 l-58 7 3 45 c1
24 8 50 14 56 15 15 14 47 -3 47 -7 0 -51 -29 -97 -65 -46 -36 -98 -68 -116
-71 -17 -3 -66 2 -110 11 -43 9 -112 20 -153 24 -73 7 -150 34 -150 52 0 5 18
12 40 15 46 7 70 28 44 38 -8 3 -48 8 -87 12 -116 8 -137 13 -131 29 9 21 -26
34 -141 50 -59 8 -149 28 -201 45 -126 40 -167 46 -183 26z m1229 -291 c-7 -9
-15 -13 -17 -11 -7 7 7 26 19 26 6 0 6 -6 -2 -15z m1912 -252 c52 -65 184
-235 293 -378 215 -282 328 -423 509 -640 146 -174 272 -336 443 -569 l133
-181 -50 -50 c-46 -47 -64 -85 -40 -85 6 0 42 16 80 35 38 19 72 35 75 35 14
0 2 -29 -21 -51 -15 -13 -38 -48 -53 -78 -25 -53 -36 -63 -75 -76 -18 -5 -18
-7 -3 -22 30 -30 67 -7 107 69 49 92 64 113 78 104 18 -11 15 -101 -3 -116
-17 -14 -20 -30 -5 -30 9 0 49 50 75 95 9 15 24 12 153 -40 l143 -58 -20 -21
c-22 -24 -41 -68 -41 -96 0 -27 29 -14 36 16 5 21 12 24 56 24 41 0 51 3 55
20 11 41 83 13 98 -37 7 -26 1 -27 -57 -14 -41 10 -43 9 -28 -20 8 -14 6 -29
-10 -60 -30 -58 -19 -70 22 -25 38 41 61 44 103 12 19 -15 18 -15 -12 -10 -39
8 -56 -17 -30 -43 13 -14 16 -13 22 6 4 14 15 21 31 21 26 0 114 -20 114 -26
0 -1 -4 -14 -10 -28 -13 -34 4 -42 24 -11 9 14 25 25 36 25 10 0 74 -20 142
-44 87 -31 151 -47 220 -55 104 -12 188 -36 281 -83 56 -28 57 -29 57 -71 0
-49 16 -73 37 -56 7 7 13 22 13 35 0 13 5 24 10 24 23 0 77 -34 118 -74 42
-40 89 -113 78 -123 -2 -3 -22 9 -44 27 -45 36 -149 81 -169 73 -11 -4 -10
-10 7 -28 21 -22 21 -24 3 -33 -38 -21 -93 -25 -111 -9 -9 8 -54 36 -99 61
-59 34 -100 50 -143 56 -38 5 -104 29 -178 63 -156 72 -153 71 -342 116 -183
44 -369 122 -391 164 -7 12 -25 38 -41 57 -15 19 -28 41 -28 48 0 14 -58 42
-88 42 -10 0 -29 11 -42 25 -27 28 -52 32 -70 10 -17 -21 -6 -45 19 -38 15 4
20 -1 23 -19 2 -17 12 -25 41 -32 21 -5 36 -14 34 -20 -22 -58 -21 -58 18 -41
49 20 48 20 43 -21 -4 -31 -2 -35 15 -30 11 3 37 -8 65 -28 26 -18 89 -55 140
-81 50 -26 92 -50 92 -54 0 -4 -10 -13 -22 -18 -13 -6 -36 -36 -53 -67 -25
-48 -28 -60 -17 -76 10 -16 9 -21 -7 -30 -29 -15 -67 -12 -82 6 -8 9 -21 44
-29 77 -13 53 -19 62 -45 70 -16 5 -78 39 -137 76 -78 48 -111 75 -122 99 -20
41 -66 69 -130 77 -60 8 -408 75 -546 104 -105 23 -326 29 -361 10 -29 -15
-73 -2 -109 31 -27 25 -30 34 -30 92 0 34 -4 69 -9 77 -11 17 -41 7 -41 -14 0
-22 -22 -19 -95 14 -36 17 -85 33 -109 36 -63 10 -181 -11 -255 -45 -74 -35
-75 -35 -62 -12 5 10 56 44 114 75 129 71 159 73 309 21 73 -25 131 -38 197
-44 51 -4 96 -12 100 -17 11 -18 45 -30 171 -62 250 -62 437 -85 520 -62 43
12 54 52 41 150 -10 72 -22 107 -72 211 -114 234 -235 424 -514 805 -229 312
-276 369 -624 750 l-173 190 50 6 c27 4 58 11 68 17 11 6 24 12 30 12 7 0 54
-53 106 -117z m2978 -2184 c105 -57 140 -85 140 -113 0 -23 -2 -23 -85 20 -47
24 -95 44 -107 44 -23 0 -91 67 -83 81 12 19 63 7 135 -32z m-1002 -332 c44
-46 67 -148 43 -186 -10 -15 -19 2 -51 92 -16 43 -23 46 -38 13 -8 -18 -16
-23 -31 -19 -12 3 -21 9 -21 14 0 27 52 109 70 109 4 0 16 -10 28 -23z m-1620
-561 c43 -39 62 -76 62 -117 l0 -32 -31 46 c-33 50 -83 86 -133 96 -40 9 -49
47 -14 60 28 11 69 -8 116 -53z m-1340 -228 c5 -7 12 -38 13 -68 3 -43 1 -55
-12 -58 -10 -2 -22 15 -38 53 -23 56 -35 66 -45 40 -6 -16 -36 -21 -36 -6 0 5
12 19 26 30 30 23 76 28 92 9z m1408 -29 c60 -29 84 -72 91 -163 4 -45 2 -76
-5 -80 -5 -3 -28 25 -51 63 -49 82 -82 111 -127 111 -52 0 -76 62 -31 80 37
15 78 11 123 -11z m-1467 -124 c1 -31 -13 -49 -26 -33 -18 23 -26 90 -11 99
14 9 37 -30 37 -66z m142 -126 c39 -84 44 -104 33 -132 -5 -13 -12 -11 -42 10
-33 22 -43 24 -96 18 -72 -9 -77 -2 -69 80 8 81 18 99 33 60 l12 -30 19 24
c10 13 19 31 19 41 0 19 29 32 43 19 5 -4 26 -44 48 -90z m-50 -169 c11 -39
10 -306 -1 -334 -5 -14 -16 -26 -23 -26 -9 0 -18 35 -30 123 -22 157 -22 230
-1 252 22 22 47 15 55 -15z"/>
<path d="M9768 2463 c-10 -2 -18 -9 -18 -14 0 -13 13 -11 36 6 19 14 14 17
-18 8z"/>
<path d="M9240 4550 c-67 -34 -124 -59 -127 -57 -2 3 9 15 24 27 l28 23 -35
-7 c-72 -14 -210 -120 -210 -161 0 -17 20 -10 71 26 19 13 36 17 62 12 31 -5
52 4 163 68 70 40 142 85 158 101 28 25 29 27 10 28 -12 0 -76 -27 -144 -60z"/>
<path d="M10935 1901 c-80 -9 -28 -23 105 -28 81 -3 111 -1 100 6 -13 9 -48
16 -130 24 -14 2 -47 1 -75 -2z"/>
<path d="M7284 1648 c3 -10 9 -24 12 -32 4 -10 -8 -23 -33 -39 -39 -25 -69
-54 -62 -62 2 -2 28 11 57 30 34 21 60 31 74 27 17 -4 19 -2 10 14 -18 31 -64
81 -58 62z"/>
<path d="M7362 1481 c-19 -10 -37 -21 -40 -27 -4 -5 -16 -14 -27 -20 -28 -15
-30 -40 -5 -47 15 -4 32 4 56 25 31 27 38 29 60 19 33 -15 34 -14 31 7 -3 19
-29 63 -37 61 -3 -1 -20 -9 -38 -18z"/>
<path d="M7354 1250 c-53 -21 -27 -57 33 -45 53 10 114 36 107 46 -7 11 -112
11 -140 -1z"/>
<path d="M7650 1180 c-8 -5 -27 -10 -42 -10 -15 0 -29 -4 -33 -9 -9 -16 25
-41 55 -41 28 0 90 42 90 61 0 12 -51 11 -70 -1z"/>
<path d="M7395 1130 c-3 -6 5 -10 19 -10 14 0 28 5 31 10 3 6 -5 10 -19 10
-14 0 -28 -4 -31 -10z"/>
<path d="M7755 1105 c-34 -19 -56 -24 -76 -20 -22 5 -29 3 -29 -8 0 -19 18
-34 51 -42 20 -5 34 2 72 35 71 63 63 78 -18 35z"/>
</g>
</svg>
