<svg width="89" height="21" viewBox="0 0 89 21" fill="none" xmlns="http://www.w3.org/2000/svg">
<g clip-path="url(#clip0_173_15)">
<g clip-path="url(#clip1_173_15)">
<path d="M39.6916 18.3947C46.4429 17.5407 50.1773 12.5262 46.6408 2C43.8687 4.20529 40.0796 5.64095 38.1773 8.59368C39.4221 9.83545 40.4494 11.2104 40.7346 13.0072C42.452 10.6273 44.3322 8.46047 45.3218 6.05093C44.3075 11.8335 42.7176 14.0196 40.2723 16.9753C40.1026 17.462 39.9087 17.9373 39.6916 18.3991V18.3947ZM37.7515 18.9867C32.521 17.5407 30.0236 13.2618 33.8583 5.66315C36.9572 9.05546 42.4247 11.2104 38.857 18.371C38.7857 18.5211 38.7061 18.666 38.6187 18.8046C37.9767 15.2643 35.4129 12.4626 34.6603 9.4906C34.8348 14.3467 36.0666 15.7646 37.9741 19C37.8999 19 37.8257 18.9911 37.7515 18.9808V18.9867Z" fill="#01A437"/>
</g>
<path d="M1.376 17V5.832H8.528V7.432H3.184V10.536H8.032V12.136H3.184V15.4H8.528V17H1.376ZM15.0524 17.192C13.591 17.192 12.4444 16.7013 11.6124 15.72C10.7804 14.728 10.3644 13.2933 10.3644 11.416C10.3644 10.4773 10.471 9.65067 10.6844 8.936C10.8977 8.22133 11.207 7.61867 11.6124 7.128C12.0177 6.63733 12.5084 6.26933 13.0844 6.024C13.671 5.768 14.327 5.64 15.0524 5.64C16.023 5.64 16.8337 5.85333 17.4844 6.28C18.1457 6.70667 18.663 7.336 19.0364 8.168L17.5164 9C17.3244 8.46667 17.0257 8.04533 16.6204 7.736C16.2257 7.416 15.703 7.256 15.0524 7.256C14.1884 7.256 13.511 7.54933 13.0204 8.136C12.5297 8.72267 12.2844 9.53333 12.2844 10.568V12.264C12.2844 13.2987 12.5297 14.1093 13.0204 14.696C13.511 15.2827 14.1884 15.576 15.0524 15.576C15.7244 15.576 16.2684 15.4053 16.6844 15.064C17.111 14.712 17.4257 14.264 17.6284 13.72L19.0844 14.6C18.711 15.4107 18.1884 16.0453 17.5164 16.504C16.8444 16.9627 16.023 17.192 15.0524 17.192ZM25.1179 17.192C24.3925 17.192 23.7312 17.0693 23.1339 16.824C22.5472 16.568 22.0405 16.2 21.6139 15.72C21.1979 15.2293 20.8725 14.6267 20.6379 13.912C20.4139 13.1867 20.3019 12.3547 20.3019 11.416C20.3019 10.4773 20.4139 9.65067 20.6379 8.936C20.8725 8.21067 21.1979 7.608 21.6139 7.128C22.0405 6.63733 22.5472 6.26933 23.1339 6.024C23.7312 5.768 24.3925 5.64 25.1179 5.64C25.8432 5.64 26.4992 5.768 27.0859 6.024C27.6832 6.26933 28.1899 6.63733 28.6059 7.128C29.0325 7.608 29.3579 8.21067 29.5819 8.936C29.8165 9.65067 29.9339 10.4773 29.9339 11.416C29.9339 12.3547 29.8165 13.1867 29.5819 13.912C29.3579 14.6267 29.0325 15.2293 28.6059 15.72C28.1899 16.2 27.6832 16.568 27.0859 16.824C26.4992 17.0693 25.8432 17.192 25.1179 17.192ZM25.1179 15.576C25.5445 15.576 25.9339 15.5013 26.2859 15.352C26.6485 15.2027 26.9525 14.9893 27.1979 14.712C27.4539 14.424 27.6512 14.0773 27.7899 13.672C27.9285 13.2667 27.9979 12.808 27.9979 12.296V10.536C27.9979 10.024 27.9285 9.56533 27.7899 9.16C27.6512 8.75467 27.4539 8.41333 27.1979 8.136C26.9525 7.848 26.6485 7.62933 26.2859 7.48C25.9339 7.33067 25.5445 7.256 25.1179 7.256C24.6805 7.256 24.2859 7.33067 23.9339 7.48C23.5819 7.62933 23.2779 7.848 23.0219 8.136C22.7765 8.41333 22.5845 8.75467 22.4459 9.16C22.3072 9.56533 22.2379 10.024 22.2379 10.536V12.296C22.2379 12.808 22.3072 13.2667 22.4459 13.672C22.5845 14.0773 22.7765 14.424 23.0219 14.712C23.2779 14.9893 23.5819 15.2027 23.9339 15.352C24.2859 15.5013 24.6805 15.576 25.1179 15.576Z" fill="black"/>
<path d="M53.184 17H51.376V5.832H56.192C57.1947 5.832 57.984 6.136 58.56 6.744C59.136 7.34133 59.424 8.15733 59.424 9.192C59.424 9.992 59.2373 10.6587 58.864 11.192C58.5013 11.7147 57.9627 12.0827 57.248 12.296L59.664 17H57.648L55.408 12.488H53.184V17ZM56.064 10.968C56.5227 10.968 56.88 10.8507 57.136 10.616C57.392 10.3707 57.52 10.024 57.52 9.576V8.808C57.52 8.36 57.392 8.01867 57.136 7.784C56.88 7.53867 56.5227 7.416 56.064 7.416H53.184V10.968H56.064ZM61.8604 17V5.832H69.0124V7.432H63.6684V10.536H68.5164V12.136H63.6684V15.4H69.0124V17H61.8604ZM74.6888 17.192C73.7501 17.192 72.9501 17.0213 72.2888 16.68C71.6381 16.3387 71.0781 15.88 70.6088 15.304L71.8568 14.136C72.2514 14.616 72.6834 14.9787 73.1528 15.224C73.6328 15.4693 74.1768 15.592 74.7848 15.592C75.4994 15.592 76.0381 15.432 76.4008 15.112C76.7634 14.792 76.9448 14.36 76.9448 13.816C76.9448 13.3787 76.8168 13.032 76.5608 12.776C76.3048 12.52 75.8514 12.328 75.2008 12.2L74.2088 12.024C73.1208 11.8213 72.3048 11.464 71.7608 10.952C71.2168 10.44 70.9448 9.736 70.9448 8.84C70.9448 8.34933 71.0354 7.90667 71.2168 7.512C71.4088 7.10667 71.6701 6.77067 72.0008 6.504C72.3421 6.22667 72.7528 6.01333 73.2328 5.864C73.7128 5.71467 74.2514 5.64 74.8488 5.64C75.6914 5.64 76.4221 5.78933 77.0408 6.088C77.6594 6.376 78.1874 6.79733 78.6248 7.352L77.3608 8.472C77.0728 8.09867 76.7208 7.8 76.3048 7.576C75.8888 7.352 75.3714 7.24 74.7528 7.24C74.1128 7.24 73.6168 7.368 73.2648 7.624C72.9128 7.88 72.7368 8.25333 72.7368 8.744C72.7368 9.21333 72.8808 9.56533 73.1688 9.8C73.4568 10.024 73.9048 10.1947 74.5128 10.312L75.5048 10.52C76.6248 10.7333 77.4408 11.096 77.9528 11.608C78.4754 12.12 78.7368 12.824 78.7368 13.72C78.7368 14.2427 78.6461 14.7173 78.4648 15.144C78.2834 15.5707 78.0168 15.9387 77.6648 16.248C77.3234 16.5467 76.9021 16.7813 76.4008 16.952C75.8994 17.112 75.3288 17.192 74.6888 17.192ZM84.7856 7.432V17H82.9776V7.432H79.6496V5.832H88.1136V7.432H84.7856Z" fill="black"/>
</g>
<defs>
<clipPath id="clip0_173_15">
<rect width="89" height="21" fill="white"/>
</clipPath>
<clipPath id="clip1_173_15">
<rect width="16" height="17" fill="white" transform="translate(32 2)"/>
</clipPath>
</defs>
</svg>
