<svg width="26" height="30" viewBox="0 0 26 30" fill="none" xmlns="http://www.w3.org/2000/svg">
<path d="M18.6235 0C17.0242 0.110625 15.1548 1.13437 14.0654 2.4675C13.0717 3.67687 12.2542 5.47312 12.5729 7.21875C14.3204 7.27312 16.126 6.225 17.1723 4.86937C18.151 3.6075 18.8917 1.8225 18.6235 0Z" fill="white"/>
<path d="M24.9442 10.065C23.4085 8.13934 21.2504 7.02185 19.2123 7.02185C16.5217 7.02185 15.3836 8.30997 13.5142 8.30997C11.5867 8.30997 10.1224 7.0256 7.7955 7.0256C5.50989 7.0256 3.07616 8.42247 1.53304 10.8112C-0.636323 14.1749 -0.265075 20.4993 3.25053 25.8861C4.50865 27.8136 6.18864 29.9811 8.38612 29.9998C10.3417 30.0186 10.893 28.7455 13.5423 28.7323C16.1917 28.7174 16.6942 30.0167 18.6461 29.9961C20.8454 29.9792 22.6173 27.5774 23.8754 25.6499C24.7773 24.268 25.1129 23.5724 25.8123 22.0124C20.7254 20.0755 19.9098 12.8418 24.9442 10.065Z" fill="white"/>
</svg>
