<svg width="616" height="621" viewBox="0 0 616 621" fill="none" xmlns="http://www.w3.org/2000/svg">
<path d="M1.15153 5.46655C40.9994 -2.82409 84.2821 7.80125 108.867 41.9661C130.392 71.8699 135.933 113.178 130.007 149.685C126.565 170.793 119.668 191.109 112.095 211.073C106.916 224.727 99.9704 239.082 98.2599 253.724C97.7562 258.023 97.8205 262.663 99.9764 266.452C102.732 271.268 107.971 272.833 113.175 273.165C124.868 273.909 137.244 270.448 148.673 267.91C161.551 265.048 174.299 261.579 186.915 257.505C210.156 250 236.078 238.684 259.559 249.979C280.198 259.909 292.264 282.105 299.249 303.497C314.068 348.86 309.302 398.142 317.187 444.926C320.209 462.846 326.282 479.661 333.883 495.967C347.743 525.713 366.966 553.009 391.457 574.321C424.054 602.688 465.147 618.608 508.226 620.41C540.857 621.77 574.047 615.629 604.873 603.792C608.377 602.441 611.852 601.01 615.299 599.5C616.516 598.968 615.893 596.988 614.674 597.525C589.572 608.535 563 615.34 535.988 617.676C491.328 621.503 446.602 611.329 409.655 585.838C380.837 565.946 358.012 538.006 341.499 506.735C333.179 490.981 325.634 473.921 321.451 456.345C311.09 412.716 315.677 366.467 306.421 322.575C301.89 301.123 294.195 279.331 279.681 262.995C272.913 255.359 264.573 249.12 254.948 245.84C244.265 242.183 232.78 242.593 221.726 244.847C209.869 247.266 198.459 251.588 186.921 255.32C174.326 259.411 161.583 262.901 148.692 265.791C141.909 267.308 135.095 268.657 128.251 269.835C122.605 270.807 116.728 271.698 111.053 270.856C105.699 270.06 101.498 267.191 100.367 261.543C99.304 256.142 100.702 250.231 102.133 244.972C104.215 237.35 107.065 229.933 109.873 222.559C116.932 203.947 124.096 185.339 128.758 165.977C137.436 129.852 136.226 90.9539 120.449 57.5989C111.395 38.4849 97.035 22.4938 78.6325 12.6415C60.2299 2.78913 38.9592 -0.523197 18.1515 0.98234C12.4122 1.40078 6.69669 2.20317 1.04123 3.38438C-0.250942 3.64421 -0.145288 5.74826 1.15153 5.46655Z" fill="#E1EFF8"/>
</svg>
