<svg width="480" height="139" viewBox="0 0 480 139" fill="none" xmlns="http://www.w3.org/2000/svg">
<path d="M42.9518 86.4496C38.4151 77.7391 36.3724 67.5256 38.8897 57.8845C41.1185 49.3461 46.8417 42.7946 55.1381 39.7376C58.6093 38.4533 63.1135 37.3087 66.715 38.7418C69.1066 39.6957 70.0838 41.8826 70.3909 44.2882C71.0702 49.7137 69.088 55.5393 66.8778 60.4064C60.2146 75.0729 46.9813 87.5803 30.3234 88.7901C22.1526 89.3857 12.921 87.7059 5.83902 83.3786C4.10808 82.3177 2.11657 80.7636 2.1538 78.5161C2.20498 75.957 4.58734 73.6909 6.54163 72.3694C9.65917 70.2616 13.2327 69.6334 16.7551 70.9735C19.9192 72.188 22.6738 74.4494 25.3121 76.52C28.6343 79.121 31.9334 81.75 35.479 84.044C38.9582 86.3489 42.7233 88.19 46.6789 89.5206C53.463 91.7494 60.5729 92.9778 67.6642 93.6618C75.7651 94.4482 83.8568 94.4529 91.8089 92.5591C104.651 89.502 115.605 82.0245 125.446 73.4815C134.673 65.4783 143.127 56.2652 153.532 49.7509C162.996 43.8276 174.005 41.3754 184.912 44.3069C195.465 47.1406 204.39 54.1202 212.035 61.6767C229.349 78.7767 241.763 100.032 258.1 117.979C269.579 130.542 287.414 144.845 305.133 135.307C312.755 131.203 318.031 123.674 322.154 116.304C327.5 106.714 331.46 96.3699 335.336 86.1285C343.842 63.7939 351.719 39.5049 367.907 21.3487C376.031 12.238 386.366 5.49572 398.403 2.95981C418.058 -1.17676 438.261 5.90519 455.375 15.2067C463.489 19.6814 471.295 24.6914 478.743 30.2035C479.65 30.8688 480.521 29.3566 479.623 28.7005C452.23 8.67376 412.363 -12.2883 379.773 8.76682C359.136 22.0978 348.751 46.7311 340.138 68.7121C335.592 80.3448 331.488 92.131 326.467 103.554C322.466 112.66 317.85 122.204 310.554 129.146C304.091 135.311 295.538 137.926 286.758 135.898C276.707 133.571 268.448 126.326 261.51 119.058C243.996 100.725 231.326 78.2974 213.258 60.4297C205.497 52.7568 196.428 45.7028 185.759 42.7202C174.875 39.6771 163.675 41.7151 154.025 47.3732C143.132 53.7758 134.412 63.2727 124.99 71.5319C114.404 80.8101 102.585 88.818 88.5099 91.447C79.4876 93.1267 70.1024 92.4706 61.0894 91.0608C55.2219 90.1302 49.252 88.8506 43.7428 86.5752C37.5915 84.0347 32.2125 79.712 27.0244 75.6359C22.3713 71.9646 16.9412 67.3395 10.5526 68.6796C4.50359 69.9499 -3.56481 77.6181 2.82849 83.2948C5.38767 85.6167 8.84024 86.9521 12.0462 88.0596C16.136 89.4735 20.401 90.3174 24.7211 90.5676C42.0956 91.5866 56.7807 81.3498 65.4447 66.8788C68.6273 61.5604 71.1819 55.5859 72.0055 49.4066C72.522 45.5353 72.4708 40.4262 68.9019 37.9368C62.9692 33.8096 53.0815 37.9368 47.9026 41.4778C41.3884 45.9587 37.6008 53.3896 36.4654 61.0951C35.13 70.1546 37.2518 79.2792 41.4442 87.329C41.9653 88.3294 43.4683 87.4453 42.9518 86.4496Z" fill="white"/>
</svg>
