<svg width="121" height="114" viewBox="0 0 121 114" fill="none" xmlns="http://www.w3.org/2000/svg">
<path d="M1.24181 32.228C-0.735735 35.3967 0.00410069 39.0401 1.01847 42.4089C1.91651 45.4148 3.02859 48.3508 4.11275 51.2916C5.80181 55.8748 7.49087 60.4581 9.10548 65.0693C10.6317 69.4245 12.0881 73.8031 13.5259 78.1862C14.4332 80.9781 15.3871 83.728 16.4434 86.4408C18.1045 90.6285 19.9564 94.7139 21.8269 98.7946C23.2973 101.996 24.7863 105.309 26.9174 108.157C28.1531 109.863 29.7979 111.231 31.7007 112.135C33.2562 112.837 34.9323 113.234 36.6376 113.303C38.7127 113.352 40.7856 113.139 42.8076 112.67C45.6502 112.04 48.4556 111.252 51.211 110.311C60.3542 107.305 69.3207 103.755 78.3244 100.363C86.4951 97.287 94.6985 94.2672 102.785 90.9775C106.81 89.335 111.007 87.7203 114.655 85.3054C116.699 84.0533 118.346 82.2481 119.406 80.0986C120.277 78.3409 120.638 76.3744 120.448 74.4219C120.251 72.8292 119.921 71.2557 119.462 69.7177C118.773 67.2795 117.95 64.8785 117.136 62.4915C113.971 53.525 110.486 44.6656 107.038 35.8016C104.014 28.0403 101.055 20.1859 97.3693 12.7038C95.5407 8.98134 93.4514 4.93783 90.1105 2.35073C88.9317 1.43396 87.5826 0.76021 86.1415 0.368525C83.7405 -0.282902 81.2697 0.284771 78.9293 0.936199C74.2529 2.24371 69.6511 3.96069 65.1097 5.67766C61.336 7.10615 57.6648 8.76729 54.0447 10.5261C49.4633 12.7931 44.7684 14.823 39.9785 16.6077C35.8792 18.1013 31.7519 19.5112 27.6386 20.9723C22.8615 22.6753 18.075 24.3876 13.2793 26.1092C10.2362 27.2074 7.08605 28.2171 4.1872 29.6828C2.98297 30.2371 1.95904 31.1191 1.23251 32.228C0.62761 33.1586 2.16312 34.0567 2.73545 33.1074L2.94949 32.7864L3.05651 32.6421C2.87504 32.8934 3.05651 32.67 3.05651 32.6142C3.23712 32.4134 3.4298 32.2239 3.63349 32.0465C3.75912 31.9302 3.70793 31.986 3.63349 32.0233L3.86148 31.9023C4.00573 31.7999 4.15463 31.7069 4.32679 31.6138C4.68042 31.3998 5.04336 31.2136 5.41561 31.0322C8.39822 29.599 11.7856 28.5056 14.9916 27.3516C22.2007 24.7583 29.4161 22.1914 36.6376 19.6508C38.8897 18.8551 41.1464 18.0688 43.3659 17.18C47.2466 15.6306 51.0528 13.9229 54.8171 12.0989C58.3209 10.4005 61.8479 8.78125 65.5191 7.39929C70.0047 5.70093 74.5554 4.01187 79.1759 2.69505C80.5095 2.28248 81.8788 1.99584 83.2659 1.83889C83.7782 1.79237 84.2937 1.79237 84.8061 1.83889C84.9736 1.83889 84.8061 1.83889 84.8061 1.83889L85.0154 1.87612L85.2621 1.9273L85.7785 2.05759C86.1105 2.15065 86.4362 2.25767 86.7557 2.37865L86.9744 2.4624C87.1465 2.5322 86.8255 2.39726 86.9372 2.4624L87.0581 2.51358L87.5234 2.74159C87.8259 2.89514 88.1237 3.0673 88.4075 3.24877C88.5564 3.34648 88.7007 3.4442 88.8403 3.54656L89.045 3.69547C89.2358 3.83506 88.9519 3.61171 89.1613 3.78387C89.7708 4.28793 90.3416 4.83698 90.869 5.4264L91.2645 5.89171L91.4832 6.16158C91.5204 6.20811 91.7298 6.47799 91.6135 6.32444C91.9113 6.7153 92.1998 7.11546 92.4743 7.52493C93.8389 9.59512 95.0518 11.7613 96.1037 14.0066C97.6252 17.1381 98.9979 20.3394 100.324 23.5547C104.242 33.0376 107.899 42.6322 111.533 52.2315C113.776 58.1548 116.126 64.0921 117.843 70.1923C118.075 71.0252 118.308 71.8581 118.476 72.7049C118.545 73.04 118.611 73.3796 118.666 73.7193C118.694 73.8682 118.713 74.0171 118.736 74.1846C118.773 74.4312 118.713 73.9938 118.736 74.2311L118.764 74.4591C118.823 74.975 118.845 75.4943 118.829 76.0133C118.829 76.2319 118.797 76.446 118.778 76.6647C118.759 76.8834 118.82 76.4274 118.778 76.6275C118.78 76.6693 118.78 76.7113 118.778 76.7531L118.652 77.0369C118.568 77.4285 118.458 77.814 118.322 78.1909C118.252 78.3863 118.178 78.5864 118.099 78.7772C118.075 78.8423 118.047 78.9028 118.024 78.9633C118.001 79.0238 118.122 78.7446 118.024 78.9633C117.973 79.0843 117.917 79.2053 117.866 79.3216C117.655 79.7716 117.414 80.2068 117.145 80.6244C117.01 80.8338 116.866 81.0339 116.717 81.234C116.908 80.9734 116.652 81.3131 116.591 81.3829C116.531 81.4527 116.414 81.5923 116.321 81.69C115.939 82.1087 115.527 82.499 115.088 82.8579L114.907 83.0068L114.8 83.0906C114.925 82.9975 114.725 83.1511 114.693 83.1743L114.465 83.3372C114.181 83.5466 113.888 83.742 113.595 83.9328C112.092 84.8769 110.528 85.7195 108.914 86.4547C103.302 89.107 97.4531 91.266 91.6321 93.4901C81.8979 97.2126 72.1497 100.885 62.3876 104.509C58.5907 105.905 54.7845 107.3 50.9411 108.58C48.1942 109.522 45.3983 110.314 42.5656 110.953C41.9979 111.074 41.4303 111.186 40.8579 111.279C40.2856 111.372 40.053 111.409 39.462 111.47C38.5353 111.574 37.6022 111.609 36.6702 111.577C36.2514 111.577 35.828 111.525 35.4139 111.474C35.6279 111.502 35.3859 111.474 35.3022 111.474L35.0323 111.428C34.8322 111.39 34.6321 111.349 34.4367 111.302C34.0687 111.215 33.7052 111.109 33.3479 110.986C33.1711 110.925 32.9989 110.86 32.8221 110.79C32.6453 110.72 32.8221 110.79 32.7337 110.753L32.4126 110.609C30.6678 109.796 29.1745 108.528 28.09 106.937C26.0566 104.025 24.5862 100.66 23.1112 97.422C21.3244 93.4995 19.533 89.5583 17.9556 85.5427C16.8994 82.8533 15.9874 80.108 15.0893 77.3627C12.1765 68.4474 9.04034 59.6252 5.7832 50.8402C4.70834 47.9321 3.61022 45.0193 2.71218 42.0506C2.39192 41.0215 2.12632 39.9762 1.91651 38.9191C1.87463 38.7097 1.84206 38.5003 1.80949 38.2909L1.78157 38.1234C1.78157 38.0117 1.78157 37.9047 1.749 37.7977C1.70494 37.4023 1.68629 37.0044 1.69316 36.6065C1.69316 36.4251 1.69316 36.2436 1.71643 36.0668C1.71643 35.9923 1.71643 35.9179 1.71643 35.8434C1.71643 35.769 1.71643 35.7318 1.71643 35.6806C1.71643 35.6294 1.68385 35.8993 1.71643 35.7504C1.76452 35.4246 1.83606 35.1027 1.93047 34.7872C1.977 34.629 2.03283 34.4708 2.08867 34.3219C2.08867 34.2567 2.13985 34.1916 2.16777 34.1264C2.06075 34.387 2.16777 34.1265 2.205 34.0427C2.35855 33.7309 2.5214 33.4285 2.70287 33.1121C3.345 32.1536 1.83275 31.2741 1.24181 32.228Z" fill="white"/>
</svg>
