<svg width="76" height="76" viewBox="0 0 76 76" fill="none" xmlns="http://www.w3.org/2000/svg">
<g clip-path="url(#clip0_1378_58)">
<path d="M72.6311 34.8424H65.368V31.2109C65.368 29.2088 63.7386 27.5794 61.7365 27.5794H45.3146L26.6313 0L5.63974 30.9881C1.95002 36.4343 0 42.7907 0 49.3687C0 64.0535 11.9466 76 26.6313 76C28.9664 76 31.2737 75.6828 33.5083 75.0873C34.3024 75.6562 35.2671 76 36.3156 76H67.7891C70.4595 76 72.6311 73.8284 72.6311 71.158V42.1055C73.9663 42.1055 75.0521 41.0197 75.0521 39.6845V37.2635C75.0521 35.9283 73.9663 34.8424 72.6311 34.8424ZM62.947 31.2108V34.8423H41.1576V31.2108C41.1576 30.5438 41.7012 30.0003 42.3681 30.0003H61.7364C62.4035 30.0003 62.947 30.5438 62.947 31.2108ZM62.947 66.3158V42.1055H65.368V66.3158H62.947ZM60.5259 66.3158H58.1048V42.1055H60.5259V66.3158ZM55.6838 66.3158H53.2628V42.1055H55.6838V66.3158ZM50.8418 66.3158H48.4208V42.1055H50.8418V66.3158ZM45.9998 66.3158H43.5788V42.1055H45.9998V66.3158ZM41.1576 66.3158H38.7366V42.1055H41.1576V66.3158ZM36.3156 66.3158H33.8945V42.1055H36.3156V66.3158ZM31.4735 42.1055V68.1135C29.8974 68.519 28.2753 68.737 26.6315 68.737C15.9523 68.737 7.2632 60.0479 7.2632 49.3687C7.2632 44.8535 8.5693 40.4678 11.0412 36.6886L26.6313 12.8436L38.7366 31.3585V34.8423H31.4735C30.1383 34.8423 29.0525 35.9281 29.0525 37.2633V39.6843C29.0524 41.0197 30.1383 42.1055 31.4735 42.1055ZM2.42102 49.3685C2.42102 43.2761 4.22706 37.3892 7.64438 32.345L26.6313 4.31671L42.3899 27.5792H42.3681C41.3828 27.5792 40.4907 27.9763 39.8358 28.6155L26.6313 8.42041L9.01476 35.364C6.28499 39.5392 4.84203 44.3812 4.84203 49.3685C4.84203 61.3829 14.617 71.1578 26.6313 71.1578C28.2692 71.1578 29.8913 70.9763 31.4734 70.618V71.1578C31.4734 71.8151 31.6077 72.4409 31.8463 73.0136C30.1419 73.3876 28.3939 73.5788 26.6313 73.5788C13.2818 73.579 2.42102 62.7194 2.42102 49.3685ZM67.7891 73.579H36.3156C34.9804 73.579 33.8945 72.4932 33.8945 71.158V68.737H70.2101V71.158C70.2101 72.4932 69.1243 73.579 67.7891 73.579ZM70.2101 66.3158H67.7891V42.1055H70.2101V66.3158ZM31.4735 39.6845V37.2635H72.6312L72.6324 39.6845H31.4735Z" fill="#EE3428"/>
<path d="M26.6277 42.1049C26.6277 38.0993 23.3702 34.8418 19.3646 34.8418C15.359 34.8418 12.1016 38.0993 12.1016 42.1049C12.1016 46.1104 15.359 49.3679 19.3646 49.3679C23.3702 49.3679 26.6277 46.1104 26.6277 42.1049ZM14.5226 42.1049C14.5226 39.4345 16.6942 37.2628 19.3646 37.2628C22.035 37.2628 24.2067 39.4345 24.2067 42.1049C24.2067 44.7752 22.035 46.9469 19.3646 46.9469C16.6942 46.9469 14.5226 44.7752 14.5226 42.1049Z" fill="#EE3428"/>
<path d="M31.4731 28.7893C31.4731 26.1189 29.3015 23.9473 26.6311 23.9473C23.9607 23.9473 21.7891 26.1189 21.7891 28.7893C21.7891 31.4597 23.9607 33.6313 26.6311 33.6313C29.3015 33.6313 31.4731 31.4597 31.4731 28.7893ZM26.631 31.2103C25.2958 31.2103 24.2099 30.1245 24.2099 28.7893C24.2099 27.4541 25.2958 26.3683 26.631 26.3683C27.9662 26.3683 29.052 27.4541 29.052 28.7893C29.052 30.1245 27.9662 31.2103 26.631 31.2103Z" fill="#EE3428"/>
<path d="M24.2092 51.7891C21.5388 51.7891 19.3672 53.9607 19.3672 56.6311C19.3672 59.3015 21.5388 61.4731 24.2092 61.4731C26.8796 61.4731 29.0512 59.3015 29.0512 56.6311C29.0512 53.9607 26.8796 51.7891 24.2092 51.7891ZM24.2092 59.0521C22.874 59.0521 21.7882 57.9663 21.7882 56.6311C21.7882 55.2959 22.874 54.2101 24.2092 54.2101C25.5444 54.2101 26.6302 55.2959 26.6302 56.6311C26.6302 57.9663 25.5444 59.0521 24.2092 59.0521Z" fill="#EE3428"/>
</g>
<defs>
<clipPath id="clip0_1378_58">
<rect width="76" height="76" fill="white"/>
</clipPath>
</defs>
</svg>
